<?xml version="1.0" encoding="utf-8"?>
<!-- Generator: Adobe Illustrator 25.4.1, SVG Export Plug-In . SVG Version: 6.00 Build 0)  -->
<svg version="1.1" id="레이어_1" xmlns="http://www.w3.org/2000/svg" xmlns:xlink="http://www.w3.org/1999/xlink" x="0px"
	 y="0px" viewBox="0 0 1597 946" style="enable-background:new 0 0 1597 946;" xml:space="preserve">
<style type="text/css">
	.st0{fill:#FFFFFF;}
	.st1{fill:#E7ECF0;}
	.st2{fill:#646B73;}
	.st3{font-family:'AdobeMyungjoStd-Medium-KSCpc-EUC-H';}
	.st4{font-size:35px;}
	.st5{fill:#5282F0;}
	.st6{font-family:'ArialMT';}
	.st7{fill:#9C83E9;}
	.st8{fill:#00958D;}
	.st9{fill:#1B85B4;}
	.st10{fill:#A7BBC7;}
	.st11{fill:none;stroke:#A7BBC7;stroke-width:2;}
	.st12{fill:none;stroke:#A7BBC7;stroke-width:10;stroke-dasharray:4,10;}
	.st13{opacity:0.7;fill:none;stroke:#A7BBC7;stroke-width:10;stroke-dasharray:4,10;enable-background:new    ;}
	.st14{fill:none;stroke:#A7BBC7;}
	.st15{opacity:0.53;}
	.st16{fill:#5B5B61;}
	.st17{fill:#8D68B0;}
	.st18{fill:#4BB69A;}
	.st19{fill:#5360AB;}
	.st20{fill:#5BAACF;}
</style>
<rect x="0" class="st0" width="1588.4" height="946"/>
<g id="그룹_5481_00000013163934289237651370000011939482735250025112_" transform="translate(-3973 -3551)">
	<g transform="matrix(1, 0, 0, 1, 4127, 3601)">
		<g>
			<g>
				<path id="다각형_2-2_00000094617231217603933200000003706851570422807712_" class="st1" d="M630.4,327.2l172.5,300h-345
					L630.4,327.2z"/>
			</g>
		</g>
	</g>
	<g id="그룹_5481_00000072277094425535533100000001494412002393204915_" transform="translate(-3973 -3551)">
		<g transform="matrix(1, 0, 0, 1, 4127, 3601)">
			
				<image style="overflow:visible;opacity:0.2;" width="375" height="331" xlink:href="42A7A3FA57DF319C.png"  transform="matrix(1 0 0 1 4422 3870)">
			</image>
			<g>
				<g>
					<g>
						<g>
							<g id="다각형_2-2_00000155831939250082517840000002310180093851343237_">
								<g>
									<polygon class="st1" points="4602.5,3878.1 4775,4178.1 4430,4178.1 									"/>
								</g>
							</g>
						</g>
					</g>
				</g>
			</g>
		</g>
	</g>
</g>
<g id="data-voucher-img" transform="translate(-154 -50)">
	<g id="그룹_5475" transform="translate(3 -102)">
		<g id="그룹_5469" transform="translate(-3727 -2418)">
			
				<image style="overflow:visible;opacity:0.2;" width="417" height="144" xlink:href="42A7A3FA57DF319D.png"  transform="matrix(1 0 0 1 4460 2582)">
			</image>
			<g>
				<g>
					<g transform="matrix(1, 0, 0, 1, 3878, 2570)">
						<path id="사각형_488-8_00000116944384006701398050000000471352697891700614_" class="st1" d="M615,20h337
							c13.8,0,25,11.2,25,25v64c0,13.8-11.2,25-25,25H615c-13.8,0-25-11.2-25-25V45C590,31.2,601.2,20,615,20z"/>
					</g>
					<g transform="matrix(1, 0, 0, 1, 3878, 2570)">
						<path id="사각형_489-8_00000118384313865589061390000000477869287758616485_" class="st1" d="M615,20h337
							c13.8,0,25,11.2,25,25v64c0,13.8-11.2,25-25,25H615c-13.8,0-25-11.2-25-25V45C590,31.2,601.2,20,615,20z"/>
					</g>
				</g>
			</g>
		</g>
		<g id="그룹_5468" transform="translate(-193 -147)">
			<text transform="matrix(1 0 0 1 974.995 385)" class="st2 st3 st4">과학기술정보통신부</text>
		</g>
	</g>
	<g id="그룹_5469-2" transform="translate(-3724 -2317)">
		<g transform="matrix(1, 0, 0, 1, 3878, 2367)">
			<g id="사각형_488-9">
				
					<image style="overflow:visible;opacity:0.2;enable-background:new    ;" width="417" height="144" xlink:href="429F38ED9DD0DD56.png"  transform="matrix(1 0 0 1 575 208)">
				</image>
				<g>
					<path class="st1" d="M615,223h337c13.8,0,25,11.2,25,25v64c0,13.8-11.2,25-25,25H615c-13.8,0-25-11.2-25-25v-64
						C590,234.2,601.2,223,615,223z"/>
				</g>
			</g>
		</g>
		<g transform="matrix(1, 0, 0, 1, 3878, 2367)">
			<g id="사각형_489-9">
				
					<image style="overflow:visible;opacity:0.2;enable-background:new    ;" width="417" height="144" xlink:href="429F38ED9DD0DD51.png"  transform="matrix(1 0 0 1 582 215)">
				</image>
				<g>
					<path class="st1" d="M615,223h337c13.8,0,25,11.2,25,25v64c0,13.8-11.2,25-25,25H615c-13.8,0-25-11.2-25-25v-64
						C590,234.2,601.2,223,615,223z"/>
				</g>
			</g>
		</g>
	</g>
	<g id="그룹_5479" transform="translate(-4293.246 -1781)">
		<g transform="matrix(1, 0, 0, 1, 4447.25, 1831)">
			<g id="사각형_488-10">
				<g>
					<path class="st1" d="M46,759h449c13.8,0,25,11.2,25,25v116c0,13.8-11.2,25-25,25H46c-13.8,0-25-11.2-25-25V784
						C21,770.2,32.2,759,46,759z"/>
				</g>
			</g>
		</g>
		<g transform="matrix(1, 0, 0, 1, 4447.25, 1831)">
			
				<image style="overflow:visible;opacity:0.2;" width="530" height="196" xlink:href="42A7A3FA57DF31A4.png"  transform="matrix(1 0 0 1 12.9961 751)">
			</image>
			<g>
				<g>
					<g id="사각형_489-10_00000098922053887822980850000000951390090960624563_">
						<g>
							<path class="st1" d="M46,759h449c13.8,0,25,11.2,25,25v116c0,13.8-11.2,25-25,25H46c-13.8,0-25-11.2-25-25V784
								C21,770.2,32.2,759,46,759z"/>
						</g>
					</g>
				</g>
			</g>
		</g>
	</g>
	<g id="그룹_5480" transform="translate(-3237.246 -1781)">
		<g transform="matrix(1, 0, 0, 1, 3391.25, 1831)">
			<path id="사각형_488-11" class="st1" d="M1102,759h449c13.8,0,25,11.2,25,25v64c0,13.8-11.2,25-25,25h-449
				c-13.8,0-25-11.2-25-25v-64C1077,770.2,1088.2,759,1102,759z"/>
		</g>
		<g transform="matrix(1, 0, 0, 1, 3391.25, 1831)">
			
				<image style="overflow:visible;opacity:0.2;" width="530" height="144" xlink:href="42A7A3FA57DF31A5.png"  transform="matrix(1 0 0 1 1068.9961 751)">
			</image>
			<g>
				<g>
					<path id="사각형_489-11_00000152956694822126951090000003938864472679742860_" class="st1" d="M1102,759h449
						c13.8,0,25,11.2,25,25v64c0,13.8-11.2,25-25,25h-449c-13.8,0-25-11.2-25-25v-64C1077,770.2,1088.2,759,1102,759z"/>
				</g>
			</g>
		</g>
	</g>
	<g id="그룹_5477" transform="translate(-3237 -2317)">
		<g transform="matrix(1, 0, 0, 1, 3391, 2367)">
			<path id="사각형_488-12" class="st1" d="M1102,223h396c13.8,0,25,11.2,25,25v117c0,13.8-11.2,25-25,25h-396
				c-13.8,0-25-11.2-25-25V248C1077,234.2,1088.2,223,1102,223z"/>
		</g>
		<g transform="matrix(1, 0, 0, 1, 3391, 2367)">
			
				<image style="overflow:visible;opacity:0.2;" width="476" height="197" xlink:href="42A7A3FA57DF31AB.png"  transform="matrix(1 0 0 1 1069 215)">
			</image>
			<g>
				<g>
					<path id="사각형_489-12_00000094580906560201640190000000970168318071030958_" class="st1" d="M1102,223h396
						c13.8,0,25,11.2,25,25v117c0,13.8-11.2,25-25,25h-396c-13.8,0-25-11.2-25-25V248C1077,234.2,1088.2,223,1102,223z"/>
				</g>
			</g>
		</g>
	</g>
	<g id="그룹_5478" transform="translate(-4267 -2317)">
		<g transform="matrix(1, 0, 0, 1, 4421, 2367)">
			<path id="사각형_488-13" class="st1" d="M72,223h396c13.8,0,25,11.2,25,25v117c0,13.8-11.2,25-25,25H72c-13.8,0-25-11.2-25-25
				V248C47,234.2,58.2,223,72,223z"/>
		</g>
		<g transform="matrix(1, 0, 0, 1, 4421, 2367)">
			
				<image style="overflow:visible;opacity:0.2;" width="476" height="197" xlink:href="42A7A3FA57DF31AC.png"  transform="matrix(1 0 0 1 39 215)">
			</image>
			<g>
				<g>
					<path id="사각형_489-13_00000015336365796235310290000006692154623443336341_" class="st1" d="M72,223h396
						c13.8,0,25,11.2,25,25v117c0,13.8-11.2,25-25,25H72c-13.8,0-25-11.2-25-25V248C47,234.2,58.2,223,72,223z"/>
				</g>
			</g>
		</g>
	</g>
	<text transform="matrix(1 0 0 1 765 341)" class="st5 st3 st4">한국데이터산업진흥원</text>
	<text transform="matrix(1 0 0 1 1310.9436 877)" class="st5 st3 st4">데이터</text>
	<text transform="matrix(1 0 0 1 1415.9436 877)" class="st5 st6 st4"> </text>
	<text transform="matrix(1 0 0 1 1425.6436 877)" class="st5 st3 st4">활용</text>
	<text transform="matrix(1 0 0 1 1495.6436 877)" class="st5 st6 st4"> </text>
	<text transform="matrix(1 0 0 1 1499.4136 877)" class="st7 st3 st4">수요</text>
	<text transform="matrix(1 0 0 1 1569.4136 877)" class="st7 st6 st4"> </text>
	<text transform="matrix(1 0 0 1 1579.1135 877)" class="st7 st3 st4">기업</text>
	<text transform="matrix(0.8935 0 0 1 1378.2324 341)" class="st8 st6 st4"> </text>
	<text transform="matrix(0.8935 0 0 1 1386.8994 341)" class="st8 st3 st4">전문기관</text>
	<text transform="matrix(0.8935 0 0 1 1513.7764 341)" class="st8 st6 st4">    </text>
	<text transform="matrix(0.8935 0 0 1 1258.835 385)" class="st8 st6 st4">(</text>
	<text transform="matrix(0.8935 0 0 1 1269.2891 385)" class="st8 st3 st4">수요선정</text>
	<text transform="matrix(0.8935 0 0 1 1394.3789 385)" class="st8 st6 st4"> </text>
	<text transform="matrix(0.8935 0 0 1 1403.0459 385)" class="st8 st3 st4">및</text>
	<text transform="matrix(0.8935 0 0 1 1434.3184 385)" class="st8 st6 st4"> </text>
	<text transform="matrix(0.8935 0 0 1 1442.9854 385)" class="st8 st3 st4">후속관리</text>
	<text transform="matrix(0.8935 0 0 1 1568.0752 385)" class="st8 st6 st4"> </text>
	<text transform="matrix(0.8935 0 0 1 1576.7422 385)" class="st8 st3 st4">협력</text>
	<text transform="matrix(0.8935 0 0 1 1639.2871 385)" class="st8 st6 st4">)</text>
	<text transform="matrix(1 0 0 1 268.337 345)" class="st9 st3 st4">데이터</text>
	<text transform="matrix(1 0 0 1 373.337 345)" class="st9 st6 st4"> </text>
	<text transform="matrix(1 0 0 1 383.037 345)" class="st9 st3 st4">판매</text>
	<text transform="matrix(1 0 0 1 453.037 345)" class="st9 st6 st4">·</text>
	<text transform="matrix(1 0 0 1 464.737 345)" class="st9 st3 st4">가공사업</text>
	<text transform="matrix(1 0 0 1 335.625 389)" class="st9 st3 st4">지정</text>
	<text transform="matrix(1 0 0 1 405.625 389)" class="st9 st6 st4"> </text>
	<text transform="matrix(1 0 0 1 415.325 389)" class="st9 st3 st4">및</text>
	<text transform="matrix(1 0 0 1 450.325 389)" class="st9 st6 st4"> </text>
	<text transform="matrix(1 0 0 1 460.025 389)" class="st9 st3 st4">관리</text>
	<g id="그룹_5476" transform="translate(3 -102)">
		<g id="그룹_5473" transform="translate(-3188 -2415)">
			
				<image style="overflow:visible;opacity:0.2;" width="417" height="144" xlink:href="42A7A3FA57DF31AF.png"  transform="matrix(1 0 0 1 4408 2579)">
			</image>
			<g>
				<g>
					<g id="그룹_5470_00000005969066165968516360000005400431127775018375_" transform="translate(-52 -3)">
						<g transform="matrix(1, 0, 0, 1, 3391, 2570)">
							<path id="사각형_488-14_00000111188357213495797990000006514444037087165356_" class="st1" d="M1102,20h337
								c13.8,0,25,11.2,25,25v64c0,13.8-11.2,25-25,25h-337c-13.8,0-25-11.2-25-25V45C1077,31.2,1088.2,20,1102,20z"/>
						</g>
						<g transform="matrix(1, 0, 0, 1, 3391, 2570)">
							<path id="사각형_489-14_00000178188987190076757930000014384682578734809781_" class="st1" d="M1102,20h337
								c13.8,0,25,11.2,25,25v64c0,13.8-11.2,25-25,25h-337c-13.8,0-25-11.2-25-25V45C1077,31.2,1088.2,20,1102,20z"/>
						</g>
					</g>
				</g>
			</g>
		</g>
		<g id="그룹_5474" transform="translate(309 -217)">
			<text transform="matrix(1 0 0 1 976 457)" class="st2 st3 st4">정부부처</text>
			<text transform="matrix(1 0 0 1 1116 457)" class="st2 st6 st4"> · </text>
			<text transform="matrix(1 0 0 1 1147.1 457)" class="st2 st3 st4">지자체</text>
			<g id="태극문양-logo-2" transform="translate(960 427)">
			</g>
		</g>
	</g>
	<text transform="matrix(1 0 0 1 911.4 612)" class="st2 st6 st4">3</text>
	<text transform="matrix(1 0 0 1 930.9 612)" class="st2 st3 st4">자</text>
	<text transform="matrix(1 0 0 1 869.925 662)" class="st2 st3 st4">협약</text>
	<text transform="matrix(1 0 0 1 939.925 662)" class="st2 st6 st4"> </text>
	<text transform="matrix(1 0 0 1 949.625 662)" class="st2 st3 st4">체결</text>
	<text transform="matrix(1 0 0 1 730.687 866)" class="st10 st3 st4">데이터</text>
	<text transform="matrix(1 0 0 1 835.687 866)" class="st10 st6 st4"> </text>
	<text transform="matrix(1 0 0 1 845.387 866)" class="st10 st3 st4">구매</text>
	<text transform="matrix(1 0 0 1 915.387 866)" class="st10 st6 st4"> ·</text>
	<text transform="matrix(1 0 0 1 936.787 866)" class="st10 st3 st4">가공</text>
	<text transform="matrix(1 0 0 1 1006.787 866)" class="st10 st6 st4"> </text>
	<text transform="matrix(1 0 0 1 1016.487 866)" class="st10 st3 st4">서비스</text>
	<text transform="matrix(1 0 0 1 1121.4871 866)" class="st10 st6 st4"> </text>
	<text transform="matrix(1 0 0 1 1131.287 866)" class="st10 st3 st4">협의</text>
	<text transform="matrix(1 0 0 1 1201.287 866)" class="st10 st6 st4">  </text>
	<text transform="matrix(1 0 0 1 739.437 981)" class="st10 st3 st4">데이터</text>
	<text transform="matrix(1 0 0 1 844.437 981)" class="st10 st6 st4"> </text>
	<text transform="matrix(1 0 0 1 854.137 981)" class="st10 st3 st4">판매</text>
	<text transform="matrix(1 0 0 1 924.137 981)" class="st10 st6 st4">·</text>
	<text transform="matrix(1 0 0 1 935.837 981)" class="st10 st3 st4">가공</text>
	<text transform="matrix(1 0 0 1 1005.837 981)" class="st10 st6 st4"> </text>
	<text transform="matrix(1 0 0 1 1015.537 981)" class="st10 st3 st4">서비스</text>
	<text transform="matrix(1 0 0 1 1120.537 981)" class="st10 st6 st4"> </text>
	<text transform="matrix(1 0 0 1 1130.2371 981)" class="st10 st3 st4">제공</text>
	<line id="선_28" class="st11" x1="1138.5" y1="129.5" x2="1227.5" y2="129.5"/>
	<line id="선_29" class="st11" x1="1138.5" y1="330.5" x2="1227.5" y2="330.5"/>
	<path id="패스_6286" class="st12" d="M656.5,332.5h77"/>
	<path id="패스_6285" class="st13" d="M424.5,458v335.5"/>
	<line id="선_30" class="st11" x1="1445" y1="201.5" x2="1445" y2="252.5"/>
	<line id="선_33" class="st11" x1="937.5" y1="202.5" x2="937.5" y2="253.5"/>
	<path id="다각형_4" class="st10" d="M1255.9,745.6l-13.8-8.4l14-7.8L1255.9,745.6z"/>
	<g id="그룹_5497">
		<line id="선_32" class="st14" x1="811.9" y1="434.2" x2="630.9" y2="753.2"/>
		<g id="그룹_5482" transform="translate(612.888 416.784)">
			<line id="선_31" class="st14" x1="181" y1="8" x2="0" y2="327"/>
			<path id="다각형_3" class="st10" d="M182.4,3.9l0.2,16.1l-14-7.8L182.4,3.9z"/>
		</g>
	</g>
	<path id="다각형_4-2" class="st10" d="M627.5,759.9l-0.2-16.1l14,7.8L627.5,759.9z"/>
	<g id="그룹_5494">
		<line id="선_32-2" class="st14" x1="1071.5" y1="420" x2="1252.5" y2="739"/>
		<g id="그룹_5482-2" transform="translate(3 -102)">
			<line id="선_31-2" class="st14" x1="1086.5" y1="512.5" x2="1267.5" y2="831.5"/>
			<path id="다각형_3-2" class="st10" d="M1085.1,508.4l13.8,8.4l-14,7.8L1085.1,508.4z"/>
		</g>
	</g>
	<text transform="matrix(0.5 0.866 -0.866 0.5 1052.0382 473.2333)" class="st10 st3 st4">수요기업</text>
	<text transform="matrix(0.5 0.866 -0.866 0.5 1122.0382 594.4733)" class="st10 st6 st4"> </text>
	<text transform="matrix(0.5 0.866 -0.866 0.5 1126.8878 602.8734)" class="st10 st3 st4">선정</text>
	<text transform="matrix(0.5 0.866 -0.866 0.5 1161.8878 663.4935)" class="st10 st6 st4">·</text>
	<text transform="matrix(0.5 0.866 -0.866 0.5 1167.7384 673.6256)" class="st10 st3 st4">지원</text>
	<text transform="matrix(0.5 0.866 -0.866 0.5 1128.7833 435.4423)" class="st10 st3 st4">데이터구매</text>
	<text transform="matrix(0.5 0.866 -0.866 0.5 1216.2833 586.9923)" class="st10 st6 st4">·</text>
	<text transform="matrix(0.5 0.866 -0.866 0.5 1222.1329 597.1244)" class="st10 st3 st4">가공</text>
	<text transform="matrix(0.5 0.866 -0.866 0.5 1257.1329 657.7445)" class="st10 st6 st4"> </text>
	<text transform="matrix(0.5 0.866 -0.866 0.5 1261.9835 666.1447)" class="st10 st3 st4">신청</text>
	<text transform="matrix(0.5 -0.866 0.866 0.5 597.0187 723.4513)" class="st10 st3 st4">데이터구매</text>
	<text transform="matrix(0.5 -0.866 0.866 0.5 684.5187 571.9015)" class="st10 st6 st4">·</text>
	<text transform="matrix(0.5 -0.866 0.866 0.5 690.3688 561.7687)" class="st10 st3 st4">가공</text>
	<text transform="matrix(0.5 -0.866 0.866 0.5 725.3688 501.1495)" class="st10 st6 st4"> </text>
	<text transform="matrix(0.5 -0.866 0.866 0.5 730.2186 492.7491)" class="st10 st3 st4">신청</text>
	<text transform="matrix(0.5 -0.866 0.866 0.5 695.9613 721.504)" class="st10 st3 st4">데이터비용</text>
	<text transform="matrix(0.5 -0.866 0.866 0.5 783.4613 569.9542)" class="st10 st6 st4"> </text>
	<text transform="matrix(0.5 -0.866 0.866 0.5 788.3114 561.5538)" class="st10 st3 st4">지급</text>
	<g id="그룹_5493">
		<line id="선_32-3" class="st14" x1="1178.5" y1="887.4" x2="711.9" y2="887.4"/>
		<path id="다각형_4-3" class="st10" d="M704.5,887.7l13.9-8.2l0.3,16L704.5,887.7z"/>
	</g>
	<g id="그룹_5498" transform="translate(1882.833 1810.992) rotate(180)">
		<line id="선_32-4" class="st14" x1="1178.5" y1="887.4" x2="711.9" y2="887.4"/>
		<path id="다각형_4-4" class="st10" d="M704.5,887.7l13.9-8.2l0.3,16L704.5,887.7z"/>
	</g>
	<text transform="matrix(1 0 0 1 1108.91 230)" class="st10 st3 st4">부처</text>
	<text transform="matrix(1 0 0 1 1178.91 230)" class="st10 st6 st4">·</text>
	<text transform="matrix(1 0 0 1 1190.61 230)" class="st10 st3 st4">지역</text>
	<text transform="matrix(1 0 0 1 1148.722 270)" class="st10 st3 st4">협력</text>
	<g id="그룹_5492" transform="translate(141.671 839.6)" class="st15">
		<g id="그룹_5491" transform="translate(158.648 63.374)">
			<g id="그룹_5489" transform="translate(49.923)">
				<path id="패스_6273" class="st16" d="M5.2,36.1H0v-36h13.7c1.7,0,3.5,0.2,5.1,0.7c1.4,0.4,2.7,1.1,3.8,2
					c1,0.8,1.8,1.9,2.3,3.1s0.8,2.6,0.8,3.9v1.3c0,1.9-0.5,3.8-1.7,5.4s-2.8,2.8-4.7,3.5l7.5,16h-5.6l-6.8-15H5.2V36.1z M5.2,16.9
					h7.2c2.9,0,5-0.5,6.3-1.6c1.2-1,1.9-2.6,1.9-4.2v-1C20.7,8.5,20,7,18.8,5.9c-1.2-1-3.1-1.5-5.8-1.5H5.2V16.9z"/>
				<path id="패스_6274" class="st16" d="M54.5,33c-1.3,0.9-2.8,1.6-4.3,2.1c-2,0.6-4.1,0.9-6.2,0.9c-1.6,0-3.2-0.2-4.7-0.7
					c-1.4-0.5-2.7-1.2-3.8-2.2c-1.1-1.1-2-2.4-2.5-3.9c-0.7-1.7-1-3.5-0.9-5.3v-3.1c0-1.8,0.3-3.7,0.9-5.4c0.5-1.5,1.4-2.8,2.4-3.9
					c1.1-1.1,2.3-1.9,3.7-2.4c1.5-0.5,3.1-0.8,4.7-0.8c3.1-0.2,6.1,1,8.3,3.2c2.1,2.1,3.1,5.1,3.1,9v3.6H36.8v0.2
					c-0.2,2,0.6,4,2,5.5c1.4,1.4,3.4,2.1,5.3,2c1.6,0,3.1-0.2,4.6-0.6c1.3-0.4,2.5-1,3.7-1.8L54.5,33z M43.7,12.4
					c-0.9,0-1.9,0.2-2.8,0.5c-0.8,0.3-1.6,0.8-2.2,1.4c-0.6,0.6-1.1,1.4-1.4,2.2c-0.4,0.9-0.5,1.9-0.5,2.9v0.7h13.7v-0.9
					c0.1-1.8-0.6-3.6-1.8-5C47.3,13,45.5,12.3,43.7,12.4z"/>
				<path id="패스_6275" class="st16" d="M69,36c-2.4,0.1-4.7-0.6-6.6-2c-1.6-1.4-2.5-3.5-2.4-5.6V27c-0.1-2.1,0.8-4.2,2.3-5.7
					c1.6-1.5,4.1-2.2,7.6-2.2h6.9v-1.6c0.1-1.4-0.4-2.7-1.3-3.6c-1.2-1-2.8-1.5-4.3-1.3c-1.4,0-2.8,0.2-4.2,0.7
					c-1.3,0.6-2.5,1.2-3.7,2L61,11.7c1.4-1,2.9-1.8,4.5-2.4c1.8-0.7,3.8-1.1,5.8-1c1.4,0,2.8,0.2,4.2,0.6c1.2,0.3,2.3,0.9,3.3,1.7
					c0.9,0.7,1.6,1.7,2.1,2.7c0.5,1.1,0.8,2.4,0.8,3.7v19.1H77v-3.7l0,0c-0.3,0.5-0.6,1-1.1,1.4c-0.4,0.4-0.9,0.8-1.5,1.1
					c-0.7,0.4-1.5,0.7-2.4,0.9C71,35.9,70,36.1,69,36z M76.9,23.2H70c-1.4-0.1-2.9,0.3-4.1,1.1c-0.8,0.8-1.3,1.9-1.2,3V28
					c-0.1,1.1,0.4,2.3,1.4,2.9s2.2,0.9,3.3,0.9c1.1,0,2.1-0.1,3.1-0.4c0.9-0.3,1.7-0.7,2.4-1.3c0.6-0.4,1.1-1,1.4-1.7
					c0.3-0.8,0.5-1.7,0.4-2.5L76.9,23.2z"/>
				<path id="패스_6276" class="st16" d="M93.8,0v36.1H89V0H93.8z"/>
				<path id="패스_6277" class="st16" d="M118.7,32.2c-0.7,1.3-1.9,2.4-3.3,2.9c-1.5,0.6-3.1,0.9-4.7,0.8c-3.5,0-6.1-1-7.9-3
					s-2.7-4.9-2.7-8.6V20c0-1.7,0.2-3.4,0.8-4.9c0.5-1.4,1.2-2.6,2.2-3.7c1-1,2.1-1.8,3.4-2.3c1.4-0.5,2.9-0.8,4.4-0.8
					c1.7-0.1,3.4,0.3,5,1.1c1,0.6,1.9,1.3,2.7,2.3V0h4.8v36.1h-4.6L118.7,32.2L118.7,32.2z M118.7,18.3c0-0.7-0.2-1.4-0.5-2.1
					c-0.4-0.7-0.9-1.4-1.5-1.9c-0.7-0.6-1.5-1-2.3-1.3c-0.9-0.3-1.9-0.5-2.9-0.5c-1.9-0.1-3.6,0.7-4.8,2.1c-1.2,1.8-1.9,3.9-1.7,6
					v2.9c-0.1,2.2,0.5,4.3,1.7,6c1.2,1.4,2.9,2.2,4.8,2.1c1,0,1.9-0.2,2.8-0.5c1.7-0.6,3.1-1.9,3.8-3.5c0.4-0.9,0.6-1.9,0.6-2.9
					V18.3z"/>
				<path id="패스_6278" class="st16" d="M138.8,36c-2.4,0.1-4.7-0.6-6.6-2c-1.6-1.4-2.5-3.5-2.4-5.6V27c-0.1-2.1,0.8-4.2,2.3-5.7
					c1.6-1.5,4.1-2.2,7.6-2.2h6.9v-1.6c0.1-1.4-0.4-2.7-1.3-3.6c-1.2-1-2.8-1.5-4.3-1.3c-1.4,0-2.8,0.2-4.2,0.7
					c-1.3,0.6-2.5,1.2-3.7,2l-2.4-3.6c1.4-1,2.9-1.8,4.5-2.4c1.8-0.7,3.8-1.1,5.8-1c1.4,0,2.8,0.2,4.2,0.6c1.2,0.3,2.3,0.9,3.3,1.7
					c0.9,0.7,1.6,1.7,2.1,2.7c0.5,1.1,0.8,2.4,0.8,3.7v19.1h-4.6v-3.7h-0.1c-0.3,0.5-0.6,1-1.1,1.4c-0.4,0.4-0.9,0.8-1.5,1.1
					c-0.7,0.4-1.5,0.7-2.4,0.9C140.9,35.9,139.9,36.1,138.8,36z M146.7,23.2h-6.8c-1.4-0.1-2.9,0.3-4.1,1.1c-0.8,0.8-1.3,1.9-1.2,3
					V28c-0.1,1.1,0.4,2.3,1.4,2.9s2.2,0.9,3.3,0.9s2.1-0.1,3.1-0.4c0.9-0.3,1.7-0.7,2.4-1.3c0.6-0.4,1.1-1,1.4-1.7
					c0.3-0.8,0.5-1.7,0.4-2.5L146.7,23.2z"/>
				<path id="패스_6279" class="st16" d="M160.5,12.9H156V8.8h4.5V1.9h4.8v6.9h7.2v4.1h-7.2V28c0,0.7,0.1,1.4,0.3,2
					c0.1,0.5,0.4,0.9,0.7,1.2c0.3,0.3,0.7,0.5,1.1,0.5c0.5,0.1,0.9,0.2,1.4,0.2c1.2,0,2.4-0.2,3.6-0.6l0.7,3.9
					c-0.7,0.3-1.5,0.5-2.2,0.6c-0.9,0.2-1.9,0.3-2.8,0.3c-2.6,0-4.5-0.6-5.7-1.9c-1.2-1.3-1.8-3.3-1.8-6.1V12.9H160.5z"/>
				<path id="패스_6280" class="st16" d="M185.8,36c-2.4,0.1-4.7-0.6-6.6-2c-1.6-1.4-2.5-3.5-2.4-5.6V27c-0.1-2.1,0.8-4.2,2.3-5.7
					c1.6-1.5,4.1-2.2,7.6-2.2h6.9v-1.2c0.1-1.5-0.4-2.9-1.3-4.1c-1.2-1-2.8-1.5-4.3-1.3c-1.4,0-2.8,0.2-4.2,0.7
					c-1.3,0.6-2.5,1.2-3.7,2l-2.4-3.6c1.4-1,2.9-1.8,4.5-2.4c1.8-0.7,3.8-1.1,5.8-1c1.4,0,2.8,0.2,4.2,0.6c1.2,0.3,2.3,0.9,3.3,1.7
					c0.9,0.7,1.6,1.7,2.1,2.7c0.5,1.1,0.8,2.4,0.8,3.7V36h-4.6v-3.7h-0.1c-0.3,0.5-0.6,1-1.1,1.4c-0.4,0.4-0.9,0.8-1.5,1.1
					c-0.7,0.4-1.5,0.7-2.4,0.9C187.8,35.9,186.8,36.1,185.8,36z M193.7,23.2h-6.8c-1.4-0.1-2.9,0.3-4.1,1.1c-0.8,0.8-1.3,1.9-1.2,3
					V28c-0.1,1.1,0.4,2.3,1.4,2.9s2.2,0.9,3.3,0.9s2.1-0.1,3.1-0.4c0.9-0.3,1.7-0.7,2.4-1.3c0.6-0.4,1.1-1,1.4-1.7
					c0.3-0.8,0.5-1.7,0.4-2.5L193.7,23.2z"/>
			</g>
			<path id="패스_6281" class="st17" d="M4.4,0C2,0,0,2,0,4.4v12.4h16.8V0H4.4z"/>
			<path id="패스_6282" class="st18" d="M0,19.3v12.4C0,34.1,2,36,4.4,36h12.4V19.3H0z"/>
			<path id="패스_6283" class="st19" d="M23.9,0h-4.6v16.8h4.6c4.6,0,8.4-3.8,8.4-8.4S28.5,0,23.9,0z"/>
			<g id="그룹_5490" transform="translate(19.28 19.327)">
				<path id="패스_6284" class="st20" d="M0,0v16.7h16.7C16.1,7.8,9,0.6,0,0z"/>
			</g>
		</g>
	</g>
	<text transform="matrix(1 0 0 1 231.6754 877)" class="st5 st3 st4">데이터</text>
	<text transform="matrix(1 0 0 1 336.6754 877)" class="st5 st6 st4"> (</text>
	<text transform="matrix(1 0 0 1 358.0754 877)" class="st5 st3 st4">가공</text>
	<text transform="matrix(1 0 0 1 428.0754 877)" class="st5 st6 st4">) </text>
	<text transform="matrix(1 0 0 1 450.4367 877)" class="st7 st3 st4">공급기업</text>
</g>
</svg>
