<?xml version="1.0" encoding="utf-8"?>
<!-- Generator: Adobe Illustrator 25.2.3, SVG Export Plug-In . SVG Version: 6.00 Build 0)  -->
<svg version="1.1" id="레이어_1" xmlns="http://www.w3.org/2000/svg" xmlns:xlink="http://www.w3.org/1999/xlink" x="0px"
	 y="0px" viewBox="0 0 124.6 93.1" style="enable-background:new 0 0 124.6 93.1;" xml:space="preserve">
<style type="text/css">
	.st0{fill:url(#패스_6407_1_);}
</style>
<linearGradient id="패스_6407_1_" gradientUnits="userSpaceOnUse" x1="49.8781" y1="-1.5733" x2="78.0213" y2="107.7721">
	<stop  offset="0" style="stop-color:#3CC9CD"/>
	<stop  offset="0.945" style="stop-color:#2F87A5"/>
</linearGradient>
<path id="패스_6407" class="st0" d="M62.5,0c16.7,0,33.3,0,50,0c8.3,0,12,3.5,12,11.8c0.1,23.3,0.1,46.7,0,70
	c0,7.3-3.8,11.2-11,11.3c-34.2,0.1-68.3,0.1-102.5,0c-7.3,0-11-3.9-11-11.3C0,58.3,0,34.8,0,11.3C0.1,3.7,3.8,0.1,11.5,0
	C28.5,0,45.5,0,62.5,0z M61.9,57.7c6.9,0,13.4-2.7,18.2-7.7c9.2-9.2,18.3-18.4,27.5-27.5c3.1-3.1,6.4-5.9,9-9.3c1-1.4,0.3-4,0.3-6.1
	c-1.9,0.1-4-0.1-5.8,0.4c-1.1,0.3-1.9,1.8-2.9,2.7C97.4,21.1,86.5,32.1,75.5,43c-8.6,8.6-17.9,8.6-26.6-0.1
	c-11.6-11.5-23.1-23-34.6-34.6c-2-2.1-4.2-3.7-6.8-1.1C4.9,9.8,6.3,12,8.4,14.1c12.3,12.2,24.5,24.5,36.8,36.7
	C49.6,55.2,55.6,57.7,61.9,57.7z"/>
</svg>
