<?xml version="1.0" encoding="utf-8"?>
<!-- Generator: Adobe Illustrator 25.2.3, SVG Export Plug-In . SVG Version: 6.00 Build 0)  -->
<svg version="1.1" id="레이어_1" xmlns="http://www.w3.org/2000/svg" xmlns:xlink="http://www.w3.org/1999/xlink" x="0px"
	 y="0px" viewBox="0 0 1129 845.3" style="enable-background:new 0 0 1129 845.3;" xml:space="preserve">
<style type="text/css">
	.st0{fill:#42E8E0;}
	.st1{fill:url(#패스_7839_1_);}
	.st2{fill:url(#패스_7840_1_);}
	.st3{opacity:0.3;fill:#24126A;enable-background:new    ;}
	.st4{fill:#FFFFFF;}
	.st5{opacity:0.5;fill:url(#패스_7847_1_);enable-background:new    ;}
	.st6{opacity:0.5;fill:url(#패스_7848_1_);enable-background:new    ;}
	.st7{fill:url(#패스_7850_1_);}
	.st8{fill:url(#패스_7851_1_);}
	.st9{fill:#24126A;}
	.st10{opacity:0.51;}
	.st11{fill:#453C9E;}
	.st12{fill:url(#패스_7854_1_);}
	.st13{fill:url(#패스_7855_1_);}
	.st14{opacity:0.15;}
	.st15{clip-path:url(#SVGID_2_);}
	.st16{fill:url(#패스_7857_1_);}
	.st17{fill:url(#패스_7858_1_);}
	.st18{opacity:0.5;}
	.st19{opacity:0.8;}
	.st20{opacity:0.4;fill:#42E8E0;enable-background:new    ;}
	.st21{fill:url(#패스_8017_1_);}
	.st22{opacity:0.3;fill:#0F054C;enable-background:new    ;}
	.st23{fill:url(#패스_8019_1_);}
	.st24{fill:url(#패스_8021_1_);}
	.st25{fill:url(#패스_8024_1_);}
	.st26{opacity:0.5;fill:url(#패스_8026_1_);enable-background:new    ;}
	.st27{fill:url(#패스_8029_1_);}
	.st28{fill:url(#패스_8031_1_);}
	.st29{fill:#0F054C;}
	.st30{fill:#03002D;}
	.st31{fill:#5351AF;}
	.st32{fill:url(#패스_8039_1_);}
	.st33{opacity:0.5;fill:url(#패스_8041_1_);enable-background:new    ;}
	.st34{fill:url(#패스_8042_1_);}
	.st35{fill:url(#패스_8045_1_);}
	.st36{opacity:0.5;fill:url(#패스_8046_1_);enable-background:new    ;}
	.st37{opacity:0.8;fill:#42E8E0;enable-background:new    ;}
	.st38{clip-path:url(#SVGID_4_);}
	.st39{clip-path:url(#SVGID_6_);}
	.st40{clip-path:url(#SVGID_8_);}
	.st41{clip-path:url(#SVGID_10_);}
	.st42{clip-path:url(#SVGID_12_);}
	.st43{clip-path:url(#SVGID_14_);}
	.st44{clip-path:url(#SVGID_16_);}
	.st45{clip-path:url(#SVGID_18_);}
	.st46{opacity:0.5;fill:url(#패스_8148_1_);enable-background:new    ;}
</style>
<g id="그룹_1515" transform="translate(235.339 323.785)">
	<path id="패스_7837" class="st0" d="M582.3,370.5l-0.5-0.8l249.6-144c2.9-1.7,4.5-3.8,4.5-6.1s-1.6-4.5-4.5-6.1L787.6,188
		l0.5-0.8l43.9,25.4c3.2,1.8,4.9,4.3,4.9,6.9s-1.7,5.1-4.9,6.9L582.3,370.5z"/>
	<path id="패스_7838" class="st0" d="M256.8,405.9c-2.2,0-4.4-0.5-6.3-1.6L-40.2,236.5c-1.8-1.1-2.9-2.5-2.9-3.9
		c0.1-1.3,0.9-2.5,2.1-3.1l173.5-100.2c2.9-1.7,7.9-1.5,11.2,0.4l290.7,167.8c1.8,1.1,2.9,2.5,2.9,3.9c-0.1,1.3-0.9,2.5-2.1,3.1
		L261.8,404.8C260.2,405.6,258.5,405.9,256.8,405.9z M-39.7,235.6L251,403.5c3,1.8,7.6,2,10.3,0.4l173.5-100.2
		c0.9-0.4,1.5-1.3,1.6-2.3c0-1.1-0.9-2.2-2.4-3.1L143.3,130.6c-3-1.8-7.6-2-10.3-0.4L-40.5,230.3c-0.9,0.4-1.5,1.3-1.6,2.3
		C-42.1,233.6-41.2,234.8-39.7,235.6L-39.7,235.6z"/>
	<g id="그룹_1449" transform="translate(-50.798 91.296)">
		
			<linearGradient id="패스_7839_1_" gradientUnits="userSpaceOnUse" x1="-327.7891" y1="387.8207" x2="-328.7891" y2="387.8207" gradientTransform="matrix(479.41 0 0 -281.2859 157623.8906 109246.4141)">
			<stop  offset="0" style="stop-color:#5761D7"/>
			<stop  offset="0.178" style="stop-color:#5B65D8"/>
			<stop  offset="0.388" style="stop-color:#6A72DE"/>
			<stop  offset="0.613" style="stop-color:#8188E8"/>
			<stop  offset="0.849" style="stop-color:#A2A6F5"/>
			<stop  offset="1" style="stop-color:#BCBEFF"/>
		</linearGradient>
		<path id="패스_7839" class="st1" d="M487.6,181.2l-16-2.3L194.3,18.8c-3.2-1.8-8-2-10.8-0.4L18.4,113.7l-10.2-1.5v13.5h0
			c0,1.2,0.9,2.5,2.6,3.5L301.6,297c3.2,1.8,8,2,10.8,0.4l173.5-100.1c1.1-0.5,1.8-1.6,1.8-2.7l0,0L487.6,181.2z"/>
		
			<linearGradient id="패스_7840_1_" gradientUnits="userSpaceOnUse" x1="-328.1251" y1="387.8272" x2="-327.1251" y2="387.8272" gradientTransform="matrix(479.4066 0 0 -276.7856 157622.7812 107491.7188)">
			<stop  offset="0" style="stop-color:#C0BFF6"/>
			<stop  offset="0.294" style="stop-color:#C4C3F6"/>
			<stop  offset="0.64" style="stop-color:#D2D2F9"/>
			<stop  offset="1" style="stop-color:#E9E9FD"/>
		</linearGradient>
		<path id="패스_7840" class="st2" d="M10.9,115.8l290.7,167.8c3.2,1.8,8,2,10.8,0.4l173.5-100.2c2.8-1.6,2.4-4.4-0.8-6.2
			L194.3,9.9c-3.2-1.8-8-2-10.8-0.4L10.1,109.6C7.3,111.2,7.7,113.9,10.9,115.8z"/>
		<path id="패스_7841" class="st3" d="M36,119.1l259.8,150c2.8,1.6,7.1,1.8,9.6,0.4L460.5,180c2.5-1.4,2.2-3.9-0.7-5.5L200,24.4
			c-2.8-1.6-7.1-1.8-9.6-0.4l-155,89.5C32.9,114.9,33.2,117.4,36,119.1z"/>
		<path id="패스_7842" class="st4" d="M485.8,182.4L312.3,282.6c-2.8,1.6-7.6,1.4-10.8-0.4L10.8,114.3c-1.2-0.6-2.1-1.6-2.5-2.8
			c-0.4,1.4,0.4,3,2.5,4.2l290.7,167.8c3.2,1.8,8,2,10.8,0.4l173.5-100.2c1.5-0.9,2.1-2.2,1.7-3.4
			C487.2,181.3,486.6,182,485.8,182.4z"/>
	</g>
	<path id="패스_7843" class="st0" d="M246.6,123.1l-0.5-0.8l92.5-53.4L96.1-71.2c-6.9-4-15.3-4-22.2,0L-4.9-25.6l-0.5-0.8L73.5-72
		c7.2-4.1,16-4.1,23.1,0l244,140.9l-0.7,0.4L246.6,123.1z"/>
	<g id="그룹_1451" transform="translate(222.154 -323.785)">
		<g id="그룹_1450">
			<path id="패스_7844" class="st0" d="M547.6,522.2l-46.9-26.3c-10.5-5.9-19.8-18.8-23-32.2l-40.7-168c-2.4-9.9-7.6-18.9-15-25.9
				l-5.7,17.4c-1.4,4.3-4.1,7.3-7.7,8.7c-4.4,1.7-9.9,0.8-15.5-2.4l-6.6-3.8l-5.9,18c-1.4,4.3-4.1,7.3-7.7,8.7
				c-4.4,1.7-9.9,0.8-15.5-2.4l-8.5-4.9c-9.8-5.7-18.7-17.9-22.2-30.5c-2.8-10.3-8.6-19.5-16.7-26.4l-3.9,8.3
				c-1.4,3.3-4.2,5.8-7.6,6.9c-4.2,1.3-9.5,0.4-14.8-2.7l-4.4-2.6l-8.9,18.8c-1.4,3.3-4.2,5.8-7.6,6.9c-4.2,1.3-9.5,0.4-14.8-2.7
				l-9.7-5.6c-10.6-6.1-19.8-19.3-22.8-32.8L175.2,65.2c-2.4-10.5-7.9-20-15.8-27.3L100.8,198c-1.5,4.1-4.1,6.9-7.6,8.2
				c-4.3,1.6-9.7,0.7-15.3-2.5l-6-3.5l-6.7,18.3c-1.5,4.1-4.1,6.9-7.6,8.2c-4.3,1.6-9.7,0.7-15.3-2.5L8.2,204.5l36.5-21l0.2,0.1
				l26.4,15.2l58.9-161c2.3-6.2,6.9-9.4,12.9-9c4.9,0.3,10.5,3,15.7,7.5l7-19c2.3-6.2,6.9-9.4,12.9-9c11.9,0.8,28.3,15.8,32.8,36.2
				L252.3,226c2.9,13,12.1,26.3,22.4,32.2l4.4,2.5l4.1-8.7c2.5-5.3,7-8,12.7-7.5c4.3,0.4,9.2,2.5,13.9,6.2l9.1-19.2
				c2.5-5.3,7-8,12.7-7.5c11.1,0.9,26.4,14.1,31.8,33.8c3.4,12.3,12.2,24.4,21.8,29.9l0.9,0.5l6-18.6c2.1-6.5,6.6-9.9,12.7-9.7
				c5.2,0.2,11.3,3.1,16.8,7.9l6.1-18.8c2.1-6.5,6.6-9.9,12.7-9.7c11.9,0.5,28.1,14.8,33.1,35.4l40.7,168
				c3.2,13.2,12.3,25.9,22.6,31.7l47,26.3l-0.4,0.8l-46.9-26.3c-10.5-5.9-19.8-18.8-23-32.2l-40.7-168
				c-4.8-19.9-20.8-34.3-32.2-34.7c-0.2,0-0.4,0-0.6,0c-5.4,0-9.3,3.1-11.2,9l-6.2,19.2c7.7,7.2,13.1,16.5,15.5,26.8l40.7,168
				c3.2,13.2,12.2,25.9,22.5,31.7l47,26.3L547.6,522.2z M310.5,251.3c8.3,7,14.4,16.4,17.2,27c3.4,12.3,12.2,24.4,21.8,29.9l8.5,4.9
				c5.4,3.1,10.6,3.9,14.7,2.4c3.3-1.3,5.8-4.1,7.1-8.2l5.9-18.2l-1-0.6c-9.8-5.7-18.7-17.9-22.2-30.5c-5.4-19.3-20.3-32.2-31-33.1
				c-5.4-0.4-9.4,2-11.8,7L310.5,251.3z M386.9,288.7l6.8,3.9c5.4,3.1,10.6,4,14.7,2.4c3.3-1.3,5.8-4.1,7.1-8.2l5.8-17.8
				c-5.5-5-11.5-7.9-16.5-8.1c-5.7-0.2-9.8,2.9-11.8,9L386.9,288.7z M159.7,37c8.2,7.4,13.9,17.2,16.3,28l40.6,181.5
				c2.9,13,12.1,26.3,22.4,32.2l9.7,5.6c5.1,2.9,10,3.9,14,2.6c3.1-1,5.7-3.4,7-6.4l8.9-18.9l-4.5-2.6
				c-10.6-6.1-19.8-19.3-22.8-32.8L210.8,44.7c-4.5-19.9-20.4-34.7-32-35.4c-5.7-0.4-9.9,2.5-12,8.4L159.7,37z M279.9,261.2l4.5,2.6
				c5.1,2.9,10,3.9,14,2.6c3.1-1,5.7-3.4,7-6.4l4-8.5c-4.6-3.6-9.4-5.8-13.6-6.1c-5.3-0.5-9.4,2-11.8,7L279.9,261.2z M10.1,204.5
				l32.7,18.9c5.3,3,10.4,3.9,14.5,2.4c3.4-1.3,6-4.1,7.1-7.6l6.8-18.5l-26.3-15.2L10.1,204.5z M72.2,199.3l6.2,3.6
				c5.3,3,10.4,3.9,14.5,2.4c3.4-1.3,6-4.1,7.1-7.6l58.7-160.4c-5.2-4.5-10.7-7.2-15.5-7.5c-5.7-0.3-9.8,2.5-12,8.4L72.2,199.3z"/>
			<path id="패스_7845" class="st0" d="M136.4,31.3l-0.5-0.8l35.9-20.6l0.5,0.8L136.4,31.3z"/>
			
				<rect id="사각형_824" x="284.9" y="236.1" transform="matrix(0.866 -0.5 0.5 0.866 -77.3058 184.6634)" class="st0" width="42" height="0.9"/>
			
				<rect id="사각형_825" x="394.4" y="251.3" transform="matrix(0.8671 -0.4981 0.4981 0.8671 -70.0859 240.7723)" class="st0" width="43.7" height="0.9"/>
			<path id="패스_7846" class="st0" d="M547.6,522.2l-46.9-26.3c-10.5-5.9-19.8-18.8-23-32.2l-40.7-168c-2.4-9.9-7.6-18.9-15-25.9
				l-5.7,17.4c-1.4,4.3-4.1,7.3-7.7,8.7c-4.4,1.7-9.9,0.8-15.5-2.4l-6.6-3.8l-5.9,18c-1.4,4.3-4.1,7.3-7.7,8.7
				c-4.4,1.7-9.9,0.8-15.5-2.4l-8.5-4.9c-9.8-5.7-18.7-17.9-22.2-30.5c-2.8-10.3-8.6-19.5-16.7-26.4l-3.9,8.3
				c-1.4,3.3-4.2,5.8-7.6,6.9c-4.2,1.3-9.5,0.4-14.8-2.7l-4.4-2.6l-8.9,18.8c-1.4,3.3-4.2,5.8-7.6,6.9c-4.2,1.3-9.5,0.4-14.8-2.7
				l-9.7-5.6c-10.6-6.1-19.8-19.3-22.8-32.8L175.2,65.2c-2.4-10.5-7.9-20-15.8-27.3L100.8,198c-1.5,4.1-4.1,6.9-7.6,8.2
				c-4.3,1.6-9.7,0.7-15.3-2.5l-6-3.5l-6.7,18.3c-1.5,4.1-4.1,6.9-7.6,8.2c-4.3,1.6-9.7,0.7-15.3-2.5L8.2,204.5l36.5-21l0.2,0.1
				l26.4,15.2l58.9-161c2.3-6.2,6.9-9.4,12.9-9c4.9,0.3,10.5,3,15.7,7.5l7-19c2.3-6.2,6.9-9.4,12.9-9c11.9,0.8,28.3,15.8,32.8,36.2
				L252.3,226c2.9,13,12.1,26.3,22.4,32.2l4.4,2.5l4.1-8.7c2.5-5.3,7-8,12.7-7.5c4.3,0.4,9.2,2.5,13.9,6.2l9.1-19.2
				c2.5-5.3,7-8,12.7-7.5c11.1,0.9,26.4,14.1,31.8,33.8c3.4,12.3,12.2,24.4,21.8,29.9l0.9,0.5l6-18.6c2.1-6.5,6.6-9.9,12.7-9.7
				c5.2,0.2,11.3,3.1,16.8,7.9l6.1-18.8c2.1-6.5,6.6-9.9,12.7-9.7c11.9,0.5,28.1,14.8,33.1,35.4l40.7,168
				c3.2,13.2,12.3,25.9,22.6,31.7l47,26.3l-0.4,0.8l-46.9-26.3c-10.5-5.9-19.8-18.8-23-32.2l-40.7-168
				c-4.8-19.9-20.8-34.3-32.2-34.7c-0.2,0-0.4,0-0.6,0c-5.4,0-9.3,3.1-11.2,9l-6.2,19.2c7.7,7.2,13.1,16.5,15.5,26.8l40.7,168
				c3.2,13.2,12.2,25.9,22.5,31.7l47,26.3L547.6,522.2z M310.5,251.3c8.3,7,14.4,16.4,17.2,27c3.4,12.3,12.2,24.4,21.8,29.9l8.5,4.9
				c5.4,3.1,10.6,3.9,14.7,2.4c3.3-1.3,5.8-4.1,7.1-8.2l5.9-18.2l-1-0.6c-9.8-5.7-18.7-17.9-22.2-30.5c-5.4-19.3-20.3-32.2-31-33.1
				c-5.4-0.4-9.4,2-11.8,7L310.5,251.3z M386.9,288.7l6.8,3.9c5.4,3.1,10.6,4,14.7,2.4c3.3-1.3,5.8-4.1,7.1-8.2l5.8-17.8
				c-5.5-5-11.5-7.9-16.5-8.1c-5.7-0.2-9.8,2.9-11.8,9L386.9,288.7z M159.7,37c8.2,7.4,13.9,17.2,16.3,28l40.6,181.5
				c2.9,13,12.1,26.3,22.4,32.2l9.7,5.6c5.1,2.9,10,3.9,14,2.6c3.1-1,5.7-3.4,7-6.4l8.9-18.9l-4.5-2.6
				c-10.6-6.1-19.8-19.3-22.8-32.8L210.8,44.7c-4.5-19.9-20.4-34.7-32-35.4c-5.7-0.4-9.9,2.5-12,8.4L159.7,37z M279.9,261.2l4.5,2.6
				c5.1,2.9,10,3.9,14,2.6c3.1-1,5.7-3.4,7-6.4l4-8.5c-4.6-3.6-9.4-5.8-13.6-6.1c-5.3-0.5-9.4,2-11.8,7L279.9,261.2z M10.1,204.5
				l32.7,18.9c5.3,3,10.4,3.9,14.5,2.4c3.4-1.3,6-4.1,7.1-7.6l6.8-18.5l-26.3-15.2L10.1,204.5z M72.2,199.3l6.2,3.6
				c5.3,3,10.4,3.9,14.5,2.4c3.4-1.3,6-4.1,7.1-7.6l58.7-160.4c-5.2-4.5-10.7-7.2-15.5-7.5c-5.7-0.3-9.8,2.5-12,8.4L72.2,199.3z"/>
		</g>
		
			<linearGradient id="패스_7847_1_" gradientUnits="userSpaceOnUse" x1="-601.6969" y1="802.7294" x2="-600.6969" y2="802.7294" gradientTransform="matrix(538.66 0 0 -492.4877 324154.8125 395589.4375)">
			<stop  offset="0" style="stop-color:#42E8E0"/>
			<stop  offset="0.106" style="stop-color:#36B5BF"/>
			<stop  offset="0.22" style="stop-color:#2C87A0"/>
			<stop  offset="0.338" style="stop-color:#235F86"/>
			<stop  offset="0.459" style="stop-color:#1B3E71"/>
			<stop  offset="0.582" style="stop-color:#162560"/>
			<stop  offset="0.711" style="stop-color:#121355"/>
			<stop  offset="0.846" style="stop-color:#0F084E"/>
			<stop  offset="1" style="stop-color:#0F054C"/>
		</linearGradient>
		<path id="패스_7847" class="st5" d="M44.8,184l33.4,19.3c10,5.8,19,3.6,22.3-5.4l66-180.3c7.5-20.6,38.3-2,44.8,27.1l40.6,181.5
			c3,13.3,12.2,26.5,22.6,32.5l9.7,5.6c9.4,5.4,18,3.9,21.7-4l13.4-28.5c8.3-17.7,36.1-1,43.7,26.2l0,0c3.5,12.5,12.2,24.5,22,30.2
			l8.5,4.9c10.3,5.9,19.4,3.5,22.5-6l12.3-37.7c6.9-21.2,37.8-3.6,44.9,25.7l40.7,168c3.2,13.2,12.4,26.2,22.8,32l47,26.3L44.8,184z
			"/>
		
			<linearGradient id="패스_7848_1_" gradientUnits="userSpaceOnUse" x1="-601.6969" y1="802.7294" x2="-600.6969" y2="802.7294" gradientTransform="matrix(538.6561 0 0 -492.4877 324116.8438 395609.375)">
			<stop  offset="0" style="stop-color:#42E8E0"/>
			<stop  offset="0.106" style="stop-color:#36B5BF"/>
			<stop  offset="0.22" style="stop-color:#2C87A0"/>
			<stop  offset="0.338" style="stop-color:#235F86"/>
			<stop  offset="0.459" style="stop-color:#1B3E71"/>
			<stop  offset="0.582" style="stop-color:#162560"/>
			<stop  offset="0.711" style="stop-color:#121355"/>
			<stop  offset="0.846" style="stop-color:#0F084E"/>
			<stop  offset="1" style="stop-color:#0F054C"/>
		</linearGradient>
		<path id="패스_7848" class="st6" d="M9.1,203.9l33.4,19.3c10,5.8,19,3.6,22.3-5.4l66-180.3c7.5-20.6,38.3-2,44.8,27.1
			l40.6,181.5c3,13.3,12.2,26.5,22.6,32.5l9.7,5.6c9.4,5.4,18,3.9,21.7-4l13.4-28.5c8.3-17.7,36.1-1,43.7,26.2l0,0
			c3.5,12.5,12.2,24.6,22,30.2l8.5,4.9c10.3,5.9,19.4,3.5,22.5-6l12.2-37.6c6.9-21.2,37.8-3.6,44.9,25.7l40.7,168
			c3.2,13.2,12.4,26.2,22.8,32l47,26.3L9.1,203.9z"/>
	</g>
	<g id="그룹_1452" transform="translate(-108.343 56.439)">
		<path id="패스_7849" class="st0" d="M82,94c-4.3,0.1-8.5-0.9-12.2-2.9L13.4,58.5c-3.4-1.9-5.2-4.5-5.2-7.3s1.8-5.4,5.2-7.3
			l56.4-32.6c6.7-3.9,17.7-3.9,24.4,0l56.4,32.6c3.4,1.9,5.2,4.5,5.2,7.3s-1.8,5.4-5.2,7.3L94.3,91.1C90.5,93.1,86.3,94.1,82,94z
			 M70.3,90.2c6.5,3.7,17,3.7,23.5,0l56.4-32.6c3-1.8,4.7-4.1,4.7-6.5s-1.7-4.7-4.7-6.5L93.8,12.1c-6.5-3.7-17-3.7-23.5,0L13.9,44.7
			c-3,1.8-4.7,4.1-4.7,6.5s1.7,4.7,4.7,6.5L70.3,90.2z"/>
	</g>
	<g id="그룹_1466" transform="translate(-50.798 -181.679)">
		<g id="그룹_1464" transform="translate(0)">
			<g id="그룹_1462">
				<g id="그룹_1456">
					<g id="그룹_1454" transform="translate(180.888)">
						
							<linearGradient id="패스_7850_1_" gradientUnits="userSpaceOnUse" x1="-509.9957" y1="660.675" x2="-508.9957" y2="660.675" gradientTransform="matrix(339.2645 0 0 -402.1328 172953.8438 265888.5)">
							<stop  offset="0" style="stop-color:#C0BFF6"/>
							<stop  offset="0.294" style="stop-color:#C4C3F6"/>
							<stop  offset="0.64" style="stop-color:#D2D2F9"/>
							<stop  offset="1" style="stop-color:#E9E9FD"/>
						</linearGradient>
						<path id="패스_7850" class="st7" d="M12.9,230.5l36.7-218l-3-1.2l4.4-2.5l0,0c1.1-0.6,2.4-0.5,3.4,0.2l293.7,169.6
							c2.4,1.4,4.2,5,3.8,7.5l-37,219.8c-0.1,1-0.7,1.8-1.5,2.2l0,0l-4.3,2.5l-0.7-4.1l0.2,0.1L16.7,238
							C14.3,236.6,12.5,233,12.9,230.5z"/>
						
							<linearGradient id="패스_7851_1_" gradientUnits="userSpaceOnUse" x1="-517.5557" y1="660.8893" x2="-516.5557" y2="660.8893" gradientTransform="matrix(58.2355 0 0 -228.128 30070.5254 151063.7812)">
							<stop  offset="0" style="stop-color:#5761D7"/>
							<stop  offset="0.178" style="stop-color:#5B65D8"/>
							<stop  offset="0.388" style="stop-color:#6A72DE"/>
							<stop  offset="0.613" style="stop-color:#8188E8"/>
							<stop  offset="0.849" style="stop-color:#A2A6F5"/>
							<stop  offset="1" style="stop-color:#BCBEFF"/>
						</linearGradient>
						<path id="패스_7851" class="st8" d="M346.6,184.5l4.8-2.1c0.5,1.1,0.8,2.4,0.6,3.6l-37,219.7c-0.1,1-0.7,1.8-1.5,2.2l0,0
							l-4.3,2.5l-0.7-4.1l0.2,0.1l-14.8-8.5L346.6,184.5z"/>
						<path id="패스_7852" class="st9" d="M12.1,240.6l293.7,169.6c2.3,1.3,4.2,0.6,4.6-1.8l37-219.7c0.4-2.5-1.4-6.1-3.8-7.5
							L49.9,11.6c-2.3-1.3-4.2-0.6-4.6,1.8l-37,219.7C7.9,235.6,9.7,239.2,12.1,240.6z"/>
						<g id="그룹_1453" transform="translate(3.648 7.36)" class="st10">
							<path id="패스_7853" class="st11" d="M45.3,8.3l295.1,170.3l-37.3,220.3L8.2,228.8L45.3,8.3z"/>
						</g>
					</g>
					<g id="그룹_1455" transform="translate(0 231.511)">
						
							<linearGradient id="패스_7854_1_" gradientUnits="userSpaceOnUse" x1="-328.4612" y1="429.3105" x2="-327.4612" y2="429.3105" gradientTransform="matrix(479.153 0 0 -264.3242 157539.6094 113637)">
							<stop  offset="0" style="stop-color:#5761D7"/>
							<stop  offset="0.178" style="stop-color:#5B65D8"/>
							<stop  offset="0.388" style="stop-color:#6A72DE"/>
							<stop  offset="0.613" style="stop-color:#8188E8"/>
							<stop  offset="0.849" style="stop-color:#A2A6F5"/>
							<stop  offset="1" style="stop-color:#BCBEFF"/>
						</linearGradient>
						<path id="패스_7854" class="st12" d="M8.4,113.1l16,8.4l160.7-92.8c2.7-1.6,7.4-1.4,10.5,0.4l277.2,160
							c2.7-1.5,14.7-7.3,14.7-7.3l-5.9,9.5l0,0c-0.3,0.8-0.9,1.4-1.6,1.8L310.7,291c-2.7,1.6-7.4,1.4-10.5-0.4L16.6,126.8
							c-1.1-0.5-1.9-1.4-2.4-2.5l0,0L8.4,113.1z"/>
						
							<linearGradient id="패스_7855_1_" gradientUnits="userSpaceOnUse" x1="-328.1251" y1="429.2913" x2="-327.1251" y2="429.2913" gradientTransform="matrix(479.4066 0 0 -276.7856 157622.7812 118968.3516)">
							<stop  offset="0" style="stop-color:#C0BFF6"/>
							<stop  offset="0.294" style="stop-color:#C4C3F6"/>
							<stop  offset="0.64" style="stop-color:#D2D2F9"/>
							<stop  offset="1" style="stop-color:#E9E9FD"/>
						</linearGradient>
						<path id="패스_7855" class="st13" d="M10.9,115.8l290.7,167.8c3.2,1.8,8,2,10.8,0.4l173.5-100.2c2.8-1.6,2.4-4.4-0.8-6.2
							L194.3,9.9c-3.2-1.8-8-2-10.8-0.4L10.1,109.6C7.3,111.2,7.7,113.9,10.9,115.8z"/>
						<path id="패스_7856" class="st4" d="M10.9,114.5l290.7,167.8c3.2,1.8,8,2,10.8,0.4l173.5-100.2c0.8-0.4,1.5-1.2,1.7-2
							c0.3,1.2-0.2,2.5-1.7,3.3L312.3,284.1c-2.8,1.6-7.6,1.4-10.8-0.4L10.8,115.8c-2.1-1.2-2.9-2.8-2.5-4.2
							C8.8,112.9,9.7,113.9,10.9,114.5z"/>
					</g>
				</g>
				<g id="그룹_1461" transform="translate(184.536 7.36)" class="st14">
					<g>
						<defs>
							<polygon id="SVGID_1_" points="340.4,178.6 45.3,8.3 8.2,228.8 303.1,398.9 							"/>
						</defs>
						<clipPath id="SVGID_2_">
							<use xlink:href="#SVGID_1_"  style="overflow:visible;"/>
						</clipPath>
						<g id="그룹_1460" class="st15">
							<g id="그룹_1459" transform="translate(-0.287 118.701)">
								<g id="그룹_1457" transform="translate(0 0)">
									
										<linearGradient id="패스_7857_1_" gradientUnits="userSpaceOnUse" x1="-513.4792" y1="534.7605" x2="-512.4792" y2="534.7605" gradientTransform="matrix(479.151 0 0 -264.3193 245822.0312 141507.3438)">
										<stop  offset="0" style="stop-color:#5761D7"/>
										<stop  offset="0.178" style="stop-color:#5B65D8"/>
										<stop  offset="0.388" style="stop-color:#6A72DE"/>
										<stop  offset="0.613" style="stop-color:#8188E8"/>
										<stop  offset="0.849" style="stop-color:#A2A6F5"/>
										<stop  offset="1" style="stop-color:#BCBEFF"/>
									</linearGradient>
									<path id="패스_7857" class="st16" d="M8.4,113.1l16,8.4l160.7-92.8c2.7-1.6,7.4-1.4,10.5,0.4l277.2,160
										c2.7-1.5,14.7-7.3,14.7-7.3l-5.9,9.5l0,0c-0.3,0.8-0.9,1.4-1.6,1.8l-169.3,97.7c-2.7,1.6-7.4,1.4-10.5-0.4L16.6,126.8
										c-1.1-0.5-1.9-1.4-2.4-2.5l0,0L8.4,113.1z"/>
									
										<linearGradient id="패스_7858_1_" gradientUnits="userSpaceOnUse" x1="-513.1421" y1="534.7413" x2="-512.1421" y2="534.7413" gradientTransform="matrix(479.4071 0 0 -276.786 245953.1875 148155.625)">
										<stop  offset="0" style="stop-color:#C0BFF6"/>
										<stop  offset="0.294" style="stop-color:#C4C3F6"/>
										<stop  offset="0.64" style="stop-color:#D2D2F9"/>
										<stop  offset="1" style="stop-color:#E9E9FD"/>
									</linearGradient>
									<path id="패스_7858" class="st17" d="M10.8,115.8l290.7,167.8c3.2,1.8,8,2,10.8,0.4l173.5-100.2c2.8-1.6,2.4-4.4-0.8-6.2
										L194.3,9.9c-3.2-1.8-8-2-10.8-0.4L10.1,109.6C7.3,111.2,7.7,113.9,10.8,115.8z"/>
									<path id="패스_7859" class="st4" d="M485,177.7L194.3,9.9c-2.2-1.2-4.7-1.7-7.2-1.5c1.8,0.1,3.5,0.6,5,1.5l290.7,167.8
										c3.2,1.8,3.5,4.6,0.8,6.2L310.2,284.1c-1.1,0.6-2.3,0.9-3.6,1c2,0.2,3.9-0.1,5.7-1l173.5-100.2
										C488.5,182.3,488.2,179.5,485,177.7z"/>
								</g>
								<g id="그룹_1458" transform="translate(71.862 72.858)" class="st18">
									<path id="패스_7860" class="st9" d="M91.3,14l-9.3-5.4c-0.9-0.4-2-0.4-2.8,0.1l-10.4,6.1c-0.8,0.5-0.9,1.2-0.1,1.6
										l9.3,5.4c0.9,0.4,2,0.4,2.8-0.1l10.4-6.1C92,15.2,92,14.5,91.3,14z"/>
									<path id="패스_7861" class="st9" d="M105.7,22.3L96.3,17c-0.9-0.4-2-0.4-2.8,0.1l-10.4,6c-0.8,0.5-0.9,1.2-0.1,1.6
										l9.3,5.4c0.9,0.4,2,0.4,2.8-0.1l10.4-6.1C106.3,23.5,106.4,22.8,105.7,22.3z"/>
									<path id="패스_7862" class="st9" d="M120,30.6l-9.3-5.4c-0.9-0.4-2-0.4-2.8,0.1l-10.4,6.1c-0.8,0.5-0.9,1.2-0.1,1.6
										l9.3,5.4c0.9,0.4,2,0.4,2.8-0.1l10.4-6.1C120.7,31.8,120.8,31.1,120,30.6z"/>
									<path id="패스_7863" class="st9" d="M109.1,41.7l-9.3-5.4c-0.9-0.4-2-0.4-2.8,0.1l-8.7,5.1c-0.8,0.5-0.9,1.2-0.1,1.6
										l9.3,5.4c0.9,0.4,2,0.4,2.8-0.1l8.7-5.1C109.8,42.9,109.8,42.1,109.1,41.7z"/>
									<path id="패스_7864" class="st9" d="M123.5,50l-9.3-5.4c-0.9-0.4-2-0.4-2.8,0.1l-8.7,5.1c-0.8,0.5-0.9,1.2-0.1,1.6
										l9.3,5.4c0.9,0.4,2,0.4,2.8-0.1l8.7-5.1C124.2,51.2,124.2,50.4,123.5,50z"/>
									<path id="패스_7865" class="st9" d="M137.9,58.3l-9.3-5.4c-0.9-0.4-2-0.4-2.8,0.1l-8.7,5.1c-0.8,0.5-0.9,1.2-0.1,1.6
										l9.3,5.4c0.9,0.4,2,0.4,2.8-0.1l8.7-5.1C138.6,59.5,138.6,58.7,137.9,58.3z"/>
									<path id="패스_7866" class="st9" d="M152.3,66.6l-9.3-5.4c-0.9-0.4-2-0.4-2.8,0.1l-8.7,5.1c-0.8,0.5-0.9,1.2-0.1,1.6
										l9.3,5.4c0.9,0.4,2,0.4,2.8-0.1l8.7-5.1C152.9,67.8,153,67.1,152.3,66.6z"/>
									<path id="패스_7867" class="st9" d="M166.6,74.9l-9.3-5.4c-0.9-0.4-2-0.4-2.8,0.1l-8.7,5.1c-0.8,0.5-0.9,1.2-0.1,1.6
										l9.3,5.4c0.9,0.4,2,0.4,2.8-0.1l8.7-5.1C167.3,76.1,167.4,75.4,166.6,74.9z"/>
									<path id="패스_7868" class="st9" d="M181,83.2l-9.3-5.4c-0.9-0.4-2-0.4-2.8,0.1l-8.7,5.1c-0.8,0.5-0.9,1.2-0.1,1.6
										l9.3,5.4c0.9,0.4,2,0.4,2.8-0.1l8.7-5.1C181.7,84.4,181.8,83.7,181,83.2z"/>
									<path id="패스_7869" class="st9" d="M195.4,91.5l-9.3-5.4c-0.9-0.4-2-0.4-2.8,0.1l-8.7,5.1c-0.8,0.5-0.9,1.2-0.1,1.6
										l9.3,5.4c0.9,0.4,2,0.4,2.8-0.1l8.7-5.1C196.1,92.7,196.2,92,195.4,91.5z"/>
									<path id="패스_7870" class="st9" d="M209.8,99.9l-9.3-5.4c-0.9-0.4-2-0.4-2.8,0.1l-8.7,5.1c-0.8,0.5-0.9,1.2-0.1,1.6
										l9.3,5.4c0.9,0.4,2,0.4,2.8-0.1l8.7-5.1C210.5,101,210.6,100.3,209.8,99.9z"/>
									<path id="패스_7871" class="st9" d="M224.2,108.2l-9.3-5.4c-0.9-0.4-2-0.4-2.8,0.1l-8.7,5.1c-0.8,0.5-0.9,1.2-0.1,1.6
										l9.3,5.4c0.9,0.4,2,0.4,2.8-0.1l8.7-5.1C224.9,109.3,225,108.6,224.2,108.2z"/>
									<path id="패스_7872" class="st9" d="M238.6,116.5l-9.3-5.4c-0.9-0.4-2-0.4-2.8,0.1l-8.7,5.1c-0.8,0.5-0.9,1.2-0.1,1.6
										l9.3,5.4c0.9,0.4,2,0.4,2.8-0.1l8.7-5.1C239.3,117.6,239.3,116.9,238.6,116.5z"/>
									<path id="패스_7873" class="st9" d="M103.1,53.6l-9.3-5.4c-0.9-0.4-2-0.4-2.8,0.1l-8.7,5.1c-0.8,0.5-0.9,1.2-0.1,1.6
										l9.3,5.4c0.9,0.4,2,0.4,2.8-0.1l8.7-5.1C103.8,54.7,103.8,54,103.1,53.6z"/>
									<path id="패스_7874" class="st9" d="M88.5,45.1l-9.3-5.4c-0.9-0.4-2-0.4-2.8,0.1l-8.7,5.1c-0.8,0.5-0.9,1.2-0.1,1.6
										l9.3,5.4c0.9,0.4,2,0.4,2.8-0.1l8.7-5.1C89.2,46.3,89.2,45.6,88.5,45.1z"/>
									<path id="패스_7875" class="st9" d="M73.9,36.7L53.8,25.1c-0.9-0.4-2-0.4-2.8,0.1l-8.7,5.1c-0.8,0.5-0.9,1.2-0.1,1.6
										l20.1,11.6c0.9,0.4,2,0.4,2.8-0.1l8.7-5.1C74.6,37.8,74.6,37.1,73.9,36.7z"/>
									<path id="패스_7876" class="st9" d="M56.9,42.2l-16.3-9.4c-0.9-0.4-2-0.4-2.8,0.1L29.1,38c-0.8,0.5-0.9,1.2-0.1,1.6
										L45.2,49c0.9,0.4,2,0.4,2.8-0.1l8.7-5.1C57.6,43.4,57.6,42.6,56.9,42.2z"/>
									<path id="패스_7877" class="st9" d="M117.5,61.9l-9.3-5.4c-0.9-0.4-2-0.4-2.8,0.1l-8.7,5.1c-0.8,0.5-0.9,1.2-0.1,1.6
										l9.3,5.4c0.9,0.4,2,0.4,2.8-0.1l8.7-5.1C118.2,63,118.2,62.3,117.5,61.9z"/>
									<path id="패스_7878" class="st9" d="M131.9,70.2l-9.3-5.4c-0.9-0.4-2-0.4-2.8,0.1l-8.7,5.1c-0.8,0.5-0.9,1.2-0.1,1.6
										l9.3,5.4c0.9,0.4,2,0.4,2.8-0.1l8.7-5.1C132.6,71.3,132.6,70.6,131.9,70.2z"/>
									<path id="패스_7879" class="st9" d="M146.3,78.5l-9.3-5.4c-0.9-0.4-2-0.4-2.8,0.1l-8.7,5.1c-0.8,0.5-0.9,1.2-0.1,1.6
										l9.3,5.4c0.9,0.4,2,0.4,2.8-0.1l8.7-5.1C147,79.6,147,78.9,146.3,78.5z"/>
									<path id="패스_7880" class="st9" d="M160.6,86.8l-9.3-5.4c-0.9-0.4-2-0.4-2.8,0.1l-8.7,5.1c-0.8,0.5-0.9,1.2-0.1,1.6
										l9.3,5.4c0.9,0.4,2,0.4,2.8-0.1l8.7-5.1C161.3,88,161.4,87.2,160.6,86.8z"/>
									<path id="패스_7881" class="st9" d="M175,95.1l-9.3-5.4c-0.9-0.4-2-0.4-2.8,0.1l-8.7,5.1c-0.8,0.5-0.9,1.2-0.1,1.6
										l9.3,5.4c0.9,0.4,2,0.4,2.8-0.1l8.7-5.1C175.7,96.3,175.8,95.5,175,95.1z"/>
									<path id="패스_7882" class="st9" d="M189.4,103.4l-9.3-5.4c-0.9-0.4-2-0.4-2.8,0.1l-8.7,5.1c-0.8,0.5-0.9,1.2-0.1,1.6
										l9.3,5.4c0.9,0.4,2,0.4,2.8-0.1l8.7-5.1C190.1,104.6,190.2,103.8,189.4,103.4z"/>
									<path id="패스_7883" class="st9" d="M203.8,111.7l-9.3-5.4c-0.9-0.4-2-0.4-2.8,0.1l-8.7,5.1c-0.8,0.5-0.9,1.2-0.1,1.6
										l9.3,5.4c0.9,0.4,2,0.4,2.8-0.1l8.7-5.1C204.5,112.9,204.6,112.1,203.8,111.7z"/>
									<path id="패스_7884" class="st9" d="M218.2,120l-9.3-5.4c-0.9-0.4-2-0.4-2.8,0.1l-8.7,5.1c-0.8,0.5-0.9,1.2-0.1,1.6
										l9.3,5.4c0.9,0.4,2,0.4,2.8-0.1l8.7-5.1C218.9,121.2,219,120.5,218.2,120z"/>
									<path id="패스_7885" class="st9" d="M232.6,128.3l-9.3-5.4c-0.9-0.4-2-0.4-2.8,0.1l-8.7,5.1c-0.8,0.5-0.9,1.2-0.1,1.6
										l9.3,5.4c0.9,0.4,2,0.4,2.8-0.1l8.7-5.1C233.3,129.5,233.3,128.8,232.6,128.3z"/>
									<path id="패스_7886" class="st9" d="M258.2,143.1l-20.3-11.7c-0.9-0.4-2-0.4-2.8,0.1l-8.7,5.1c-0.8,0.5-0.9,1.2-0.1,1.6
										l20.3,11.7c0.9,0.4,2,0.4,2.8-0.1l8.7-5.1C258.9,144.3,258.9,143.5,258.2,143.1z"/>
									<path id="패스_7887" class="st9" d="M231.8,158.5l-17.2-9.9c-0.9-0.4-2-0.4-2.8,0.1l-8.7,5.1c-0.8,0.5-0.9,1.2-0.1,1.6
										l17.2,9.9c0.9,0.4,2,0.4,2.8-0.1l8.7-5.1C232.5,159.7,232.6,158.9,231.8,158.5z"/>
									<path id="패스_7888" class="st9" d="M115.5,76l-9.3-5.4c-0.9-0.4-2-0.4-2.8,0.1l-8.7,5.1c-0.8,0.5-0.9,1.2-0.1,1.6
										l9.3,5.4c0.9,0.4,2,0.4,2.8-0.1l8.7-5.1C116.2,77.2,116.2,76.5,115.5,76z"/>
									<path id="패스_7889" class="st9" d="M100.7,67.5l-9.3-5.4c-0.9-0.4-2-0.4-2.8,0.1l-8.7,5.1c-0.8,0.5-0.9,1.2-0.1,1.6
										l9.3,5.4c0.9,0.4,2,0.4,2.8-0.1l8.7-5.1C101.4,68.7,101.5,67.9,100.7,67.5z"/>
									<path id="패스_7890" class="st9" d="M86,59l-9.3-5.4c-0.9-0.4-2-0.4-2.8,0.1l-8.7,5.1c-0.8,0.5-0.9,1.2-0.1,1.6l9.3,5.4
										c0.9,0.4,2,0.4,2.8-0.1l8.7-5.1C86.7,60.2,86.7,59.4,86,59z"/>
									<path id="패스_7891" class="st9" d="M71.2,50.5l-9.3-5.4c-0.9-0.4-2-0.4-2.8,0.1l-8.7,5.1c-0.8,0.5-0.9,1.2-0.1,1.6
										l9.3,5.4c0.9,0.4,2,0.4,2.8-0.1l8.7-5.1C71.9,51.7,72,50.9,71.2,50.5z"/>
									<path id="패스_7892" class="st9" d="M129.9,84.3l-9.3-5.4c-0.9-0.4-2-0.4-2.8,0.1l-8.7,5.1c-0.8,0.5-0.9,1.2-0.1,1.6
										l9.3,5.4c0.9,0.4,2,0.4,2.8-0.1l8.7-5.1C130.6,85.5,130.6,84.8,129.9,84.3z"/>
									<path id="패스_7893" class="st9" d="M144.3,92.6l-9.3-5.4c-0.9-0.4-2-0.4-2.8,0.1l-8.7,5.1c-0.8,0.5-0.9,1.2-0.1,1.6
										l9.3,5.4c0.9,0.4,2,0.4,2.8-0.1l8.7-5.1C145,93.8,145,93.1,144.3,92.6z"/>
									<path id="패스_7894" class="st9" d="M158.7,101l-9.3-5.4c-0.9-0.4-2-0.4-2.8,0.1l-8.7,5.1c-0.8,0.5-0.9,1.2-0.1,1.6
										l9.3,5.4c0.9,0.4,2,0.4,2.8-0.1l8.7-5.1C159.3,102.1,159.4,101.4,158.7,101z"/>
									<path id="패스_7895" class="st9" d="M173,109.3l-9.3-5.4c-0.9-0.4-2-0.4-2.8,0.1l-8.7,5.1c-0.8,0.5-0.9,1.2-0.1,1.6
										l9.3,5.4c0.9,0.4,2,0.4,2.8-0.1l8.7-5.1C173.7,110.4,173.8,109.7,173,109.3z"/>
									<path id="패스_7896" class="st9" d="M187.4,117.6l-9.3-5.4c-0.9-0.4-2-0.4-2.8,0.1l-8.7,5.1c-0.8,0.5-0.9,1.2-0.1,1.6
										l9.3,5.4c0.9,0.4,2,0.4,2.8-0.1l8.7-5.1C188.1,118.7,188.2,118,187.4,117.6z"/>
									<path id="패스_7897" class="st9" d="M201.8,125.9l-9.3-5.4c-0.9-0.4-2-0.4-2.8,0.1l-8.7,5.1c-0.8,0.5-0.9,1.2-0.1,1.6
										l9.3,5.4c0.9,0.4,2,0.4,2.8-0.1l8.7-5.1C202.5,127,202.6,126.3,201.8,125.9z"/>
									<path id="패스_7898" class="st9" d="M216.2,134.2l-9.3-5.4c-0.9-0.4-2-0.4-2.8,0.1l-8.7,5.1c-0.8,0.5-0.9,1.2-0.1,1.6
										l9.3,5.4c0.9,0.4,2,0.4,2.8-0.1l8.7-5.1C216.9,135.4,217,134.6,216.2,134.2z"/>
									<path id="패스_7899" class="st9" d="M230.6,142.5l-9.3-5.4c-0.9-0.4-2-0.4-2.8,0.1l-8.7,5.1c-0.8,0.5-0.9,1.2-0.1,1.6
										l9.3,5.4c0.9,0.4,2,0.4,2.8-0.1l8.7-5.1C231.3,143.7,231.3,142.9,230.6,142.5z"/>
									<path id="패스_7900" class="st9" d="M245,150.8l-9.3-5.4c-0.9-0.4-2-0.4-2.8,0.1l-8.7,5.1c-0.8,0.5-0.9,1.2-0.1,1.6
										l9.3,5.4c0.9,0.4,2,0.4,2.8-0.1l8.7-5.1C245.7,152,245.7,151.2,245,150.8z"/>
									<path id="패스_7901" class="st9" d="M80.7,71.3l-9.3-5.4c-0.9-0.4-2-0.4-2.8,0.1l-8.7,5.1c-0.8,0.5-0.9,1.2-0.1,1.6
										l9.3,5.4c0.9,0.4,2,0.4,2.8-0.1l8.7-5.1C81.4,72.4,81.5,71.7,80.7,71.3z"/>
									<path id="패스_7902" class="st9" d="M66.4,63l-9.3-5.4c-0.9-0.4-2-0.4-2.8,0.1l-8.7,5.1c-0.8,0.5-0.9,1.2-0.1,1.6
										l9.3,5.4c0.9,0.4,2,0.4,2.8-0.1l8.7-5.1C67.1,64.2,67.1,63.4,66.4,63z"/>
									<path id="패스_7903" class="st9" d="M52.1,54.7l-9.3-5.4c-0.9-0.4-2-0.4-2.8,0.1l-8.7,5.1c-0.8,0.5-0.9,1.2-0.1,1.6
										l9.3,5.4c0.9,0.4,2,0.4,2.8-0.1l8.7-5.1C52.8,55.9,52.8,55.2,52.1,54.7z"/>
									<path id="패스_7904" class="st9" d="M37.8,46.5l-9.3-5.4c-0.9-0.4-2-0.4-2.8,0.1l-8.7,5.1c-0.8,0.5-0.9,1.2-0.1,1.6
										l9.3,5.4c0.9,0.4,2,0.4,2.8-0.1l8.7-5.1C38.4,47.6,38.5,46.9,37.8,46.5z"/>
									<path id="패스_7905" class="st9" d="M23.9,54.6l-9.3-5.4c-0.9-0.4-2-0.4-2.8,0.1L8.9,51c-0.8,0.5-0.9,1.2-0.1,1.6
										l9.3,5.4c0.9,0.4,2,0.4,2.8-0.1l2.9-1.7C24.6,55.7,24.6,55,23.9,54.6z"/>
									<path id="패스_7906" class="st9" d="M42.6,65.4L33.3,60c-0.9-0.4-2-0.4-2.8,0.1l-2.9,1.7c-0.8,0.5-0.9,1.2-0.1,1.6
										l9.3,5.4c0.9,0.4,2,0.4,2.8-0.1l2.9-1.7C43.3,66.5,43.3,65.8,42.6,65.4z"/>
									<path id="패스_7907" class="st9" d="M56.8,73.6l-9.3-5.4c-0.9-0.4-2-0.4-2.8,0.1L41.8,70c-0.8,0.5-0.9,1.2-0.1,1.6L51,77
										c0.9,0.4,2,0.4,2.8-0.1l2.9-1.7C57.5,74.8,57.6,74,56.8,73.6z"/>
									<path id="패스_7908" class="st9" d="M71.1,81.8l-9.3-5.4c-0.9-0.4-2-0.4-2.8,0.1l-2.9,1.7c-0.8,0.5-0.9,1.2-0.1,1.6
										l9.3,5.4c0.9,0.4,2,0.4,2.8-0.1l2.9-1.7C71.8,83,71.8,82.3,71.1,81.8z"/>
									<path id="패스_7909" class="st9" d="M85.4,90.1L76,84.7c-0.9-0.4-2-0.4-2.8,0.1l-2.9,1.7c-0.8,0.5-0.9,1.2-0.1,1.6
										l9.3,5.4c0.9,0.4,2,0.4,2.8-0.1l2.9-1.7C86,91.2,86.1,90.5,85.4,90.1z"/>
									<path id="패스_7910" class="st9" d="M165,136l-9.3-5.4c-0.9-0.4-2-0.4-2.8,0.1l-2.9,1.7c-0.8,0.5-0.9,1.2-0.1,1.6
										l9.3,5.4c0.9,0.4,2,0.4,2.8-0.1l2.9-1.7C165.6,137.2,165.7,136.5,165,136z"/>
									<path id="패스_7911" class="st9" d="M179.2,144.3l-9.3-5.4c-0.9-0.4-2-0.4-2.8,0.1l-2.9,1.7c-0.8,0.5-0.9,1.2-0.1,1.6
										l9.3,5.4c0.9,0.4,2,0.4,2.8-0.1l2.9-1.7C179.9,145.4,180,144.7,179.2,144.3z"/>
									<path id="패스_7912" class="st9" d="M193.5,152.5l-9.3-5.4c-0.9-0.4-2-0.4-2.8,0.1l-2.9,1.7c-0.8,0.5-0.9,1.2-0.1,1.6
										l9.3,5.4c0.9,0.4,2,0.4,2.8-0.1l2.9-1.7C194.2,153.7,194.2,152.9,193.5,152.5z"/>
									<path id="패스_7913" class="st9" d="M207.7,160.7l-9.3-5.4c-0.9-0.4-2-0.4-2.8,0.1l-2.9,1.7c-0.8,0.5-0.9,1.2-0.1,1.6
										l9.3,5.4c0.9,0.4,2,0.4,2.8-0.1l2.9-1.7C208.4,161.9,208.5,161.1,207.7,160.7z"/>
									<path id="패스_7914" class="st9" d="M95.1,79.6l-9.3-5.4c-0.9-0.4-2-0.4-2.8,0.1l-8.7,5.1c-0.8,0.5-0.9,1.2-0.1,1.6
										l9.3,5.4c0.9,0.4,2,0.4,2.8-0.1l8.7-5.1C95.8,80.8,95.8,80,95.1,79.6z"/>
									<path id="패스_7915" class="st9" d="M109.5,87.9l-9.3-5.4c-0.9-0.4-2-0.4-2.8,0.1l-8.7,5.1c-0.8,0.5-0.9,1.2-0.1,1.6
										l9.3,5.4c0.9,0.4,2,0.4,2.8-0.1l8.7-5.1C110.2,89.1,110.2,88.3,109.5,87.9z"/>
									<path id="패스_7916" class="st9" d="M123.9,96.2l-9.3-5.4c-0.9-0.4-2-0.4-2.8,0.1L103,96c-0.8,0.5-0.9,1.2-0.1,1.6
										l9.3,5.4c0.9,0.4,2,0.4,2.8-0.1l8.7-5.1C124.6,97.4,124.6,96.6,123.9,96.2z"/>
									<path id="패스_7917" class="st9" d="M138.3,104.5l-9.3-5.4c-0.9-0.4-2-0.4-2.8,0.1l-8.7,5.1c-0.8,0.5-0.9,1.2-0.1,1.6
										l9.3,5.4c0.9,0.4,2,0.4,2.8-0.1l8.7-5.1C139,105.7,139,104.9,138.3,104.5z"/>
									<path id="패스_7918" class="st9" d="M152.7,112.8l-9.3-5.4c-0.9-0.4-2-0.4-2.8,0.1l-8.7,5.1c-0.8,0.5-0.9,1.2-0.1,1.6
										l9.3,5.4c0.9,0.4,2,0.4,2.8-0.1l8.7-5.1C153.4,114,153.4,113.2,152.7,112.8z"/>
									<path id="패스_7919" class="st9" d="M167,121.1l-9.3-5.4c-0.9-0.4-2-0.4-2.8,0.1l-8.7,5.1c-0.8,0.5-0.9,1.2-0.1,1.6
										l9.3,5.4c0.9,0.4,2,0.4,2.8-0.1l8.7-5.1C167.7,122.3,167.8,121.6,167,121.1z"/>
									<path id="패스_7920" class="st9" d="M181.4,129.4l-9.3-5.4c-0.9-0.4-2-0.4-2.8,0.1l-8.7,5.1c-0.8,0.5-0.9,1.2-0.1,1.6
										l9.3,5.4c0.9,0.4,2,0.4,2.8-0.1l8.7-5.1C182.1,130.6,182.2,129.9,181.4,129.4z"/>
									<path id="패스_7921" class="st9" d="M195.8,137.7l-9.3-5.4c-0.9-0.4-2-0.4-2.8,0.1l-8.7,5.1c-0.8,0.5-0.9,1.2-0.1,1.6
										l9.3,5.4c0.9,0.4,2,0.4,2.8-0.1l8.7-5.1C196.5,138.9,196.6,138.2,195.8,137.7z"/>
									<path id="패스_7922" class="st9" d="M210.2,146l-9.3-5.4c-0.9-0.4-2-0.4-2.8,0.1l-8.7,5.1c-0.8,0.5-0.9,1.2-0.1,1.6
										l9.3,5.4c0.9,0.4,2,0.4,2.8-0.1l8.7-5.1C210.9,147.2,211,146.5,210.2,146z"/>
									<path id="패스_7923" class="st9" d="M94.4,33.2L67,17.4c-0.9-0.4-2-0.4-2.8,0.1l-8.7,5.1c-0.8,0.5-0.9,1.2-0.1,1.6
										L82.8,40c0.9,0.4,2,0.4,2.8-0.1l8.7-5.1C95.1,34.4,95.2,33.7,94.4,33.2z"/>
									<path id="패스_7924" class="st9" d="M271.2,135.3l-27.4-15.8c-0.9-0.4-2-0.4-2.8,0.1l-8.7,5.1c-0.8,0.5-0.9,1.2-0.1,1.6
										l27.4,15.8c0.9,0.4,2,0.4,2.8-0.1l8.7-5.1C271.9,136.5,272,135.7,271.2,135.3z"/>
									<path id="패스_7925" class="st9" d="M244.5,102.5l-9.3-5.4c-0.9-0.4-2-0.4-2.8,0.1l-10.4,6.1c-0.8,0.5-0.9,1.2-0.1,1.6
										l9.3,5.4c0.9,0.4,2,0.4,2.8-0.1l10.4-6.1C245.2,103.7,245.3,102.9,244.5,102.5z"/>
									<path id="패스_7926" class="st9" d="M140,42.2l-14.9-8.6c-0.9-0.4-2-0.4-2.8,0.1l-10.4,6.1c-0.8,0.5-0.9,1.2-0.1,1.6
										l14.9,8.6c0.9,0.4,2,0.4,2.8-0.1l10.4-6.1C140.7,43.3,140.8,42.6,140,42.2z"/>
									<path id="패스_7927" class="st9" d="M230.6,94.5l-14.9-8.6c-0.9-0.4-2-0.4-2.8,0.1L202.6,92c-0.8,0.5-0.9,1.2-0.1,1.6
										l14.9,8.6c0.9,0.4,2,0.4,2.8-0.1l10.4-6.1C231.3,95.7,231.4,94.9,230.6,94.5z"/>
									<path id="패스_7928" class="st9" d="M160.8,54.2l-14.9-8.6c-0.9-0.4-2-0.4-2.8,0.1l-10.4,6.1c-0.8,0.5-0.9,1.2-0.1,1.6
										l14.9,8.6c0.9,0.4,2,0.4,2.8-0.1l10.4-6.1C161.5,55.3,161.5,54.6,160.8,54.2z"/>
									<path id="패스_7929" class="st9" d="M132.7,53.4l64.8,37.4c0.9,0.5,1.9,0.5,2.8,0l10.6-6.2c0.8-0.4,0.7-1.2-0.1-1.6
										L146,45.6L132.7,53.4z"/>
									<path id="패스_7930" class="st9" d="M271,125.5l10.4,6c0.7,0.4,1.6,0.3,2.3-0.1l4.2-2.5c0.7-0.4,0.7-1,0.1-1.3l-10.4-6
										c-0.7-0.4-1.6-0.3-2.3,0.1l-4.2,2.5C270.4,124.6,270.4,125.2,271,125.5z"/>
									<path id="패스_7931" class="st9" d="M256.5,117.2l10.4,6c0.7,0.4,1.6,0.3,2.3-0.1l4.2-2.5c0.7-0.4,0.7-1,0.1-1.3l-10.4-6
										c-0.7-0.4-1.6-0.3-2.3,0.1l-4.2,2.5C255.9,116.2,255.9,116.8,256.5,117.2z"/>
									<path id="패스_7932" class="st9" d="M242.1,108.8l10.4,6c0.7,0.4,1.6,0.3,2.3-0.1l4.2-2.5c0.7-0.4,0.7-1,0.1-1.3l-10.4-6
										c-0.7-0.4-1.6-0.3-2.3,0.1l-4.2,2.5C241.5,107.9,241.5,108.5,242.1,108.8z"/>
									<path id="패스_7933" class="st9" d="M249,121.5l10.4,6c0.7,0.4,1.6,0.3,2.3-0.1l4.2-2.5c0.7-0.4,0.7-1,0.1-1.3l-10.4-6
										c-0.7-0.4-1.6-0.3-2.3,0.1l-4.2,2.5C248.5,120.6,248.4,121.2,249,121.5z"/>
								</g>
							</g>
						</g>
					</g>
				</g>
			</g>
			<g id="그룹_1463" transform="translate(126.62 270.26)" class="st19">
				<path id="패스_7935" class="st9" d="M18,58.4l-9.2-5.3c-0.7-0.4-0.6-1.2,0.2-1.7l10.9-6.3c0.9-0.5,2-0.5,2.9-0.1l9.2,5.3
					c0.7,0.4,0.6,1.2-0.2,1.7l-10.9,6.3C20,58.8,18.9,58.9,18,58.4z"/>
				<path id="패스_7936" class="st9" d="M32.2,66.7L23,61.3c-0.7-0.4-0.6-1.2,0.2-1.7l10.9-6.3c0.9-0.5,2-0.5,2.9-0.1l9.2,5.3
					c0.7,0.4,0.6,1.2-0.2,1.7l-10.9,6.3C34.2,67,33.1,67.1,32.2,66.7z"/>
				<path id="패스_7937" class="st9" d="M46.5,74.9l-9.2-5.3c-0.7-0.4-0.6-1.2,0.2-1.7l10.9-6.3c0.9-0.5,2-0.5,2.9-0.1l9.2,5.3
					c0.7,0.4,0.6,1.2-0.2,1.7l-10.9,6.3C48.5,75.3,47.4,75.3,46.5,74.9z"/>
				<path id="패스_7938" class="st9" d="M66.2,68.1l-9.2-5.3c-0.7-0.4-0.6-1.2,0.2-1.7l9.1-5.3c0.9-0.5,2-0.5,2.9-0.1l9.2,5.3
					c0.7,0.4,0.6,1.2-0.2,1.7L69.1,68C68.2,68.5,67.1,68.5,66.2,68.1z"/>
				<path id="패스_7939" class="st9" d="M80.4,76.3L71.2,71c-0.7-0.4-0.6-1.2,0.2-1.7l9.1-5.3c0.9-0.5,2-0.5,2.9-0.1l9.2,5.3
					c0.7,0.4,0.6,1.2-0.2,1.7l-9.1,5.3C82.4,76.7,81.3,76.7,80.4,76.3z"/>
				<path id="패스_7940" class="st9" d="M94.7,84.6l-9.2-5.3c-0.7-0.4-0.6-1.2,0.2-1.7l9.1-5.3c0.9-0.5,2-0.5,2.9-0.1l9.2,5.3
					c0.7,0.4,0.6,1.2-0.2,1.7l-9.1,5.3C96.7,84.9,95.6,85,94.7,84.6z"/>
				<path id="패스_7941" class="st9" d="M108.9,92.8l-9.2-5.3c-0.7-0.4-0.6-1.2,0.2-1.7l9.1-5.3c0.9-0.5,2-0.5,2.9-0.1l9.2,5.3
					c0.7,0.4,0.6,1.2-0.2,1.7l-9.1,5.3C110.9,93.2,109.8,93.2,108.9,92.8z"/>
				<path id="패스_7942" class="st9" d="M123.2,101l-9.2-5.3c-0.7-0.4-0.6-1.2,0.2-1.7l9.1-5.3c0.9-0.5,2-0.5,2.9-0.1l9.2,5.3
					c0.7,0.4,0.6,1.2-0.2,1.7l-9.1,5.3C125.2,101.4,124.1,101.4,123.2,101z"/>
				<path id="패스_7943" class="st9" d="M137.4,109.2l-9.2-5.3c-0.7-0.4-0.6-1.2,0.2-1.7l9.1-5.3c0.9-0.5,2-0.5,2.9-0.1l9.2,5.3
					c0.7,0.4,0.6,1.2-0.2,1.7l-9.1,5.3C139.4,109.6,138.4,109.7,137.4,109.2z"/>
				<path id="패스_7944" class="st9" d="M151.7,117.5l-9.2-5.3c-0.7-0.4-0.6-1.2,0.2-1.7l9.1-5.3c0.9-0.5,2-0.5,2.9-0.1l9.2,5.3
					c0.7,0.4,0.6,1.2-0.2,1.7l-9.1,5.3C153.7,117.8,152.6,117.9,151.7,117.5z"/>
				<path id="패스_7945" class="st9" d="M165.9,125.7l-9.2-5.3c-0.7-0.4-0.6-1.2,0.2-1.7l9.1-5.3c0.9-0.5,2-0.5,2.9-0.1l9.2,5.3
					c0.7,0.4,0.6,1.2-0.2,1.7l-9.1,5.3C167.9,126.1,166.9,126.1,165.9,125.7z"/>
				<path id="패스_7946" class="st9" d="M180.2,133.9l-9.2-5.3c-0.7-0.4-0.6-1.2,0.2-1.7l9.1-5.3c0.9-0.5,2-0.5,2.9-0.1l9.2,5.3
					c0.7,0.4,0.6,1.2-0.2,1.7l-9.1,5.3C182.2,134.3,181.1,134.3,180.2,133.9z"/>
				<path id="패스_7947" class="st9" d="M194.4,142.2l-9.2-5.3c-0.7-0.4-0.6-1.2,0.2-1.7l9.1-5.3c0.9-0.5,2-0.5,2.9-0.1l9.2,5.3
					c0.7,0.4,0.6,1.2-0.2,1.7l-9.1,5.3C196.4,142.5,195.4,142.6,194.4,142.2z"/>
				<path id="패스_7948" class="st9" d="M87.2,64.2l-9.2-5.3c-0.7-0.4-0.6-1.2,0.2-1.7l9.1-5.3c0.9-0.5,2-0.5,2.9-0.1l9.2,5.3
					c0.7,0.4,0.6,1.2-0.2,1.7l-9.1,5.3C89.2,64.6,88.1,64.6,87.2,64.2z"/>
				<path id="패스_7949" class="st9" d="M72.7,55.9l-9.2-5.3c-0.7-0.4-0.6-1.2,0.2-1.7l9.1-5.3c0.9-0.5,2-0.5,2.9-0.1l9.2,5.3
					c0.7,0.4,0.6,1.2-0.2,1.7l-9.1,5.3C74.7,56.2,73.6,56.3,72.7,55.9z"/>
				<path id="패스_7950" class="st9" d="M58.2,47.5L38.3,36c-0.7-0.4-0.6-1.2,0.2-1.7l9.1-5.3c0.9-0.5,2-0.5,2.9-0.1l19.9,11.5
					c0.7,0.4,0.6,1.2-0.2,1.7l-9.1,5.3C60.2,47.9,59.1,47.9,58.2,47.5z"/>
				<path id="패스_7951" class="st9" d="M68.3,37.3L52.2,28c-0.7-0.4-0.6-1.2,0.2-1.7l9.1-5.3c0.9-0.5,2-0.5,2.9-0.1l16.1,9.3
					c0.7,0.4,0.6,1.2-0.2,1.7l-9.1,5.3C70.3,37.7,69.3,37.7,68.3,37.3z"/>
				<path id="패스_7952" class="st9" d="M101.4,72.4l-9.2-5.3c-0.7-0.4-0.6-1.2,0.2-1.7l9.1-5.3c0.9-0.5,2-0.5,2.9-0.1l9.2,5.3
					c0.7,0.4,0.6,1.2-0.2,1.7l-9.1,5.3C103.4,72.8,102.3,72.9,101.4,72.4z"/>
				<path id="패스_7953" class="st9" d="M115.7,80.7l-9.2-5.3c-0.7-0.4-0.6-1.2,0.2-1.7l9.1-5.3c0.9-0.5,2-0.5,2.9-0.1l9.2,5.3
					c0.7,0.4,0.6,1.2-0.2,1.7l-9.1,5.3C117.7,81,116.6,81.1,115.7,80.7z"/>
				<path id="패스_7954" class="st9" d="M129.9,88.9l-9.2-5.3c-0.7-0.4-0.6-1.2,0.2-1.7l9.1-5.3c0.9-0.5,2-0.5,2.9-0.1l9.2,5.3
					c0.7,0.4,0.6,1.2-0.2,1.7l-9.1,5.3C131.9,89.3,130.8,89.3,129.9,88.9z"/>
				<path id="패스_7955" class="st9" d="M144.2,97.1l-9.2-5.3c-0.7-0.4-0.6-1.2,0.2-1.7l9.1-5.3c0.9-0.5,2-0.5,2.9-0.1l9.2,5.3
					c0.7,0.4,0.6,1.2-0.2,1.7l-9.1,5.3C146.2,97.5,145.1,97.5,144.2,97.1z"/>
				<path id="패스_7956" class="st9" d="M158.4,105.3l-9.2-5.3c-0.7-0.4-0.6-1.2,0.2-1.7l9.1-5.3c0.9-0.5,2-0.5,2.9-0.1l9.2,5.3
					c0.7,0.4,0.6,1.2-0.2,1.7l-9.1,5.3C160.4,105.7,159.3,105.8,158.4,105.3z"/>
				<path id="패스_7957" class="st9" d="M172.7,113.6l-9.2-5.3c-0.7-0.4-0.6-1.2,0.2-1.7l9.1-5.3c0.9-0.5,2-0.5,2.9-0.1l9.2,5.3
					c0.7,0.4,0.6,1.2-0.2,1.7l-9.1,5.3C174.7,113.9,173.6,114,172.7,113.6z"/>
				<path id="패스_7958" class="st9" d="M186.9,121.8l-9.2-5.3c-0.7-0.4-0.6-1.2,0.2-1.7l9.1-5.3c0.9-0.5,2-0.5,2.9-0.1l9.2,5.3
					c0.7,0.4,0.6,1.2-0.2,1.7l-9.1,5.3C188.9,122.2,187.8,122.2,186.9,121.8z"/>
				<path id="패스_7959" class="st9" d="M201.2,130l-9.2-5.3c-0.7-0.4-0.6-1.2,0.2-1.7l9.1-5.3c0.9-0.5,2-0.5,2.9-0.1l9.2,5.3
					c0.7,0.4,0.6,1.2-0.2,1.7l-9.1,5.3C203.2,130.4,202.1,130.4,201.2,130z"/>
				<path id="패스_7960" class="st9" d="M215.4,138.3l-9.2-5.3c-0.7-0.4-0.6-1.2,0.2-1.7l9.1-5.3c0.9-0.5,2-0.5,2.9-0.1l9.2,5.3
					c0.7,0.4,0.6,1.2-0.2,1.7l-9.1,5.3C217.4,138.6,216.4,138.7,215.4,138.3z"/>
				<path id="패스_7961" class="st9" d="M240.8,152.9l-20.1-11.6c-0.7-0.4-0.6-1.2,0.2-1.7l9.1-5.3c0.9-0.5,2-0.5,2.9-0.1
					l20.1,11.6c0.7,0.4,0.6,1.2-0.2,1.7l-9.1,5.3C242.8,153.3,241.7,153.3,240.8,152.9z"/>
				<path id="패스_7962" class="st9" d="M268.5,136.9l-17-9.8c-0.7-0.4-0.6-1.2,0.2-1.7l9.1-5.3c0.9-0.5,2-0.5,2.9-0.1l17,9.8
					c0.7,0.4,0.6,1.2-0.2,1.7l-9.1,5.3C270.5,137.2,269.4,137.3,268.5,136.9z"/>
				<path id="패스_7963" class="st9" d="M126.4,70.8l-9.2-5.3c-0.7-0.4-0.6-1.2,0.2-1.7l9.1-5.3c0.9-0.5,2-0.5,2.9-0.1l9.2,5.3
					c0.7,0.4,0.6,1.2-0.2,1.7l-9.1,5.3C128.4,71.2,127.3,71.2,126.4,70.8z"/>
				<path id="패스_7964" class="st9" d="M111.8,62.4l-9.2-5.3c-0.7-0.4-0.6-1.2,0.2-1.7l9.1-5.3c0.9-0.5,2-0.5,2.9-0.1l9.2,5.3
					c0.7,0.4,0.6,1.2-0.2,1.7l-9.1,5.3C113.8,62.8,112.7,62.8,111.8,62.4z"/>
				<path id="패스_7965" class="st9" d="M97.2,54l-9.2-5.3c-0.7-0.4-0.6-1.2,0.2-1.7l9.1-5.3c0.9-0.5,2-0.5,2.9-0.1l9.2,5.3
					c0.7,0.4,0.6,1.2-0.2,1.7l-9.1,5.3C99.2,54.3,98.1,54.4,97.2,54z"/>
				<path id="패스_7966" class="st9" d="M82.6,45.5l-9.2-5.3c-0.7-0.4-0.6-1.2,0.2-1.7l9.1-5.3c0.9-0.5,2-0.5,2.9-0.1l9.2,5.3
					c0.7,0.4,0.6,1.2-0.2,1.7l-9.1,5.3C84.6,45.9,83.5,45.9,82.6,45.5z"/>
				<path id="패스_7967" class="st9" d="M140.6,79.1l-9.2-5.3c-0.7-0.4-0.6-1.2,0.2-1.7l9.1-5.3c0.9-0.5,2-0.5,2.9-0.1l9.2,5.3
					c0.7,0.4,0.6,1.2-0.2,1.7l-9.1,5.3C142.6,79.4,141.6,79.5,140.6,79.1z"/>
				<path id="패스_7968" class="st9" d="M154.9,87.3l-9.2-5.3c-0.7-0.4-0.6-1.2,0.2-1.7L155,75c0.9-0.5,2-0.5,2.9-0.1l9.2,5.3
					c0.7,0.4,0.6,1.2-0.2,1.7l-9.1,5.3C156.9,87.7,155.8,87.7,154.9,87.3z"/>
				<path id="패스_7969" class="st9" d="M169.1,95.5l-9.2-5.3c-0.7-0.4-0.6-1.2,0.2-1.7l9.1-5.3c0.9-0.5,2-0.5,2.9-0.1l9.2,5.3
					c0.7,0.4,0.6,1.2-0.2,1.7l-9.1,5.3C171.1,95.9,170.1,95.9,169.1,95.5z"/>
				<path id="패스_7970" class="st9" d="M183.4,103.7l-9.2-5.3c-0.7-0.4-0.6-1.2,0.2-1.7l9.1-5.3c0.9-0.5,2-0.5,2.9-0.1l9.2,5.3
					c0.7,0.4,0.6,1.2-0.2,1.7l-9.1,5.3C185.4,104.1,184.3,104.2,183.4,103.7z"/>
				<path id="패스_7971" class="st9" d="M197.6,112l-9.2-5.3c-0.7-0.4-0.6-1.2,0.2-1.7l9.1-5.3c0.9-0.5,2-0.5,2.9-0.1l9.2,5.3
					c0.7,0.4,0.6,1.2-0.2,1.7l-9.1,5.3C199.6,112.3,198.6,112.4,197.6,112z"/>
				<path id="패스_7972" class="st9" d="M211.9,120.2l-9.2-5.3c-0.7-0.4-0.6-1.2,0.2-1.7l9.1-5.3c0.9-0.5,2-0.5,2.9-0.1l9.2,5.3
					c0.7,0.4,0.6,1.2-0.2,1.7l-9.1,5.3C213.9,120.6,212.8,120.6,211.9,120.2z"/>
				<path id="패스_7973" class="st9" d="M226.1,128.4l-9.2-5.3c-0.7-0.4-0.6-1.2,0.2-1.7l9.1-5.3c0.9-0.5,2-0.5,2.9-0.1l9.2,5.3
					c0.7,0.4,0.6,1.2-0.2,1.7l-9.1,5.3C228.1,128.8,227.1,128.8,226.1,128.4z"/>
				<path id="패스_7974" class="st9" d="M240.4,136.6l-9.2-5.3c-0.7-0.4-0.6-1.2,0.2-1.7l9.1-5.3c0.9-0.5,2-0.5,2.9-0.1l9.2,5.3
					c0.7,0.4,0.6,1.2-0.2,1.7l-9.1,5.3C242.4,137,241.3,137.1,240.4,136.6z"/>
				<path id="패스_7975" class="st9" d="M254.6,144.9l-9.2-5.3c-0.7-0.4-0.6-1.2,0.2-1.7l9.1-5.3c0.9-0.5,2-0.5,2.9-0.1l9.2,5.3
					c0.7,0.4,0.6,1.2-0.2,1.7l-9.1,5.3C256.6,145.3,255.6,145.3,254.6,144.9z"/>
				<path id="패스_7976" class="st9" d="M118.9,50.5l-9.2-5.3c-0.7-0.4-0.6-1.2,0.2-1.7l9.1-5.3c0.9-0.5,2-0.5,2.9-0.1l9.2,5.3
					c0.7,0.4,0.6,1.2-0.2,1.7l-9.1,5.3C120.9,50.8,119.8,50.9,118.9,50.5z"/>
				<path id="패스_7977" class="st9" d="M104.7,42.3L95.5,37c-0.7-0.4-0.6-1.2,0.2-1.7l9.1-5.3c0.9-0.5,2-0.5,2.9-0.1l9.2,5.3
					c0.7,0.4,0.6,1.2-0.2,1.7l-9.1,5.3C106.7,42.7,105.6,42.7,104.7,42.3z"/>
				<path id="패스_7978" class="st9" d="M90.5,34.1l-9.2-5.3c-0.7-0.4-0.6-1.2,0.2-1.7l9.1-5.3c0.9-0.5,2-0.5,2.9-0.1l9.2,5.3
					c0.7,0.4,0.6,1.2-0.2,1.7L93.4,34C92.5,34.5,91.4,34.5,90.5,34.1z"/>
				<path id="패스_7979" class="st9" d="M76.3,25.9l-9.2-5.3c-0.7-0.4-0.6-1.2,0.2-1.7l9.1-5.3c0.9-0.5,2-0.5,2.9-0.1l9.2,5.3
					c0.7,0.4,0.6,1.2-0.2,1.7l-9.1,5.3C78.3,26.3,77.3,26.3,76.3,25.9z"/>
				<path id="패스_7980" class="st9" d="M90.9,17.5l-9.2-5.3c-0.7-0.4-0.6-1.2,0.2-1.7l3-1.7c0.9-0.5,2-0.5,2.9-0.1L97,14
					c0.7,0.4,0.6,1.2-0.2,1.7l-3,1.7C92.9,17.9,91.8,17.9,90.9,17.5z"/>
				<path id="패스_7981" class="st9" d="M109.4,28.2l-9.2-5.3c-0.7-0.4-0.6-1.2,0.2-1.7l3-1.7c0.9-0.5,2-0.5,2.9-0.1l9.2,5.3
					c0.7,0.4,0.6,1.2-0.2,1.7l-3,1.7C111.4,28.5,110.3,28.6,109.4,28.2z"/>
				<path id="패스_7982" class="st9" d="M123.5,36.3l-9.2-5.3c-0.7-0.4-0.6-1.2,0.2-1.7l3-1.7c0.9-0.5,2-0.5,2.9-0.1l9.2,5.3
					c0.7,0.4,0.6,1.2-0.2,1.7l-3,1.7C125.5,36.7,124.5,36.7,123.5,36.3z"/>
				<path id="패스_7983" class="st9" d="M137.7,44.5l-9.2-5.3c-0.7-0.4-0.6-1.2,0.2-1.7l3-1.7c0.9-0.5,2-0.5,2.9-0.1l9.2,5.3
					c0.7,0.4,0.6,1.2-0.2,1.7l-3,1.7C139.7,44.9,138.6,44.9,137.7,44.5z"/>
				<path id="패스_7984" class="st9" d="M151.8,52.6l-9.2-5.3c-0.7-0.4-0.6-1.2,0.2-1.7l3-1.7c0.9-0.5,2-0.5,2.9-0.1l9.2,5.3
					c0.7,0.4,0.6,1.2-0.2,1.7l-3,1.7C153.8,53,152.7,53.1,151.8,52.6z"/>
				<path id="패스_7985" class="st9" d="M230.6,98.2l-9.2-5.3c-0.7-0.4-0.6-1.2,0.2-1.7l3-1.7c0.9-0.5,2-0.5,2.9-0.1l9.2,5.3
					c0.7,0.4,0.6,1.2-0.2,1.7l-3,1.7C232.6,98.5,231.5,98.6,230.6,98.2z"/>
				<path id="패스_7986" class="st9" d="M244.7,106.3l-9.2-5.3c-0.7-0.4-0.6-1.2,0.2-1.7l3-1.7c0.9-0.5,2-0.5,2.9-0.1l9.2,5.3
					c0.7,0.4,0.6,1.2-0.2,1.7l-3,1.7C246.7,106.7,245.7,106.7,244.7,106.3z"/>
				<path id="패스_7987" class="st9" d="M258.9,114.5l-9.2-5.3c-0.7-0.4-0.6-1.2,0.2-1.7l3-1.7c0.9-0.5,2-0.5,2.9-0.1l9.2,5.3
					c0.7,0.4,0.6,1.2-0.2,1.7l-3,1.7C260.9,114.8,259.8,114.9,258.9,114.5z"/>
				<path id="패스_7988" class="st9" d="M273,122.6l-9.2-5.3c-0.7-0.4-0.6-1.2,0.2-1.7l3-1.7c0.9-0.5,2-0.5,2.9-0.1l9.2,5.3
					c0.7,0.4,0.6,1.2-0.2,1.7l-3,1.7C275,123,273.9,123,273,122.6z"/>
				<path id="패스_7989" class="st9" d="M133.1,58.7l-9.2-5.3c-0.7-0.4-0.6-1.2,0.2-1.7l9.1-5.3c0.9-0.5,2-0.5,2.9-0.1l9.2,5.3
					c0.7,0.4,0.6,1.2-0.2,1.7l-9.1,5.3C135.1,59.1,134,59.1,133.1,58.7z"/>
				<path id="패스_7990" class="st9" d="M147.4,66.9l-9.2-5.3c-0.7-0.4-0.6-1.2,0.2-1.7l9.1-5.3c0.9-0.5,2-0.5,2.9-0.1l9.2,5.3
					c0.7,0.4,0.6,1.2-0.2,1.7l-9.1,5.3C149.4,67.3,148.3,67.3,147.4,66.9z"/>
				<path id="패스_7991" class="st9" d="M161.6,75.2l-9.2-5.3c-0.7-0.4-0.6-1.2,0.2-1.7l9.1-5.3c0.9-0.5,2-0.5,2.9-0.1l9.2,5.3
					c0.7,0.4,0.6,1.2-0.2,1.7l-9.1,5.3C163.6,75.5,162.5,75.6,161.6,75.2z"/>
				<path id="패스_7992" class="st9" d="M175.9,83.4l-9.2-5.3c-0.7-0.4-0.6-1.2,0.2-1.7l9.1-5.3c0.9-0.5,2-0.5,2.9-0.1l9.2,5.3
					c0.7,0.4,0.6,1.2-0.2,1.7l-9.1,5.3C177.9,83.8,176.8,83.8,175.9,83.4z"/>
				<path id="패스_7993" class="st9" d="M190.1,91.6l-9.2-5.3c-0.7-0.4-0.6-1.2,0.2-1.7l9.1-5.3c0.9-0.5,2-0.5,2.9-0.1l9.2,5.3
					c0.7,0.4,0.6,1.2-0.2,1.7l-9.1,5.3C192.1,92,191.1,92,190.1,91.6z"/>
				<path id="패스_7994" class="st9" d="M204.4,99.8l-9.2-5.3c-0.7-0.4-0.6-1.2,0.2-1.7l9.1-5.3c0.9-0.5,2-0.5,2.9-0.1l9.2,5.3
					c0.7,0.4,0.6,1.2-0.2,1.7l-9.1,5.3C206.4,100.2,205.3,100.3,204.4,99.8z"/>
				<path id="패스_7995" class="st9" d="M218.6,108.1l-9.2-5.3c-0.7-0.4-0.6-1.2,0.2-1.7l9.1-5.3c0.9-0.5,2-0.5,2.9-0.1l9.2,5.3
					c0.7,0.4,0.6,1.2-0.2,1.7l-9.1,5.3C220.6,108.4,219.6,108.5,218.6,108.1z"/>
				<path id="패스_7996" class="st9" d="M232.9,116.3l-9.2-5.3c-0.7-0.4-0.6-1.2,0.2-1.7l9.1-5.3c0.9-0.5,2-0.5,2.9-0.1l9.2,5.3
					c0.7,0.4,0.6,1.2-0.2,1.7l-9.1,5.3C234.9,116.7,233.8,116.7,232.9,116.3z"/>
				<path id="패스_7997" class="st9" d="M247.1,124.5l-9.2-5.3c-0.7-0.4-0.6-1.2,0.2-1.7l9.1-5.3c0.9-0.5,2-0.5,2.9-0.1l9.2,5.3
					c0.7,0.4,0.6,1.2-0.2,1.7l-9.1,5.3C249.1,124.9,248.1,124.9,247.1,124.5z"/>
				<path id="패스_7998" class="st9" d="M51.6,59.7L24.5,44c-0.7-0.4-0.6-1.2,0.2-1.7l9.1-5.3c0.9-0.5,2-0.5,2.9-0.1l27.2,15.7
					c0.7,0.4,0.6,1.2-0.2,1.7l-9.1,5.3C53.6,60.1,52.6,60.1,51.6,59.7z"/>
				<path id="패스_7999" class="st9" d="M226.7,160.8l-27.2-15.7c-0.7-0.4-0.6-1.2,0.2-1.7l9.1-5.3c0.9-0.5,2-0.5,2.9-0.1
					l27.2,15.7c0.7,0.4,0.6,1.2-0.2,1.7l-9.1,5.3C228.7,161.2,227.7,161.2,226.7,160.8z"/>
				<path id="패스_8000" class="st9" d="M169.7,146.1l-9.2-5.3c-0.7-0.4-0.6-1.2,0.2-1.7l10.9-6.3c0.9-0.5,2-0.5,2.9-0.1l9.2,5.3
					c0.7,0.4,0.6,1.2-0.2,1.7l-10.9,6.3C171.7,146.4,170.7,146.5,169.7,146.1z"/>
				<path id="패스_8001" class="st9" d="M66.2,86.3l-14.8-8.5c-0.7-0.4-0.6-1.2,0.2-1.7l10.9-6.3c0.9-0.5,2-0.5,2.9-0.1l14.8,8.5
					c0.7,0.4,0.6,1.2-0.2,1.7l-10.9,6.3C68.2,86.7,67.2,86.7,66.2,86.3z"/>
				<path id="패스_8002" class="st9" d="M156,138.1l-14.8-8.5c-0.7-0.4-0.6-1.2,0.2-1.7l10.9-6.3c0.9-0.5,2-0.5,2.9-0.1l14.8,8.5
					c0.7,0.4,0.6,1.2-0.2,1.7l-10.9,6.3C158,138.5,156.9,138.6,156,138.1z"/>
				<path id="패스_8003" class="st9" d="M86.8,98.2L72,89.7c-0.7-0.4-0.6-1.2,0.2-1.7l10.9-6.3c0.9-0.5,2-0.5,2.9-0.1l14.8,8.5
					c0.7,0.4,0.6,1.2-0.2,1.7l-10.9,6.3C88.8,98.6,87.7,98.6,86.8,98.2z"/>
				<path id="패스_8004" class="st9" d="M86.1,81.6l64.2,37c0.5,0.2,0.7,0.7,0.5,1.1c-0.1,0.3-0.3,0.5-0.5,0.5l-11.1,6.4
					c-0.9,0.5-2,0.5-2.9,0l-64.2-37L86.1,81.6z"/>
				<path id="패스_8005" class="st9" d="M209.6,161l10.3,5.9c0.6,0.4,0.5,1-0.2,1.4l-4.5,2.6c-0.7,0.4-1.6,0.4-2.4,0.1l-10.3-5.9
					c-0.6-0.4-0.5-1,0.2-1.4l4.5-2.6C207.9,160.7,208.8,160.6,209.6,161z"/>
				<path id="패스_8006" class="st9" d="M195.2,152.7l10.3,5.9c0.6,0.4,0.5,1-0.2,1.4l-4.5,2.6c-0.7,0.4-1.6,0.4-2.4,0.1
					l-10.3-5.9c-0.6-0.4-0.5-1,0.2-1.4l4.5-2.6C193.5,152.4,194.4,152.3,195.2,152.7z"/>
				<path id="패스_8007" class="st9" d="M180.9,144.5l10.3,5.9c0.6,0.4,0.5,1-0.2,1.4l-4.5,2.6c-0.7,0.4-1.6,0.4-2.4,0.1
					l-10.3-5.9c-0.6-0.4-0.5-1,0.2-1.4l4.5-2.6C179.3,144.2,180.2,144.1,180.9,144.5z"/>
				<path id="패스_8008" class="st9" d="M203.1,148.1l10.3,5.9c0.6,0.4,0.5,1-0.2,1.4l-4.5,2.6c-0.7,0.4-1.6,0.4-2.4,0.1
					l-10.3-5.9c-0.6-0.4-0.5-1,0.2-1.4l4.5-2.6C201.4,147.8,202.3,147.8,203.1,148.1z"/>
			</g>
		</g>
		<g id="그룹_1465" transform="translate(461.567 178.804)">
			<path id="패스_8009" class="st0" d="M13.5,17.9c-0.8,0-1.5-0.2-2.2-0.6c-2.2-1.3-3.4-3.8-3-6.4c0.2-1,0.9-1.9,1.8-2.3
				c1.1-0.4,2.4-0.3,3.4,0.4c2.2,1.3,3.4,3.8,3,6.4C16.3,16.8,15,17.9,13.5,17.9L13.5,17.9z M11.4,9.3c-0.3,0-0.6,0.1-0.9,0.2
				c-0.6,0.3-1.1,0.9-1.2,1.6c-0.3,2.1,0.7,4.2,2.5,5.3c0.7,0.5,1.7,0.6,2.5,0.3c0.6-0.3,1.1-0.9,1.2-1.6c0.3-2.1-0.7-4.2-2.5-5.3
				C12.6,9.5,12,9.3,11.4,9.3L11.4,9.3z"/>
			<path id="패스_8010" class="st0" d="M25.2,24.7c-0.8,0-1.5-0.2-2.1-0.6c-2.2-1.3-3.4-3.8-3-6.4c0.2-1,0.9-1.9,1.8-2.3
				c1.1-0.4,2.4-0.3,3.4,0.4c2.2,1.3,3.4,3.8,3,6.4C28.1,23.6,26.8,24.7,25.2,24.7L25.2,24.7z M23.2,16.1c-0.3,0-0.6,0.1-0.9,0.2
				c-0.6,0.3-1.1,0.9-1.2,1.6c-0.3,2.1,0.7,4.2,2.5,5.3c0.7,0.5,1.7,0.6,2.5,0.3c0.6-0.3,1.1-0.9,1.2-1.6l0,0
				c0.3-2.1-0.7-4.2-2.5-5.3C24.3,16.3,23.8,16.1,23.2,16.1L23.2,16.1z"/>
			<path id="패스_8011" class="st0" d="M39.6,28.8c-0.5,2.1-2.5,2.8-4.5,1.6c-2-1.2-3.1-3.5-2.8-5.8c0.5-2.1,2.5-2.8,4.5-1.6
				C38.8,24.1,39.9,26.4,39.6,28.8z"/>
		</g>
		<path id="패스_8012" class="st0" d="M275.9,77.9l-6.3-3.6l0.5-2.9l6.3,3.6L275.9,77.9z"/>
		<path id="패스_8013" class="st0" d="M285,83.2l-6.3-3.6l0.5-2.9l6.3,3.6L285,83.2z"/>
		<path id="패스_8014" class="st0" d="M266.8,72.7l-13.8-8l0.5-2.9l13.8,8L266.8,72.7z"/>
	</g>
	<g id="그룹_1474" transform="translate(465.872 142.521)">
		<g id="그룹_1473" transform="translate(0 158.868)">
			<path id="패스_8015" class="st0" d="M81.6,134.6c-3.7,0.1-7.4-0.8-10.6-2.5L14.5,99.5c-2.9-1.7-4.5-4-4.5-6.4s1.6-4.7,4.5-6.4
				l56.4-32.6c5.9-3.4,15.4-3.4,21.3,0l56.4,32.6c2.9,1.7,4.5,4,4.5,6.4s-1.6,4.7-4.5,6.4l-56.4,32.6
				C88.9,133.8,85.3,134.7,81.6,134.6z M71.4,131.3c5.6,3.2,14.7,3.2,20.3,0l56.4-32.6c2.6-1.5,4-3.5,4-5.6s-1.4-4.1-4-5.6L91.7,55
				c-5.6-3.2-14.7-3.2-20.3,0L15,87.6c-2.6,1.5-4,3.5-4,5.6s1.4,4.1,4,5.6L71.4,131.3z"/>
			<g id="그룹_1472">
				<path id="패스_8016" class="st20" d="M154.9,80.6V61.3l-3.5-2c-1,6-8.1,10-14,10.8L96.9,93.8l-17.6,6.4L23,71.1l1.3-0.8
					c-4.8-2.2-7.4-7.4-10-12.1l-3.8,2.3l-2.3,0.6v19.6l0,0c0,2.5,1.7,5,5,6.9l56.4,32.6c6.6,3.8,17.3,3.8,24,0l56.4-32.6
					c3.2-1.9,4.9-4.3,5-6.8C154.9,80.8,154.9,80.7,154.9,80.6L154.9,80.6z"/>
				<g id="그룹_1471">
					<g id="그룹_1470">
						
							<linearGradient id="패스_8017_1_" gradientUnits="userSpaceOnUse" x1="-845.8608" y1="180.1469" x2="-845.0668" y2="178.9949" gradientTransform="matrix(146.666 0 0 -58.3383 124081.7734 10534.7305)">
							<stop  offset="0" style="stop-color:#BCBEFF"/>
							<stop  offset="0.227" style="stop-color:#AAADF7"/>
							<stop  offset="0.68" style="stop-color:#7B82E5"/>
							<stop  offset="1" style="stop-color:#5761D7"/>
						</linearGradient>
						<path id="패스_8017" class="st21" d="M154.9,63.5V50.7l-3.5-2c-1,6-8.1,10-14,10.8L96.9,83.2l-17.6,6.4L23,60.5l1.3-0.8
							c-4.8-2.2-7.4-7.4-10-12.1l-3.8,2.3l-2.3,0.6v13.1l0,0c0,2.5,1.7,5,5,6.9l56.4,32.6c6.6,3.8,17.3,3.8,24,0l56.4-32.6
							c3.2-1.9,4.9-4.3,5-6.8C154.9,63.7,154.9,63.6,154.9,63.5L154.9,63.5z"/>
						<path id="패스_8018" class="st22" d="M137.3,59.5L96.9,83.2l-15.4,5.5V106c4.2,0.1,8.3-0.9,12-2.9l56.4-32.6
							c3.2-1.9,4.9-4.3,5-6.8c0-0.1,0-0.2,0-0.3h0V50.7l-3.2-1.8h-0.3C150.2,54.8,143.2,58.7,137.3,59.5z"/>
						
							<linearGradient id="패스_8019_1_" gradientUnits="userSpaceOnUse" x1="-845.8988" y1="179.9699" x2="-845.1418" y2="178.7309" gradientTransform="matrix(137.086 0 0 -48.338 115990.6797 8720.1582)">
							<stop  offset="0.242" style="stop-color:#5761D7"/>
							<stop  offset="0.392" style="stop-color:#7A81E5"/>
							<stop  offset="0.546" style="stop-color:#979BF0"/>
							<stop  offset="0.7" style="stop-color:#ABAEF8"/>
							<stop  offset="0.852" style="stop-color:#B7BAFD"/>
							<stop  offset="1" style="stop-color:#BCBEFF"/>
						</linearGradient>
						<path id="패스_8019" class="st23" d="M24.3,59.7l53.4-30.9c2.4-1.2,5.3-1.2,7.7,0l52.5,30.3l-0.6,0.3
							c5.9-0.8,13-4.8,14-10.8L92.4,15.9l-17.1-4.5l-14,8.2l-47,28.1C16.9,52.4,19.5,57.5,24.3,59.7z"/>
						<path id="패스_8020" class="st22" d="M81.6,13.1l-6.3-1.7l-14,8.2l-47,28.1c2.6,4.7,5.2,9.8,10,12.1l53.4-30.9
							c1.2-0.6,2.5-0.9,3.8-0.9V13.1z"/>
						<g id="그룹_1467" transform="translate(0)">
							
								<linearGradient id="패스_8021_1_" gradientUnits="userSpaceOnUse" x1="-845.9598" y1="178.6605" x2="-844.9598" y2="178.6605" gradientTransform="matrix(146.653 0 0 -84.6755 124070.7891 15178.8428)">
								<stop  offset="0" style="stop-color:#E9E9FD"/>
								<stop  offset="0.36" style="stop-color:#D2D2F9"/>
								<stop  offset="0.706" style="stop-color:#C4C3F6"/>
								<stop  offset="1" style="stop-color:#C0BFF6"/>
							</linearGradient>
							<path id="패스_8021" class="st24" d="M69.6,90.2L13.2,57.6c-6.6-3.8-6.6-10,0-13.8l56.4-32.6c6.6-3.8,17.3-3.8,24,0
								l56.4,32.6c6.6,3.8,6.6,10,0,13.8L93.5,90.2C86.9,94,76.2,94,69.6,90.2z M85.4,15.9c-2.4-1.2-5.3-1.2-7.7,0L21.3,48.5
								c-2.1,1.2-2.1,3.2,0,4.4l56.4,32.6c2.4,1.2,5.3,1.2,7.7,0l56.4-32.6c2.1-1.2,2.1-3.2,0-4.4L85.4,15.9z"/>
						</g>
						<g id="그룹_1468" transform="translate(0.004 6.645)">
							<path id="패스_8022" class="st4" d="M141.8,41.8L85.4,9.3C83,8,80.1,8,77.7,9.3L21.3,41.8c-1.4,0.8-1.9,2-1.4,3
								c0.3-0.6,0.8-1.1,1.4-1.4l56.4-32.6c2.4-1.2,5.3-1.2,7.7,0l56.4,32.6c0.6,0.3,1.1,0.8,1.4,1.4
								C143.7,43.8,143.2,42.6,141.8,41.8z"/>
							<path id="패스_8023" class="st4" d="M149.9,50.9L93.5,83.5c-6.6,3.8-17.3,3.8-24,0L13.2,50.9c-3-1.7-4.6-3.9-4.9-6.1
								c-0.4,2.8,1.2,5.6,4.9,7.7l56.4,32.6c6.6,3.8,17.3,3.8,24,0l56.4-32.6c3.7-2.1,5.3-4.9,4.9-7.7
								C154.5,47.1,152.9,49.2,149.9,50.9z"/>
						</g>
						<g id="그룹_1469" transform="translate(2.252 1.3)">
							
								<linearGradient id="패스_8024_1_" gradientUnits="userSpaceOnUse" x1="-848.2355" y1="177.4028" x2="-847.2355" y2="177.4028" gradientTransform="matrix(142.1567 0 0 -82.076 120590.5703 14609.8926)">
								<stop  offset="0" style="stop-color:#E9E9FD"/>
								<stop  offset="0.36" style="stop-color:#D2D2F9"/>
								<stop  offset="0.706" style="stop-color:#C4C3F6"/>
								<stop  offset="1" style="stop-color:#C0BFF6"/>
							</linearGradient>
							<path id="패스_8024" class="st25" d="M68.9,87.9L12.5,55.4c-5.7-3.3-5.7-8.7,0-12l56.4-32.6c5.7-3.3,15-3.3,20.8,0
								l56.4,32.6c5.7,3.3,5.7,8.7,0,12L89.7,87.9C84,91.2,74.6,91.2,68.9,87.9z M84.7,13.7c-3.4-1.7-7.4-1.7-10.9,0L17.5,46.2
								c-3,1.7-3,4.5,0,6.3l56.4,32.6c3.4,1.7,7.4,1.7,10.9,0l56.4-32.6c3-1.7,3-4.5,0-6.3L84.7,13.7z"/>
						</g>
					</g>
					<path id="패스_8025" class="st20" d="M85.4,15.9c-2.4-1.2-5.3-1.2-7.7,0L21.3,48.5c-2.1,1.2-2.1,3.2,0,4.4l56.4,32.6
						c2.4,1.2,5.3,1.2,7.7,0l56.4-32.6c2.1-1.2,2.1-3.2,0-4.4L85.4,15.9z"/>
				</g>
			</g>
		</g>
		
			<linearGradient id="패스_8026_1_" gradientUnits="userSpaceOnUse" x1="-845.5992" y1="336.171" x2="-845.5992" y2="337.171" gradientTransform="matrix(123.642 0 0 -236.8987 104633.1562 79883.7266)">
			<stop  offset="0" style="stop-color:#42E8E0"/>
			<stop  offset="0.106" style="stop-color:#36B5BF"/>
			<stop  offset="0.22" style="stop-color:#2C87A0"/>
			<stop  offset="0.338" style="stop-color:#235F86"/>
			<stop  offset="0.459" style="stop-color:#1B3E71"/>
			<stop  offset="0.582" style="stop-color:#162560"/>
			<stop  offset="0.711" style="stop-color:#121355"/>
			<stop  offset="0.846" style="stop-color:#0F084E"/>
			<stop  offset="1" style="stop-color:#0F054C"/>
		</linearGradient>
		<path id="패스_8026" class="st26" d="M143.4,209.5V8.3H19.7l0,201.2c0.1,1,0.7,1.9,1.6,2.3l56.4,32.6c2.4,1.2,5.3,1.2,7.7,0
			l56.4-32.6C142.7,211.4,143.3,210.5,143.4,209.5z"/>
	</g>
	<g id="그룹_1481" transform="translate(-107.85 -110.586)">
		<g id="그룹_1480" transform="translate(0 0)">
			<path id="패스_8027" class="st0" d="M81.6,134.6c-3.7,0.1-7.4-0.8-10.6-2.5L14.5,99.5c-2.9-1.7-4.5-4-4.5-6.4
				c0-2.4,1.6-4.7,4.5-6.4l56.4-32.6c5.9-3.4,15.4-3.4,21.3,0l56.4,32.6c2.9,1.7,4.5,4,4.5,6.4c0,2.5-1.6,4.7-4.5,6.4l-56.4,32.6
				C88.9,133.8,85.3,134.7,81.6,134.6z M71.4,131.3c5.6,3.2,14.7,3.2,20.3,0l56.4-32.6c2.6-1.5,4-3.5,4-5.6s-1.4-4.1-4-5.6L91.7,55
				c-5.6-3.2-14.7-3.2-20.3,0L15,87.6c-2.6,1.5-4,3.5-4,5.6s1.4,4.1,4,5.6L71.4,131.3z"/>
			<g id="그룹_1479">
				<path id="패스_8028" class="st20" d="M154.9,80.6V61.3l-3.5-2c-1,6-8.1,10-14,10.8L96.9,93.8l-17.6,6.4L23,71.1l1.3-0.8
					c-4.8-2.2-7.4-7.4-10-12.1l-3.8,2.3l-2.3,0.6v19.6l0,0c0,2.5,1.7,5,5,6.9l56.4,32.6c6.6,3.8,17.3,3.8,24,0l56.4-32.6
					c3.2-1.9,4.9-4.3,5-6.8C154.9,80.8,154.9,80.7,154.9,80.6L154.9,80.6z"/>
				<g id="그룹_1478">
					<g id="그룹_1477">
						
							<linearGradient id="패스_8029_1_" gradientUnits="userSpaceOnUse" x1="-272.1388" y1="592.122" x2="-271.3448" y2="590.97" gradientTransform="matrix(146.663 0 0 -58.3368 39935.4336 34567.7344)">
							<stop  offset="0" style="stop-color:#BCBEFF"/>
							<stop  offset="0.227" style="stop-color:#AAADF7"/>
							<stop  offset="0.68" style="stop-color:#7B82E5"/>
							<stop  offset="1" style="stop-color:#5761D7"/>
						</linearGradient>
						<path id="패스_8029" class="st27" d="M154.9,63.5V50.7l-3.5-2c-1,6-8.1,10-14,10.8L96.9,83.2l-17.6,6.4L23,60.5l1.3-0.8
							c-4.8-2.2-7.4-7.4-10-12.1l-3.8,2.3l-2.2,0.6v13.1l0,0c0,2.5,1.7,5,5,6.9l56.4,32.6c6.6,3.8,17.3,3.8,24,0l56.4-32.6
							c3.2-1.9,4.9-4.3,5-6.8C154.9,63.7,154.9,63.6,154.9,63.5L154.9,63.5z"/>
						<path id="패스_8030" class="st22" d="M137.3,59.5L96.9,83.2l-15.4,5.5V106c4.2,0.1,8.3-0.9,12-2.9l56.4-32.6
							c3.2-1.9,4.9-4.3,5-6.8c0-0.1,0-0.2,0-0.3h0V50.7l-3.2-1.8h-0.3C150.2,54.8,143.2,58.7,137.3,59.5z"/>
						<g id="그룹_1475">
							
								<linearGradient id="패스_8031_1_" gradientUnits="userSpaceOnUse" x1="-272.2378" y1="590.6355" x2="-271.2378" y2="590.6355" gradientTransform="matrix(146.653 0 0 -84.6758 39932.7227 50063.1836)">
								<stop  offset="0" style="stop-color:#E9E9FD"/>
								<stop  offset="0.36" style="stop-color:#D2D2F9"/>
								<stop  offset="0.706" style="stop-color:#C4C3F6"/>
								<stop  offset="1" style="stop-color:#C0BFF6"/>
							</linearGradient>
							<path id="패스_8031" class="st28" d="M69.6,90.2L13.2,57.6c-6.6-3.8-6.6-10,0-13.8l56.4-32.6c6.6-3.8,17.3-3.8,24,0
								l56.4,32.6c6.6,3.8,6.6,10,0,13.8L93.5,90.2C86.9,94,76.2,94,69.6,90.2z"/>
						</g>
						<g id="그룹_1476" transform="translate(0.004 43.133)">
							<path id="패스_8032" class="st4" d="M149.9,14.5L93.5,47c-6.6,3.8-17.3,3.8-24,0L13.2,14.5c-3-1.7-4.6-3.9-4.9-6.1
								c-0.4,2.8,1.2,5.6,4.9,7.7l56.4,32.6c6.6,3.8,17.3,3.8,24,0l56.4-32.6c3.7-2.1,5.3-4.9,4.9-7.7
								C154.5,10.6,152.9,12.8,149.9,14.5z"/>
						</g>
					</g>
				</g>
			</g>
		</g>
	</g>
	<path id="패스_8033" class="st0" d="M330.5,516.2c-4.5,0.1-9-1-13-3.1L90.9,382.2c-3.6-2.1-5.5-4.8-5.5-7.8s2-5.7,5.5-7.8
		l47.8-27.5l0.5,0.9l-47.8,27.5c-3.3,1.9-5,4.3-5,6.9s1.8,5.1,5,6.9L318,512.2c6.9,4,18.1,4,25,0l165.9-95.4l0.5,0.9l-165.9,95.4
		C339.5,515.2,335,516.3,330.5,516.2z"/>
	<g id="그룹_1482" transform="translate(-213.035 -7.38)">
		<path id="패스_8034" class="st29" d="M82.6,95c-4.3,0.1-8.6-0.9-12.5-3L13.7,59.4c-3.5-2-5.5-4.8-5.5-7.8s1.9-5.8,5.5-7.8
			l56.4-32.6c6.9-4,18.1-4,25,0l56.4,32.6c3.5,2,5.5,4.8,5.5,7.8s-1.9,5.8-5.5,7.8L95,92C91.2,94,86.9,95.1,82.6,95z M71.1,90.3
			c6.3,3.7,16.6,3.7,23,0l56.4-32.6c2.9-1.7,4.5-3.8,4.5-6.1s-1.6-4.4-4.5-6.1L94,13c-6.3-3.7-16.6-3.7-23,0L14.7,45.6
			c-2.9,1.7-4.5,3.8-4.5,6.1s1.6,4.4,4.5,6.1L71.1,90.3z"/>
	</g>
	<g id="그룹_1483" transform="translate(-26.344 383.889)">
		<path id="패스_8035" class="st30" d="M82.6,95c-4.3,0.1-8.6-0.9-12.5-3L13.7,59.4c-3.5-2-5.5-4.8-5.5-7.8s1.9-5.8,5.5-7.8
			l56.4-32.6c6.9-4,18.1-4,25,0l56.4,32.6c3.5,2,5.5,4.8,5.5,7.8s-1.9,5.8-5.4,7.8L95,92C91.2,94,86.9,95.1,82.6,95z M71.1,90.3
			c6.3,3.7,16.6,3.7,23,0l56.4-32.6c2.9-1.7,4.5-3.8,4.5-6.1s-1.6-4.4-4.5-6.1L94,13c-6.3-3.7-16.6-3.7-23,0L14.7,45.6
			c-2.9,1.7-4.5,3.8-4.5,6.1s1.6,4.4,4.5,6L71.1,90.3z"/>
	</g>
	<path id="패스_8036" class="st0" d="M-30.6,372c-2.8,0-5.5-0.7-7.9-2.1l-74.8-43.3l0.5-0.9L-38,369c4.6,2.6,10.2,2.6,14.8,0
		l107-61.8l0.5,0.9l-107,61.8C-25.1,371.2-27.8,372-30.6,372z"/>
	<g id="그룹_1484" transform="translate(590.257 -119.537)">
		<circle id="타원_2715" class="st20" cx="17.7" cy="17.8" r="9.4"/>
		<circle id="타원_2716" class="st20" cx="17.7" cy="17.8" r="4.1"/>
	</g>
	<g id="그룹_1485" transform="translate(446.981 -284.543)">
		<circle id="타원_2717" class="st20" cx="17.7" cy="17.8" r="9.4"/>
		<circle id="타원_2718" class="st20" cx="17.7" cy="17.8" r="4.1"/>
	</g>
	<g id="그룹_1486" transform="translate(715.243 -86.524)">
		<circle id="타원_2719" class="st20" cx="17.7" cy="17.8" r="9.4"/>
		<circle id="타원_2720" class="st20" cx="17.7" cy="17.8" r="4.1"/>
	</g>
	<path id="패스_8037" class="st0" d="M-158.7,336.9c-17.5,0-35-3.8-48.3-11.5c-13-7.5-20.2-17.5-20.2-28.2s7.2-20.7,20.2-28.2
		c26.6-15.4,70-15.4,96.6,0c13,7.5,20.2,17.5,20.2,28.2s-7.2,20.7-20.2,28.2l0,0C-123.7,333.1-141.2,336.9-158.7,336.9z
		 M-158.7,258.5c-17.3,0-34.6,3.8-47.8,11.4c-12.7,7.3-19.7,17-19.7,27.3s7,20,19.7,27.3c26.4,15.2,69.3,15.2,95.6,0
		c12.7-7.3,19.7-17,19.7-27.3s-7-20-19.7-27.3C-124,262.3-141.4,258.5-158.7,258.5L-158.7,258.5z"/>
	<g id="그룹_1512" transform="translate(-235.269 39.086)">
		<g id="그룹_1490" transform="translate(0.187 15.654)">
			<g id="그룹_1489" transform="translate(0 161.863)">
				<g id="그룹_1488">
					<path id="패스_8038" class="st31" d="M49.5,52.7c15.2-8.7,39.7-8.7,54.9,0c2.3,1.3,4.3,2.8,6.2,4.6c8.6-8.6,6.5-19.7-6.2-27
						c-15.2-8.7-39.7-8.8-54.9,0c-12.7,7.3-14.7,18.5-6.2,27C45.1,55.6,47.2,54,49.5,52.7z"/>
					
						<linearGradient id="패스_8039_1_" gradientUnits="userSpaceOnUse" x1="-145.0564" y1="263.6028" x2="-144.0564" y2="263.6028" gradientTransform="matrix(137.368 0 0 -75.7979 19934.332 20049.3535)">
						<stop  offset="0" style="stop-color:#BCBEFF"/>
						<stop  offset="0.151" style="stop-color:#A2A6F5"/>
						<stop  offset="0.387" style="stop-color:#8188E8"/>
						<stop  offset="0.612" style="stop-color:#6A72DE"/>
						<stop  offset="0.822" style="stop-color:#5B65D8"/>
						<stop  offset="1" style="stop-color:#5761D7"/>
					</linearGradient>
					<path id="패스_8039" class="st32" d="M135.4,46.3c-3-2.8-6.4-5.2-9.9-7.3c-6.4-3.6-13.2-6.3-20.3-8.1
						c14.1,9,13.7,22.8-1.3,31.5c-15.4,8.9-40.5,8.9-55.9,0c-14.5-8.4-15.4-21.6-2.7-30.6C39.4,33.6,33.7,36,28.3,39
						c-3.6,2-6.9,4.5-9.9,7.3H8.2v20.8l0,0c0,10.1,6.7,20.3,20.1,28c26.8,15.5,70.3,15.5,97.1,0c13.4-7.7,20.1-17.9,20.1-28V46.3
						H135.4z"/>
					<path id="패스_8040" class="st22" d="M125.5,39c-6.4-3.6-13.2-6.3-20.3-8.1c14.1,9,13.7,22.8-1.3,31.5
						c-7.5,4.3-17.2,6.5-27,6.7v37.6c17.6,0,35.2-3.9,48.6-11.6s20.1-17.9,20.1-28V46.3h-10.2C132.4,43.5,129.1,41.1,125.5,39z"/>
					
						<radialGradient id="패스_8041_1_" cx="-144.7553" cy="263.3258" r="1.053" gradientTransform="matrix(75.8271 0 0 -75.799 11121.7441 20049.6582)" gradientUnits="userSpaceOnUse">
						<stop  offset="0" style="stop-color:#42E8E0"/>
						<stop  offset="3.500000e-02" style="stop-color:#3FDCD8"/>
						<stop  offset="0.236" style="stop-color:#309BAE"/>
						<stop  offset="0.429" style="stop-color:#24658B"/>
						<stop  offset="0.606" style="stop-color:#1B3B6F"/>
						<stop  offset="0.766" style="stop-color:#141D5C"/>
						<stop  offset="0.903" style="stop-color:#100B50"/>
						<stop  offset="1" style="stop-color:#0F054C"/>
					</radialGradient>
					<path id="패스_8041" class="st33" d="M125.5,39c-6.4-3.6-13.2-6.3-20.3-8.1c14.1,9,13.7,22.8-1.3,31.5
						c-7.5,4.3-17.2,6.5-27,6.7v37.6c17.6,0,35.2-3.9,48.6-11.6s20.1-17.9,20.1-28V46.3h-10.2C132.4,43.5,129.1,41.1,125.5,39z"/>
					
						<linearGradient id="패스_8042_1_" gradientUnits="userSpaceOnUse" x1="-145.0564" y1="263.5367" x2="-144.0564" y2="263.5367" gradientTransform="matrix(137.3678 0 0 -79.3111 19934.3027 20949.3926)">
						<stop  offset="0" style="stop-color:#C0BFF6"/>
						<stop  offset="0.294" style="stop-color:#C4C3F6"/>
						<stop  offset="0.64" style="stop-color:#D2D2F9"/>
						<stop  offset="1" style="stop-color:#E9E9FD"/>
					</linearGradient>
					<path id="패스_8042" class="st34" d="M125.5,20C98.7,4.5,55.2,4.5,28.3,20S1.5,60.6,28.3,76s70.3,15.5,97.1,0
						S152.3,35.4,125.5,20z M104.4,64.1c-15.4,8.9-40.5,8.9-55.9,0s-15.4-23.4,0-32.3s40.5-8.9,55.9,0S119.8,55.2,104.4,64.1
						L104.4,64.1z"/>
					<g id="그룹_1487" transform="translate(0.002 14.686)">
						<path id="패스_8043" class="st4" d="M125.5,59.2c-26.8,15.5-70.3,15.5-97.1,0C15.4,51.7,8.7,42,8.2,32.2
							c-0.5,10.5,6.2,21.1,20.1,29.1c26.8,15.5,70.3,15.5,97.1,0c13.9-8,20.6-18.6,20.1-29.1C145.1,42,138.4,51.7,125.5,59.2z"/>
						<path id="패스_8044" class="st4" d="M104.4,15c-15.4-8.9-40.5-8.9-55.9,0c-8.2,4.7-12,11-11.5,17.2
							c0.4-5.5,4.3-10.9,11.5-15.1c15.4-8.9,40.5-8.9,55.9,0c7.2,4.2,11.1,9.6,11.5,15.1C116.4,26,112.6,19.8,104.4,15z"/>
					</g>
					
						<linearGradient id="패스_8045_1_" gradientUnits="userSpaceOnUse" x1="-145.1158" y1="263.6427" x2="-144.1158" y2="263.6427" gradientTransform="matrix(127.8742 0 0 -73.8236 18569.7773 19509.0879)">
						<stop  offset="0" style="stop-color:#C0BFF6"/>
						<stop  offset="0.294" style="stop-color:#C4C3F6"/>
						<stop  offset="0.64" style="stop-color:#D2D2F9"/>
						<stop  offset="1" style="stop-color:#E9E9FD"/>
					</linearGradient>
					<path id="패스_8045" class="st35" d="M122.4,19.9c-25-14.4-65.5-14.4-90.4,0s-25,37.8,0,52.2s65.5,14.4,90.4,0
						S147.3,34.4,122.4,19.9z M104.2,61.6c-14.9,8.6-39.1,8.6-54,0s-14.9-22.6,0-31.2s39.1-8.6,54,0S119.1,53,104.2,61.6L104.2,61.6
						z"/>
				</g>
			</g>
			<ellipse id="타원_2721" class="st20" cx="77.2" cy="207.9" rx="38.2" ry="22"/>
			
				<linearGradient id="패스_8046_1_" gradientUnits="userSpaceOnUse" x1="-145.195" y1="424.9849" x2="-145.195" y2="423.9849" gradientTransform="matrix(76.37 0 0 -221.6112 11165.6865 94189.7656)">
				<stop  offset="0" style="stop-color:#0F054C"/>
				<stop  offset="0.154" style="stop-color:#0F084E"/>
				<stop  offset="0.289" style="stop-color:#121355"/>
				<stop  offset="0.418" style="stop-color:#162560"/>
				<stop  offset="0.541" style="stop-color:#1B3E71"/>
				<stop  offset="0.662" style="stop-color:#235F86"/>
				<stop  offset="0.78" style="stop-color:#2C87A0"/>
				<stop  offset="0.894" style="stop-color:#36B5BF"/>
				<stop  offset="1" style="stop-color:#42E8E0"/>
			</linearGradient>
			<path id="패스_8046" class="st36" d="M115.3,207.5L115.3,207.5l0-199.1H39v199.4h0c-0.1,5.7,3.6,11.4,11.2,15.7
				c14.9,8.6,39.1,8.6,54,0C111.8,219.1,115.5,213.3,115.3,207.5z"/>
		</g>
		<g id="그룹_1491" transform="translate(50.96 28.363)">
			<path id="패스_8047" class="st20" d="M54.5,115c0,1.3-1,2.3-2.3,2.3c0,0,0,0,0,0c-1.3,0-2.3-1-2.3-2.3c0,0,0,0,0,0
				c0-1.3,1-2.3,2.3-2.3h0C53.5,112.7,54.5,113.7,54.5,115L54.5,115z"/>
			<path id="패스_8048" class="st20" d="M14.7,10.6c0,1.3-1,2.3-2.3,2.3c-1.3,0-2.3-1-2.3-2.3c0,0,0,0,0,0c0-1.3,1-2.3,2.3-2.3
				c0,0,0,0,0,0C13.6,8.3,14.7,9.4,14.7,10.6z"/>
			<path id="패스_8049" class="st20" d="M19.1,88.6c0,1.9-1.5,3.4-3.4,3.4c0,0,0,0,0,0c-1.9,0-3.4-1.5-3.4-3.4c0,0,0,0,0,0
				c0-1.9,1.5-3.4,3.4-3.4S19.1,86.8,19.1,88.6z"/>
			<path id="패스_8050" class="st37" d="M13,146.1c0,1.3-1.1,2.4-2.4,2.4c0,0,0,0,0,0c-1.3,0-2.4-1.1-2.4-2.4
				c0-1.3,1.1-2.4,2.4-2.4c0,0,0,0,0,0C11.9,143.7,13,144.8,13,146.1C13,146.1,13,146.1,13,146.1z"/>
			<path id="패스_8051" class="st37" d="M46.9,49.9c0,2-1.6,3.6-3.6,3.6s-3.6-1.6-3.6-3.6s1.6-3.6,3.6-3.6S46.9,47.9,46.9,49.9z"
				/>
			<path id="패스_8052" class="st37" d="M44,61.7c0,1.4-1.1,2.5-2.5,2.5c0,0,0,0,0,0c-1.4,0-2.5-1.1-2.5-2.5c0,0,0,0,0,0
				c0-1.4,1.1-2.5,2.5-2.5c0,0,0,0,0,0C42.9,59.2,44,60.3,44,61.7C44,61.7,44,61.7,44,61.7z"/>
		</g>
		<g id="그룹_1496" transform="translate(0 91.65)" class="st19">
			<g id="그룹_1493" transform="translate(111.874 70.189)">
				<g>
					<defs>
						<path id="SVGID_3_" d="M8.2,8.8l0.8-0.4c0.2-0.1,0.4,0,0.5,0.2c0,0,0,0,0,0c0.1,0.2,0,0.4-0.2,0.5L8.5,9.4L8.2,8.8z"/>
					</defs>
					<clipPath id="SVGID_4_">
						<use xlink:href="#SVGID_3_"  style="overflow:visible;"/>
					</clipPath>
					<g id="그룹_1492" class="st38">
						
							<image style="overflow:visible;enable-background:new    ;" width="21" height="13" id="사각형_826" xlink:href="2CF4FD79.png"  transform="matrix(0.2028 0 0 0.2028 6.451 7.7007)">
						</image>
					</g>
				</g>
			</g>
			
				<image style="overflow:visible;enable-background:new    ;" width="682" height="395" id="사각형_827" xlink:href="2CF4FD7B.png"  transform="matrix(0.2028 0 0 0.2028 8.2233 8.3406)">
			</image>
			<g id="그룹_1495" transform="translate(117.291 67.221)">
				<g>
					<defs>
						<path id="SVGID_5_" d="M9.6,9L8.8,9.5C8.6,9.6,8.4,9.5,8.3,9.4c0,0,0,0,0,0C8.2,9.2,8.2,9,8.4,8.9c0,0,0,0,0,0l0,0l0.8-0.5
							L9.6,9z"/>
					</defs>
					<clipPath id="SVGID_6_">
						<use xlink:href="#SVGID_5_"  style="overflow:visible;"/>
					</clipPath>
					<g id="그룹_1494" class="st39">
						
							<image style="overflow:visible;enable-background:new    ;" width="20" height="15" id="사각형_828" xlink:href="2CF4FD7E.png"  transform="matrix(0.2027 0 0 0.2027 7.1172 7.2216)">
						</image>
					</g>
				</g>
			</g>
		</g>
		<g id="그룹_1501" class="st19">
			<g id="그룹_1498" transform="translate(18.323 66.432)">
				<g>
					<defs>
						<path id="SVGID_7_" d="M8.6,8.3l0.1,0.1C8.9,8.5,9,8.8,8.9,8.9c0,0,0,0,0,0C8.8,9.1,8.5,9.2,8.4,9.1L8.2,9L8.6,8.3z"/>
					</defs>
					<clipPath id="SVGID_8_">
						<use xlink:href="#SVGID_7_"  style="overflow:visible;"/>
					</clipPath>
					<g id="그룹_1497" class="st40">
						
							<image style="overflow:visible;enable-background:new    ;" width="21" height="15" id="사각형_829" xlink:href="2CF4FD7F.png"  transform="matrix(0.2027 0 0 0.2027 7.7433 8.0106)">
						</image>
					</g>
				</g>
			</g>
			
				<image style="overflow:visible;enable-background:new    ;" width="682" height="338" id="사각형_830" xlink:href="2CF4FD7A.png"  transform="matrix(0.2028 0 0 0.2028 8.223 8.3408)">
			</image>
			<g id="그룹_1500" transform="translate(117.291 67.238)">
				<g>
					<defs>
						<path id="SVGID_9_" d="M9.6,9L8.8,9.5C8.6,9.6,8.4,9.5,8.3,9.4c0,0,0,0,0,0C8.2,9.2,8.2,9,8.4,8.9c0,0,0,0,0,0l0,0l0.8-0.5
							L9.6,9z"/>
					</defs>
					<clipPath id="SVGID_10_">
						<use xlink:href="#SVGID_9_"  style="overflow:visible;"/>
					</clipPath>
					<g id="그룹_1499" class="st41">
						
							<image style="overflow:visible;enable-background:new    ;" width="20" height="15" id="사각형_831" xlink:href="2CF4FD75.png"  transform="matrix(0.2027 0 0 0.2027 7.1172 7.2046)">
						</image>
					</g>
				</g>
			</g>
		</g>
		<g id="그룹_1506" transform="translate(64.786 70.157)" class="st19">
			<g id="그룹_1503" transform="translate(47.087 0.048)">
				<g>
					<defs>
						<path id="SVGID_11_" d="M8.2,8.8l0.8-0.4c0.2-0.1,0.4,0,0.5,0.2c0,0,0,0,0,0c0.1,0.2,0,0.4-0.2,0.5L8.5,9.4L8.2,8.8z"/>
					</defs>
					<clipPath id="SVGID_12_">
						<use xlink:href="#SVGID_11_"  style="overflow:visible;"/>
					</clipPath>
					<g id="그룹_1502" class="st42">
						
							<image style="overflow:visible;enable-background:new    ;" width="21" height="13" id="사각형_832" xlink:href="2CF4FD76.png"  transform="matrix(0.2028 0 0 0.2028 6.452 7.6837)">
						</image>
					</g>
				</g>
			</g>
			
				<image style="overflow:visible;enable-background:new    ;" width="237" height="49" id="사각형_833" xlink:href="2CF4FD77.png"  transform="matrix(0.2028 0 0 0.2028 8.525 8.3408)">
			</image>
			<g id="그룹_1505" transform="translate(0 9.075)">
				<g>
					<defs>
						<path id="SVGID_13_" d="M9.5,9.1l-0.9,0c-0.2,0-0.4-0.2-0.4-0.4c0-0.2,0.2-0.4,0.4-0.4l0.9,0L9.5,9.1z"/>
					</defs>
					<clipPath id="SVGID_14_">
						<use xlink:href="#SVGID_13_"  style="overflow:visible;"/>
					</clipPath>
					<g id="그룹_1504" class="st43">
						
							<image style="overflow:visible;enable-background:new    ;" width="22" height="5" id="사각형_834" xlink:href="2CF4FD89.png"  transform="matrix(0.2028 0 0 0.2028 7.106 8.1867)">
						</image>
					</g>
				</g>
			</g>
		</g>
		<g id="그룹_1511" transform="translate(0 61.438)" class="st19">
			<g id="그룹_1508" transform="translate(116.663 56.099)">
				<g>
					<defs>
						<path id="SVGID_15_" d="M8.2,8.8L9,8.4l0,0c0.2-0.1,0.4,0,0.5,0.2c0,0,0,0,0,0c0.1,0.2,0,0.4-0.2,0.5L8.6,9.5L8.2,8.8z"/>
					</defs>
					<clipPath id="SVGID_16_">
						<use xlink:href="#SVGID_15_"  style="overflow:visible;"/>
					</clipPath>
					<g id="그룹_1507" class="st44">
						
							<image style="overflow:visible;enable-background:new    ;" width="21" height="14" id="사각형_835" xlink:href="7F68A282.png"  transform="matrix(0.2028 0 0 0.2028 6.528 7.5968)">
						</image>
					</g>
				</g>
			</g>
			
				<image style="overflow:visible;enable-background:new    ;" width="582" height="338" id="사각형_836" xlink:href="7F68A285.png"  transform="matrix(0.2028 0 0 0.2028 8.223 8.3406)">
			</image>
			<g id="그룹_1510" transform="translate(19.597 0.038)">
				<g>
					<defs>
						<path id="SVGID_17_" d="M8.2,8.9L9,8.4c0.2-0.1,0.4-0.1,0.5,0.1c0,0,0,0,0,0C9.6,8.7,9.6,8.9,9.4,9c0,0,0,0,0,0l0,0L8.6,9.5
							L8.2,8.9z"/>
					</defs>
					<clipPath id="SVGID_18_">
						<use xlink:href="#SVGID_17_"  style="overflow:visible;"/>
					</clipPath>
					<g id="그룹_1509" class="st45">
						
							<image style="overflow:visible;enable-background:new    ;" width="21" height="15" id="사각형_837" xlink:href="7F68A286.png"  transform="matrix(0.2027 0 0 0.2027 6.4693 7.4916)">
						</image>
					</g>
				</g>
			</g>
		</g>
		<path id="패스_8061" class="st37" d="M129.5,168c0,2-1.6,3.6-3.6,3.6h0c-2,0-3.6-1.6-3.6-3.6l0,0c0-2,1.6-3.6,3.6-3.6h0
			C127.9,164.4,129.5,166,129.5,168L129.5,168z"/>
		<path id="패스_8062" class="st37" d="M131.1,157.9c0,1.5-1.2,2.7-2.7,2.7c-1.5,0-2.7-1.2-2.7-2.7c0,0,0,0,0,0
			c0-1.5,1.2-2.7,2.7-2.7C129.9,155.2,131.1,156.4,131.1,157.9z"/>
		<circle id="타원_2722" class="st37" cx="136.2" cy="156.8" r="1.7"/>
		<path id="패스_8063" class="st37" d="M144.7,153.1c0.5,0.4,0.7,1.1,0.3,1.6c-0.4,0.5-1.1,0.7-1.6,0.3c-0.5-0.4-0.7-1.1-0.3-1.6
			C143.4,152.9,144.2,152.8,144.7,153.1C144.7,153.1,144.7,153.1,144.7,153.1z"/>
		<path id="패스_8064" class="st37" d="M148,148.1c0.7,0.5,0.9,1.5,0.4,2.2c-0.5,0.7-1.5,0.9-2.2,0.4c0,0,0,0,0,0
			c-0.7-0.5-0.9-1.5-0.4-2.2c0,0,0,0,0,0C146.3,147.8,147.3,147.6,148,148.1z"/>
		<path id="패스_8065" class="st37" d="M144.9,144.5c0.9,0.6,1.1,1.8,0.5,2.7c-0.6,0.9-1.8,1.1-2.7,0.5c-0.9-0.6-1.1-1.8-0.5-2.7
			C142.8,144.1,144,143.9,144.9,144.5z"/>
		<circle id="타원_2723" class="st37" cx="28.6" cy="70.2" r="3.6"/>
		<circle id="타원_2724" class="st37" cx="17.5" cy="71" r="2.5"/>
		<path id="패스_8066" class="st37" d="M21.4,78.3c0,1.2-1,2.2-2.2,2.2c0,0,0,0,0,0c-1.2,0-2.2-1-2.2-2.2c0-1.2,1-2.2,2.2-2.2l0,0
			C20.4,76.1,21.4,77,21.4,78.3L21.4,78.3z"/>
		<circle id="타원_2725" class="st37" cx="17.3" cy="83.5" r="1.4"/>
		<path id="패스_8067" class="st37" d="M10.9,83.5c0.6,0.2,0.9,0.8,0.7,1.3c-0.2,0.6-0.8,0.9-1.3,0.7c-0.6-0.2-0.9-0.8-0.7-1.3
			c0,0,0,0,0,0C9.7,83.7,10.3,83.3,10.9,83.5C10.9,83.5,10.9,83.5,10.9,83.5z"/>
		<path id="패스_8068" class="st37" d="M129.5,76.4c0,2-1.6,3.6-3.6,3.6s-3.6-1.6-3.6-3.6s1.6-3.6,3.6-3.6S129.5,74.4,129.5,76.4z
			"/>
		<path id="패스_8069" class="st37" d="M132.1,66.5c0,1.5-1.2,2.7-2.7,2.7c0,0,0,0,0,0c-1.5,0-2.7-1.2-2.7-2.7c0,0,0,0,0,0
			c0-1.5,1.2-2.7,2.7-2.7C130.9,63.8,132.1,65,132.1,66.5z"/>
		<circle id="타원_2726" class="st37" cx="136.9" cy="63.3" r="1.9"/>
		<circle id="타원_2727" class="st37" cx="142.9" cy="63.8" r="1.3"/>
		<path id="패스_8070" class="st37" d="M146.7,59.8c0,0.4-0.3,0.7-0.7,0.7l0,0c-0.4,0-0.7-0.3-0.7-0.7c0,0,0,0,0,0
			c0-0.4,0.3-0.7,0.7-0.7c0,0,0,0,0,0C146.4,59.1,146.7,59.4,146.7,59.8L146.7,59.8z"/>
	</g>
	<g id="그룹_1513" transform="translate(171.235 -100.901)">
		<path id="패스_8071" class="st0" d="M45.4,20.5l-15-8.7L31,8.3L46,17L45.4,20.5z"/>
		<path id="패스_8072" class="st0" d="M58.2,27.9l-7.5-4.3l0.6-3.5l7.5,4.3L58.2,27.9z"/>
		<path id="패스_8073" class="st0" d="M48.5,31.2l-6.4-3.7l0.6-3.5l6.4,3.7L48.5,31.2z"/>
		<path id="패스_8074" class="st0" d="M59.2,37.4L51.7,33l0.6-3.5l7.5,4.3L59.2,37.4z"/>
		<path id="패스_8075" class="st0" d="M70.2,52.7l-29.5-17l0.6-3.5l29.5,17L70.2,52.7z"/>
		<path id="패스_8076" class="st0" d="M44.6,120.8l-29.5-17l0.6-3.5l29.5,17L44.6,120.8z"/>
		<path id="패스_8077" class="st0" d="M56,127.4l-7.5-4.3l0.6-3.5l7.5,4.3L56,127.4z"/>
		<path id="패스_8078" class="st0" d="M45.8,47.5l-6.4-3.7l0.6-3.5l6.4,3.7L45.8,47.5z"/>
		<path id="패스_8079" class="st0" d="M56.5,53.7L49,49.3l0.6-3.5l7.5,4.3L56.5,53.7z"/>
		<path id="패스_8080" class="st0" d="M54.2,61.3L38,51.9l0.6-3.5l16.2,9.4L54.2,61.3z"/>
		<path id="패스_8081" class="st0" d="M65.1,67.6l-7.5-4.3l0.6-3.5l7.5,4.3L65.1,67.6z"/>
		<path id="패스_8082" class="st0" d="M76,73.9l-7.5-4.3l0.6-3.5l7.5,4.3L76,73.9z"/>
		<path id="패스_8083" class="st0" d="M93.6,84l-14.2-8.2l0.6-3.5l14.2,8.2L93.6,84z"/>
		<path id="패스_8084" class="st0" d="M82.4,95.4l-7.5-4.3l0.6-3.5l7.5,4.3L82.4,95.4z"/>
		<path id="패스_8085" class="st0" d="M100,105.6l-14.2-8.2l0.6-3.5l14.2,8.2L100,105.6z"/>
		<path id="패스_8086" class="st0" d="M42.8,72.5l-7.5-4.3l0.6-3.5l7.5,4.3L42.8,72.5z"/>
		<path id="패스_8087" class="st0" d="M53.7,78.8l-7.5-4.3l0.6-3.5l7.5,4.3L53.7,78.8z"/>
		<path id="패스_8088" class="st0" d="M71.3,89l-14.2-8.2l0.6-3.5l14.2,8.2L71.3,89z"/>
		<path id="패스_8089" class="st0" d="M94.4,93.4l-7.5-4.3l0.6-3.5l7.5,4.3L94.4,93.4z"/>
		<path id="패스_8090" class="st0" d="M105.3,99.7l-7.5-4.3l0.6-3.5l7.5,4.3L105.3,99.7z"/>
		<path id="패스_8091" class="st0" d="M122.9,109.9l-14.2-8.2l0.6-3.5l14.2,8.2L122.9,109.9z"/>
		<path id="패스_8092" class="st0" d="M67.7,134.2l-7.5-4.3l0.6-3.5l7.5,4.3L67.7,134.2z"/>
		<path id="패스_8093" class="st0" d="M85.4,144.3l-14.2-8.2l0.6-3.5l14.2,8.2L85.4,144.3z"/>
		<path id="패스_8094" class="st0" d="M40,88.8l-7.5-4.3l0.6-3.5l7.5,4.3L40,88.8z"/>
		<path id="패스_8095" class="st0" d="M57.7,99l-14.2-8.2l0.6-3.5l14.2,8.2L57.7,99z"/>
		<path id="패스_8096" class="st0" d="M75.9,147.8l-7.5-4.3L69,140l7.5,4.3L75.9,147.8z"/>
		<path id="패스_8097" class="st0" d="M93.5,158l-14.2-8.2l0.6-3.5l14.2,8.2L93.5,158z"/>
		<path id="패스_8098" class="st0" d="M92.7,65.6l-7.5-4.3l0.6-3.5l7.5,4.3L92.7,65.6z"/>
		<path id="패스_8099" class="st0" d="M81.3,59.1l-7.5-4.3l0.6-3.5l7.5,4.3L81.3,59.1z"/>
		<path id="패스_8100" class="st0" d="M110.3,75.8l-14.2-8.2l0.6-3.5l14.2,8.2L110.3,75.8z"/>
		<path id="패스_8101" class="st0" d="M43.4,64l-6.8-3.9l0.6-3.5l6.8,3.9L43.4,64z"/>
		<path id="패스_8102" class="st0" d="M63.5,75.6L47,66.1l0.6-3.5l16.5,9.5L63.5,75.6z"/>
		<path id="패스_8103" class="st0" d="M83.6,87.2l-16.5-9.5l0.6-3.5l16.5,9.5L83.6,87.2z"/>
		<path id="패스_8104" class="st0" d="M120.7,81.8l-6.8-3.9l0.6-3.5l6.8,3.9L120.7,81.8z"/>
		<path id="패스_8105" class="st0" d="M140.8,93.4l-16.5-9.5l0.6-3.5l16.5,9.5L140.8,93.4z"/>
		<path id="패스_8106" class="st0" d="M160.9,105l-16.5-9.5l0.6-3.5l16.5,9.5L160.9,105z"/>
		<path id="패스_8107" class="st0" d="M50.5,85.9L34,76.4l0.6-3.5l16.5,9.5L50.5,85.9z"/>
		<path id="패스_8108" class="st0" d="M59.2,90.9L54.1,88l0.6-3.5l5.1,2.9L59.2,90.9z"/>
		<path id="패스_8109" class="st0" d="M67.9,96L62.8,93l0.6-3.5l5.1,2.9L67.9,96z"/>
		<path id="패스_8110" class="st0" d="M84,105.3l-12.4-7.2l0.6-3.5l12.4,7.2L84,105.3z"/>
		<path id="패스_8111" class="st0" d="M102,88.9L97,86l0.6-3.5l5.1,2.9L102,88.9z"/>
		<path id="패스_8112" class="st0" d="M118.1,98.2L105.7,91l0.6-3.5l12.4,7.2L118.1,98.2z"/>
		<path id="패스_8113" class="st0" d="M121.5,100.1L109,92.9l0.6-3.5l12.4,7.2L121.5,100.1z"/>
		<path id="패스_8114" class="st0" d="M55.2,144.8L39,135.4l0.6-3.5l16.2,9.4L55.2,144.8z"/>
		<path id="패스_8115" class="st0" d="M66.1,151.1l-7.5-4.3l0.6-3.5l7.5,4.3L66.1,151.1z"/>
		<path id="패스_8116" class="st0" d="M77,157.4l-7.5-4.3l0.6-3.5l7.5,4.3L77,157.4z"/>
		<path id="패스_8117" class="st0" d="M94.6,167.5l-14.2-8.2l0.6-3.5l14.2,8.2L94.6,167.5z"/>
		<path id="패스_8118" class="st0" d="M105.9,174l-7.5-4.3l0.6-3.5l7.5,4.3L105.9,174z"/>
		<path id="패스_8119" class="st0" d="M123.5,184.2l-14.2-8.2l0.6-3.5l14.2,8.2L123.5,184.2z"/>
		<path id="패스_8120" class="st0" d="M69.5,170.9l-7.5-4.3l0.6-3.5l7.5,4.3L69.5,170.9z"/>
		<path id="패스_8121" class="st0" d="M87.1,181l-14.2-8.2l0.6-3.5l14.2,8.2L87.1,181z"/>
		<path id="패스_8122" class="st0" d="M30.2,148.2l-7.5-4.3l0.6-3.5l7.5,4.3L30.2,148.2z"/>
		<path id="패스_8123" class="st0" d="M41.2,154.5l-7.5-4.3l0.6-3.5l7.5,4.3L41.2,154.5z"/>
		<path id="패스_8124" class="st0" d="M58.8,164.7l-14.2-8.2l0.6-3.5l14.2,8.2L58.8,164.7z"/>
		<path id="패스_8125" class="st0" d="M44.4,147.5l-6.8-3.9l0.6-3.5L45,144L44.4,147.5z"/>
		<path id="패스_8126" class="st0" d="M64.5,159.1L48,149.6l0.6-3.5l16.5,9.5L64.5,159.1z"/>
		<path id="패스_8127" class="st0" d="M84.6,170.7l-16.5-9.5l0.6-3.5l16.5,9.5L84.6,170.7z"/>
		<path id="패스_8128" class="st0" d="M24.7,154l-16.5-9.5l0.6-3.5l16.5,9.5L24.7,154z"/>
		<path id="패스_8129" class="st0" d="M33.4,159l-5.1-2.9l0.6-3.5l5.1,2.9L33.4,159z"/>
		<path id="패스_8130" class="st0" d="M42.1,164l-5.1-2.9l0.6-3.5l5.1,2.9L42.1,164z"/>
		<path id="패스_8131" class="st0" d="M58.2,173.3l-12.4-7.2l0.6-3.5l12.4,7.2L58.2,173.3z"/>
		<path id="패스_8132" class="st0" d="M61.5,175.2L49.1,168l0.6-3.5l12.4,7.2L61.5,175.2z"/>
		<path id="패스_8133" class="st0" d="M32.1,122.5l-5.1-2.9l0.6-3.5l5.1,2.9L32.1,122.5z"/>
		<path id="패스_8134" class="st0" d="M48.2,131.8l-12.4-7.2l0.6-3.5l12.4,7.2L48.2,131.8z"/>
		<path id="패스_8135" class="st0" d="M64.6,141.3l-12.4-7.2l0.6-3.5l12.4,7.2L64.6,141.3z"/>
		<path id="패스_8136" class="st0" d="M128,195.7l-7.5-4.3l0.6-3.5l7.5,4.3L128,195.7z"/>
		<path id="패스_8137" class="st0" d="M145.6,205.9l-14.2-8.2l0.6-3.5l14.2,8.2L145.6,205.9z"/>
		<path id="패스_8138" class="st0" d="M100.2,179.7l-12.4-7.2l0.6-3.5l12.4,7.2L100.2,179.7z"/>
		<path id="패스_8139" class="st0" d="M116.7,189.2l-12.4-7.2l0.6-3.5l12.4,7.2L116.7,189.2z"/>
		<path id="패스_8140" class="st0" d="M23.3,88.1l-5.1-2.9l0.6-3.5l5.1,2.9L23.3,88.1z"/>
		<path id="패스_8141" class="st0" d="M39.4,97.4L27,90.2l0.6-3.5L40,93.9L39.4,97.4z"/>
		<path id="패스_8142" class="st0" d="M55.8,106.9l-12.4-7.2l0.6-3.5l12.4,7.2L55.8,106.9z"/>
	</g>
	<g id="그룹_1514" transform="translate(510.219 172.387)">
		<path id="패스_8143" class="st20" d="M8.2,41.8c0-1.3,1-2.3,2.3-2.3c1.3,0,2.3,1,2.3,2.3c0,1.3-1,2.3-2.3,2.3
			C9.2,44.1,8.2,43.1,8.2,41.8C8.2,41.8,8.2,41.8,8.2,41.8z"/>
		<path id="패스_8144" class="st20" d="M48.1,146.2c0-1.3,1-2.3,2.3-2.3c1.3,0,2.3,1,2.3,2.3c0,1.3-1,2.3-2.3,2.3
			C49.1,148.5,48.1,147.5,48.1,146.2C48.1,146.2,48.1,146.2,48.1,146.2z"/>
		<circle id="타원_2728" class="st20" cx="47" cy="68.2" r="3.4"/>
		<circle id="타원_2729" class="st37" cx="52.1" cy="10.7" r="2.4"/>
		<path id="패스_8145" class="st37" d="M15.9,106.9c0-2,1.6-3.6,3.6-3.6c2,0,3.6,1.6,3.6,3.6c0,2-1.6,3.6-3.6,3.6
			C17.5,110.6,15.9,108.9,15.9,106.9C15.9,106.9,15.9,106.9,15.9,106.9z"/>
		<circle id="타원_2730" class="st37" cx="21.2" cy="95.1" r="2.5"/>
	</g>
	<path id="패스_8146" class="st0" d="M419.2,96.3c-0.9,0-1.7-0.3-2.4-0.7l-68.8-39.7c-2.8-1.6-4.7-5.8-4.1-9.3l4.4-26.3
		c0.2-1.6,1.1-3.1,2.6-3.9c1.3-0.6,2.9-0.5,4.1,0.3l68.8,39.7c2.8,1.6,4.7,5.8,4.1,9.3l-4.4,26.3c-0.2,1.6-1.1,3.1-2.6,3.9
		C420.3,96.2,419.8,96.3,419.2,96.3z M352.4,17.3c-0.4,0-0.8,0.1-1.1,0.3c-1.1,0.6-1.8,1.7-1.9,3L345,46.8c-0.5,3.1,0.9,6.3,3.5,8
		l68.8,39.7c0.9,0.6,2,0.7,3,0.3c1.1-0.6,1.8-1.7,1.9-3l4.4-26.3c0.5-3.1-0.9-6.3-3.5-8l-68.8-39.7
		C353.7,17.5,353.1,17.3,352.4,17.3z"/>
	<path id="패스_8147" class="st0" d="M411.6,141.5c-0.9,0-1.7-0.3-2.4-0.7L340.3,101c-2.8-1.6-4.7-5.8-4.1-9.3l4.4-26.3
		c0.2-1.6,1.1-3.1,2.6-3.9c1.3-0.6,2.9-0.5,4.1,0.3l68.8,39.7c2.8,1.6,4.7,5.8,4.1,9.3l-4.4,26.3c-0.2,1.6-1.1,3.1-2.6,3.9
		C412.8,141.4,412.2,141.5,411.6,141.5z M344.9,62.5c-0.4,0-0.8,0.1-1.1,0.3c-1.1,0.6-1.8,1.7-1.9,3L337.4,92
		c-0.5,3.1,0.9,6.3,3.5,8l68.8,39.7c0.9,0.6,2,0.7,3,0.3c1.1-0.6,1.8-1.7,1.9-3l4.4-26.3c0.5-3.1-0.9-6.3-3.5-8L346.7,63
		C346.2,62.7,345.5,62.5,344.9,62.5z"/>
	
		<linearGradient id="패스_8148_1_" gradientUnits="userSpaceOnUse" x1="-381.2138" y1="480.9251" x2="-379.4398" y2="480.1791" gradientTransform="matrix(55.753 0 0 -56.7153 21613.2637 27321.1465)">
		<stop  offset="0" style="stop-color:#42E8E0"/>
		<stop  offset="0.106" style="stop-color:#36B5BF"/>
		<stop  offset="0.22" style="stop-color:#2C87A0"/>
		<stop  offset="0.338" style="stop-color:#235F86"/>
		<stop  offset="0.459" style="stop-color:#1B3E71"/>
		<stop  offset="0.582" style="stop-color:#162560"/>
		<stop  offset="0.711" style="stop-color:#121355"/>
		<stop  offset="0.846" style="stop-color:#0F084E"/>
		<stop  offset="1" style="stop-color:#0F054C"/>
	</linearGradient>
	<path id="패스_8148" class="st46" d="M354.2,53c1.2,0.7,2.3,0.4,2.7-0.7l8-21.9c0.9-2.5,4.7-0.2,5.5,3.3l4.9,22.1
		c0.4,1.6,1.4,3,2.7,4l1.2,0.7c1.1,0.7,2.2,0.5,2.6-0.5l1.6-3.5c1-2.1,4.4-0.1,5.3,3.2l0,0c0.4,1.5,1.4,2.8,2.7,3.7l1,0.6
		c1.2,0.7,2.4,0.4,2.7-0.7l1.5-4.6c0.8-2.6,4.6-0.4,5.5,3.1l4.9,20.4c0.4,1.6,1.4,3,2.8,3.9L354.2,53z"/>
	<path id="패스_8149" class="st0" d="M401.1,131.1c-1.5-1-2.6-2.5-3.1-4.3l-4.9-20.4c-0.6-2.3-2.4-3.8-3.4-3.8
		c-0.3,0-0.7,0.1-0.9,0.7l-1.5,4.6c-0.2,0.6-0.6,1.1-1.2,1.4c-0.8,0.2-1.7,0.1-2.3-0.3l-1-0.6c-1.4-0.9-2.5-2.4-3-4
		c-0.6-2.1-2.2-3.5-3.3-3.6c-0.4-0.1-0.8,0.2-0.9,0.5l-1.6,3.5c-0.2,0.5-0.7,0.9-1.2,1.1c-0.8,0.2-1.6,0.1-2.2-0.4l-1.2-0.7
		c-1.5-1-2.6-2.6-3-4.3l-4.9-22.1c-0.5-2.1-2.2-3.8-3.4-3.9c-0.5-0.1-0.7,0.2-0.9,0.7l-8,21.9c-0.2,0.6-0.7,1.1-1.2,1.3
		c-0.8,0.2-1.6,0.1-2.3-0.3l0.6-1c0.4,0.3,0.9,0.4,1.3,0.3c0.3-0.1,0.5-0.3,0.5-0.6l8-21.9c0.3-0.9,1.2-1.5,2.1-1.4
		c1.7,0.1,3.9,2.1,4.5,4.8l4.9,22.1c0.3,1.5,1.2,2.7,2.5,3.6l1.2,0.7c0.4,0.3,0.8,0.4,1.3,0.3c0.2-0.1,0.4-0.3,0.5-0.5l1.6-3.5
		c0.3-0.8,1.2-1.3,2.1-1.2c1.8,0.2,3.7,2.1,4.3,4.5c0.4,1.4,1.2,2.5,2.4,3.3l1,0.6c0.4,0.3,0.9,0.4,1.3,0.3c0.3-0.1,0.5-0.4,0.5-0.7
		l1.5-4.6c0.3-0.9,1.1-1.6,2.1-1.5c1.6,0.1,3.9,2,4.5,4.7l4.9,20.4c0.3,1.4,1.2,2.7,2.5,3.5L401.1,131.1z"/>
</g>
</svg>
