<?xml version="1.0" encoding="utf-8"?>
<!-- Generator: Adobe Illustrator 25.2.3, SVG Export Plug-In . SVG Version: 6.00 Build 0)  -->
<svg version="1.1" id="레이어_1" xmlns="http://www.w3.org/2000/svg" xmlns:xlink="http://www.w3.org/1999/xlink" x="0px"
	 y="0px" viewBox="0 0 93.8 124.7" style="enable-background:new 0 0 93.8 124.7;" xml:space="preserve">
<style type="text/css">
	.st0{fill:url(#패스_6408_1_);}
</style>
<linearGradient id="패스_6408_1_" gradientUnits="userSpaceOnUse" x1="41.8598" y1="37.4383" x2="88.6643" y2="122.8402">
	<stop  offset="0" style="stop-color:#3CC9CD"/>
	<stop  offset="0.945" style="stop-color:#2F87A5"/>
</linearGradient>
<path id="패스_6408" class="st0" d="M46.7,0C65.2,0.8,79.3,8.6,88,24.8c8.5,16,7.8,32.2-2.2,47.4C74.9,88.7,63.3,104.8,52,121
	c-3.4,4.8-6.8,4.8-10.2,0c-11.4-16.4-23.1-32.6-34-49.3C-2.1,56.6-2.5,40.3,6.1,24.4C14.8,8.4,28.9,0.8,46.7,0z M47.2,62.5
	c8.7-0.1,15.7-7.3,15.7-16c-0.2-8.8-7.5-15.7-16.2-15.6C37.9,31.1,31,38.3,31,47C31.2,55.7,38.4,62.6,47.2,62.5L47.2,62.5z"/>
</svg>
