<?xml version="1.0" encoding="utf-8"?>
<!-- Generator: Adobe Illustrator 25.2.3, SVG Export Plug-In . SVG Version: 6.00 Build 0)  -->
<svg version="1.1" id="레이어_1" xmlns="http://www.w3.org/2000/svg" xmlns:xlink="http://www.w3.org/1999/xlink" x="0px"
	 y="0px" viewBox="0 0 125.4 124.7" style="enable-background:new 0 0 125.4 124.7;" xml:space="preserve">
<style type="text/css">
	.st0{fill:url(#패스_6393_1_);}
</style>
<linearGradient id="패스_6393_1_" gradientUnits="userSpaceOnUse" x1="0" y1="62.334" x2="125.4442" y2="62.334">
	<stop  offset="0" style="stop-color:#3CC9CD"/>
	<stop  offset="1" style="stop-color:#2F87A5"/>
</linearGradient>
<path id="패스_6393" class="st0" d="M28,0c4,1.9,6.1,5.1,7.3,9.4c1.9,7.2,4.3,14.3,6.8,21.4c1.5,4.3,0.7,7.8-2.7,10.8
	c-0.8,0.7-1.4,1.4-2.1,2.1c-7.7,7.7-7.7,7.8-1.5,16.6c9.1,13,20.7,24.1,34,32.6c3.2,2.1,5.3,2.1,8.2-0.8C90.4,79.5,86,81,103,86.1
	c4.6,1.4,9.2,2.9,13.8,4.4c8.2,2.6,11.1,11.1,6.4,18.2c-7.6,11.5-23.1,18.1-36.5,15.3c-20.9-4.2-37.5-16-52.3-30.6
	C19.2,78.6,6.8,61.9,1.7,40.7C1.2,38.5,0.6,36.2,0,34v-7C4.1,16.1,9.6,6.2,20,0H28z"/>
</svg>
