<?xml version="1.0" encoding="utf-8"?>
<!-- Generator: Adobe Illustrator 25.2.3, SVG Export Plug-In . SVG Version: 6.00 Build 0)  -->
<svg version="1.1" id="레이어_1" xmlns="http://www.w3.org/2000/svg" xmlns:xlink="http://www.w3.org/1999/xlink" x="0px"
	 y="0px" viewBox="0 0 183.6 52" style="enable-background:new 0 0 183.6 52;" xml:space="preserve">
<style type="text/css">
	.st0{fill:#FEFCFB;}
</style>
<g id="그룹_883" transform="translate(-1318.535 -169.051)">
	<path id="패스_30" class="st0" d="M1329.6,221h-8.3c-0.3,0-0.5-0.2-0.5-0.5c0,0,0,0,0,0v-44.7c-0.1-1.8,0.6-3.5,1.8-4.7
		c1.2-1.2,2.9-1.8,4.6-1.8h8.3c10.4,0,15.7,4.6,15.7,13.8c0,5.7-3.1,10-9.2,13l9.9,24.1c0.1,0.2,0,0.5-0.3,0.6c-0.1,0-0.1,0-0.2,0
		h-9.1c-0.2,0-0.4-0.1-0.4-0.3l-8.2-20c-1.1-2-1.7-4.2-1.8-6.5c0-1.8,1.5-3.4,4.6-4.6c4.6-1.2,6.8-3.2,6.4-6.2
		c-0.4-2.8-2.9-4.9-5.8-4.9h-6.6c-0.3,0-0.5,0.2-0.5,0.5v41.5C1330.1,220.8,1329.9,221,1329.6,221C1329.6,221,1329.6,221,1329.6,221
		z"/>
	<path id="패스_31" class="st0" d="M1366.5,221h-8.3c-0.3,0-0.5-0.2-0.5-0.5c0,0,0,0,0,0v-50.7c0-0.3,0.2-0.5,0.5-0.5l0,0h8.3
		c0.3,0,0.5,0.2,0.5,0.5c0,0,0,0,0,0v50.7C1367,220.8,1366.7,221,1366.5,221C1366.5,221,1366.5,221,1366.5,221z"/>
	<path id="패스_32" class="st0" d="M1402.2,206.3c0.1,4-1.4,7.8-4.1,10.6c-2.9,2.8-6.8,4.3-10.9,4.1h-14c-0.3,0-0.5-0.2-0.5-0.5
		v-50.7c0-0.3,0.2-0.5,0.5-0.5h14.3c7.8-0.3,14.4,5.8,14.7,13.6c0,0.4,0,0.7,0,1.1L1402.2,206.3z M1393,206.3v-22.1
		c0.1-1.6-0.6-3.2-1.8-4.1c-1-0.9-2.3-1.3-3.7-1.4h-5.1c-0.3,0-0.5,0.2-0.5,0.5v32.2c0,0.3,0.2,0.5,0.5,0.5h5.1
		c1.3,0,2.6-0.5,3.7-1.4C1392.4,209.4,1393.1,207.9,1393,206.3z"/>
	<path id="패스_33" class="st0" d="M1469.3,178.6h-9.2c-0.3,0-0.5,0.2-0.5,0.5v41.5c0,0.3-0.2,0.5-0.5,0.5h-8.3
		c-0.3,0-0.5-0.2-0.5-0.5v-41.5c0-0.3-0.2-0.5-0.5-0.5h-9.2c-0.3,0-0.5-0.2-0.5-0.5v-8.3c0-0.3,0.2-0.5,0.5-0.5h28.5
		c0.3,0,0.5,0.2,0.5,0.5v8.3C1469.8,178.4,1469.6,178.6,1469.3,178.6z"/>
	<path id="패스_34" class="st0" d="M1502.2,206.3c0.1,4-1.4,7.8-4.1,10.6c-2.9,2.8-6.8,4.3-10.9,4.1c-3.9,0.1-7.6-1.4-10.3-4.1
		c-2.8-2.8-4.3-6.6-4.1-10.6v-22.1c-0.2-8.1,6.3-14.9,14.4-15.1s14.9,6.3,15.1,14.4c0,0.2,0,0.5,0,0.7L1502.2,206.3z M1492.9,206.3
		v-22.1c0.1-1.6-0.6-3.2-1.8-4.1c-2.1-1.8-5.3-1.8-7.4,0c-1.3,1-2,2.5-1.8,4.1v22.1c-0.1,1.6,0.6,3.2,1.8,4.1c2.1,1.8,5.3,1.8,7.4,0
		C1492.4,209.4,1493.1,207.9,1492.9,206.3L1492.9,206.3z"/>
	<path id="패스_35" class="st0" d="M1433.3,173.5c-5.7-5.9-15-6-20.9-0.3c-3,2.9-4.6,6.8-4.5,10.9v36.4c0,0.3,0.2,0.5,0.5,0.5h8.3
		c0.3,0,0.5-0.2,0.5-0.5c0,0,0,0,0,0v-20.2c0-0.3,0.2-0.5,0.5-0.5l0,0h10.1c0.3,0,0.5,0.2,0.5,0.5c0,0,0,0,0,0v20.2
		c0,0.3,0.2,0.5,0.5,0.5l0,0h8.3c0.3,0,0.5-0.2,0.5-0.5c0,0,0,0,0,0v-36.4C1437.6,180.2,1436.1,176.4,1433.3,173.5z M1417.6,190.6
		c-0.3,0-0.5-0.2-0.5-0.5c0,0,0,0,0,0v-6c-0.1-1.6,0.6-3.2,1.8-4.1c2.1-1.8,5.3-1.8,7.4,0c1.3,1,2,2.5,1.8,4.1v6
		c0,0.3-0.2,0.5-0.5,0.5l0,0L1417.6,190.6z"/>
</g>
</svg>
