<svg xmlns="http://www.w3.org/2000/svg" xmlns:xlink="http://www.w3.org/1999/xlink" viewBox="0 0 51.436 119.253"><defs><style>.cls-1{isolation:isolate;}.cls-2,.cls-4{opacity:0.3;}.cls-3{fill:url(#쥔晤牆渾_藎雪猥粧_54);}.cls-4,.cls-6{fill:#0f054c;}.cls-5{fill:url(#쥔晤牆渾_藎雪猥粧_55);}.cls-7,.cls-8{fill:#42e8e0;}.cls-8{opacity:0.4;}.cls-9{fill:url(#쥔晤牆渾_藎雪猥粧_54-2);}.cls-10{fill:url(#쥔晤牆渾_藎雪猥粧_51);}.cls-11{fill:url(#쥔晤牆渾_藎雪猥粧_55-2);}.cls-12{fill:#fff;}.cls-13{fill:url(#쥔晤牆渾_藎雪猥粧_55-3);}.cls-14{opacity:0.5;mix-blend-mode:lighten;fill:url(#쥔晤牆渾_藎雪猥粧_56);}</style><linearGradient id="쥔晤牆渾_藎雪猥粧_54" x1="7.777" y1="118.98" x2="48.587" y2="142.541" gradientUnits="userSpaceOnUse"><stop offset="0" stop-color="#bcbeff"/><stop offset="0.227" stop-color="#aaadf8"/><stop offset="0.68" stop-color="#7c83e5"/><stop offset="1" stop-color="#5761d7"/></linearGradient><linearGradient id="쥔晤牆渾_藎雪猥粧_55" x1="2.66" y1="127.886" x2="54.096" y2="127.886" gradientUnits="userSpaceOnUse"><stop offset="0" stop-color="#e9e9fd"/><stop offset="0.36" stop-color="#d3d2f9"/><stop offset="0.706" stop-color="#c5c4f7"/><stop offset="1" stop-color="#c0bff6"/></linearGradient><linearGradient id="쥔晤牆渾_藎雪猥粧_54-2" x1="7.777" y1="89.693" x2="48.587" y2="113.254" xlink:href="#쥔晤牆渾_藎雪猥粧_54"/><linearGradient id="쥔晤牆渾_藎雪猥粧_51" x1="10.226" y1="88.106" x2="46.62" y2="109.118" gradientUnits="userSpaceOnUse"><stop offset="0.242" stop-color="#5761d7"/><stop offset="0.392" stop-color="#7a82e5"/><stop offset="0.546" stop-color="#979cf0"/><stop offset="0.7" stop-color="#acaff8"/><stop offset="0.852" stop-color="#b8bafd"/><stop offset="1" stop-color="#bcbeff"/></linearGradient><linearGradient id="쥔晤牆渾_藎雪猥粧_55-2" x1="2.66" y1="98.599" x2="54.096" y2="98.599" xlink:href="#쥔晤牆渾_藎雪猥粧_55"/><linearGradient id="쥔晤牆渾_藎雪猥粧_55-3" x1="3.45" y1="98.599" x2="53.306" y2="98.599" xlink:href="#쥔晤牆渾_藎雪猥粧_55"/><linearGradient id="쥔晤牆渾_藎雪猥粧_56" x1="28.377" y1="111.117" x2="28.377" y2="28.035" gradientUnits="userSpaceOnUse"><stop offset="0" stop-color="#42e8e0"/><stop offset="0.106" stop-color="#37b6bf"/><stop offset="0.22" stop-color="#2c87a1"/><stop offset="0.338" stop-color="#235f87"/><stop offset="0.459" stop-color="#1c3f72"/><stop offset="0.582" stop-color="#162561"/><stop offset="0.711" stop-color="#121355"/><stop offset="0.846" stop-color="#10084e"/><stop offset="1" stop-color="#0f054c"/></linearGradient></defs><g class="cls-1"><g id="_迹_1" data-name="卵迹_1"><g class="cls-2"><path class="cls-3" d="M54.1,132.368v-4.482l-1.24-.689c-.35,2.115-2.84,3.508-4.921,3.8l-14.173,8.289-6.186,2.233L7.832,131.328l.456-.263c-1.687-.788-2.6-2.592-3.509-4.237l-1.329.793-.79.222v4.6h0A2.948,2.948,0,0,0,4.4,134.864l19.781,11.421a9.3,9.3,0,0,0,8.4,0l19.781-11.42a2.974,2.974,0,0,0,1.736-2.383c0-.038,0-.077,0-.115Z" transform="translate(-2.66 -28.035)"/><path class="cls-4" d="M47.935,131l-14.173,8.289-5.384,1.944v6.06a8.6,8.6,0,0,0,4.2-1l19.781-11.42a2.974,2.974,0,0,0,1.736-2.383c0-.038,0-.077,0-.115h0v-4.482l-1.133-.63h-.119C52.458,129.338,50,130.708,47.935,131Z" transform="translate(-2.66 -28.035)"/><path class="cls-5" d="M24.178,141.731,4.4,130.311c-2.316-1.337-2.316-3.513,0-4.85l19.78-11.42a9.3,9.3,0,0,1,8.4,0l19.781,11.42c2.316,1.337,2.316,3.513,0,4.85l-19.781,11.42A9.291,9.291,0,0,1,24.178,141.731Z" transform="translate(-2.66 -28.035)"/><g class="cls-2"><path class="cls-6" d="M24.178,141.731,4.4,130.311c-2.316-1.337-2.316-3.513,0-4.85l19.78-11.42a9.3,9.3,0,0,1,8.4,0l19.781,11.42c2.316,1.337,2.316,3.513,0,4.85l-19.781,11.42A9.291,9.291,0,0,1,24.178,141.731Z" transform="translate(-2.66 -28.035)"/></g></g><path class="cls-7" d="M28.378,128.048a7.629,7.629,0,0,1-3.728-.89L4.869,115.738a2.39,2.39,0,0,1,0-4.506l19.78-11.42a8.257,8.257,0,0,1,7.456,0l19.781,11.42a2.39,2.39,0,0,1,0,4.506l-19.781,11.42A7.626,7.626,0,0,1,28.378,128.048Zm0-28.784a7.261,7.261,0,0,0-3.555.849l-19.78,11.42a2.052,2.052,0,0,0,0,3.9l19.782,11.42a7.859,7.859,0,0,0,7.109,0l19.781-11.42a2.052,2.052,0,0,0,0-3.9l-19.78-11.42A7.262,7.262,0,0,0,28.377,99.264Z" transform="translate(-2.66 -28.035)"/><path class="cls-8" d="M54.1,109.1v-6.774l-1.24-.689c-.35,2.115-2.84,3.508-4.921,3.8l-14.173,8.289-6.186,2.233L7.832,105.77l.456-.263c-1.687-.788-2.6-2.592-3.509-4.237l-1.329.793-.79.222v6.888h0A2.949,2.949,0,0,0,4.4,111.6l19.781,11.421a9.3,9.3,0,0,0,8.4,0L52.359,111.6a2.972,2.972,0,0,0,1.736-2.382c0-.038,0-.077,0-.115Z" transform="translate(-2.66 -28.035)"/><path class="cls-9" d="M54.1,103.081V98.6l-1.24-.689c-.35,2.115-2.84,3.508-4.921,3.8L33.762,110l-6.186,2.233L7.832,102.041l.456-.263c-1.687-.789-2.6-2.592-3.509-4.237l-1.329.793-.79.222v4.6h0A2.949,2.949,0,0,0,4.4,105.577L24.178,117a9.3,9.3,0,0,0,8.4,0l19.781-11.42A2.974,2.974,0,0,0,54.1,103.2c0-.038,0-.077,0-.115Z" transform="translate(-2.66 -28.035)"/><path class="cls-4" d="M47.935,101.708,33.762,110l-5.384,1.944V118a8.6,8.6,0,0,0,4.2-1l19.781-11.42A2.974,2.974,0,0,0,54.1,103.2c0-.038,0-.077,0-.115h0V98.6l-1.133-.63h-.119C52.458,100.051,50,101.421,47.935,101.708Z" transform="translate(-2.66 -28.035)"/><path class="cls-10" d="M8.288,101.778,27.033,90.956a2.97,2.97,0,0,1,2.689,0l18.417,10.633-.2.119c2.081-.29,4.571-1.683,4.921-3.8l-20.669-11.5-6.014-1.59-4.9,2.879-16.5,9.838C5.692,99.186,6.6,100.989,8.288,101.778Z" transform="translate(-2.66 -28.035)"/><path class="cls-4" d="M28.378,85.407l-2.205-.583-4.9,2.879-16.5,9.838c.913,1.645,1.822,3.448,3.509,4.237L27.033,90.956a2.739,2.739,0,0,1,1.345-.322Z" transform="translate(-2.66 -28.035)"/><path class="cls-11" d="M24.178,112.444,4.4,101.024c-2.316-1.337-2.316-3.513,0-4.85l19.78-11.42a9.3,9.3,0,0,1,8.4,0l19.781,11.42c2.316,1.337,2.316,3.513,0,4.85l-19.781,11.42A9.294,9.294,0,0,1,24.178,112.444ZM29.722,86.4a2.976,2.976,0,0,0-2.689,0L7.252,97.822a.82.82,0,0,0,0,1.553L27.033,110.8a2.978,2.978,0,0,0,2.69,0L49.5,99.376a.82.82,0,0,0,0-1.553Z" transform="translate(-2.66 -28.035)"/><path class="cls-12" d="M49.5,97.823,29.722,86.4a2.976,2.976,0,0,0-2.689,0L7.252,97.822c-.494.286-.657.691-.492,1.056a1.145,1.145,0,0,1,.492-.5l19.781-11.42a2.973,2.973,0,0,1,2.689,0L49.5,98.381a1.144,1.144,0,0,1,.492.5C50.161,98.513,50,98.108,49.5,97.823Z" transform="translate(-2.66 -28.035)"/><path class="cls-12" d="M52.359,101.024l-19.781,11.42a9.294,9.294,0,0,1-8.4,0L4.4,101.024a3.123,3.123,0,0,1-1.716-2.146,2.8,2.8,0,0,0,1.716,2.7L24.178,113a9.3,9.3,0,0,0,8.4,0l19.781-11.42a2.806,2.806,0,0,0,1.716-2.7A3.121,3.121,0,0,1,52.359,101.024Z" transform="translate(-2.66 -28.035)"/><path class="cls-13" d="M24.736,112.122,4.956,100.7c-2.008-1.159-2.008-3.045,0-4.2l19.78-11.42a8.062,8.062,0,0,1,7.283,0L51.8,96.5c2.008,1.159,2.008,3.045,0,4.2l-19.78,11.42A8.064,8.064,0,0,1,24.736,112.122ZM30.281,86.08a4.213,4.213,0,0,0-3.807,0L6.694,97.5a1.161,1.161,0,0,0,0,2.2l19.781,11.42a4.213,4.213,0,0,0,3.807,0L50.062,99.7a1.161,1.161,0,0,0,0-2.2Z" transform="translate(-2.66 -28.035)"/><path class="cls-8" d="M29.722,86.4a2.976,2.976,0,0,0-2.689,0L7.252,97.822a.82.82,0,0,0,0,1.553L27.033,110.8a2.978,2.978,0,0,0,2.69,0L49.5,99.376a.82.82,0,0,0,0-1.553Z" transform="translate(-2.66 -28.035)"/><path class="cls-14" d="M50.057,98.584V28.035H6.7l0,70.548a.932.932,0,0,0,.553.792L27.033,110.8a2.978,2.978,0,0,0,2.69,0L49.5,99.376A.933.933,0,0,0,50.057,98.584Z" transform="translate(-2.66 -28.035)"/></g></g></svg>